<svg width="1118" height="348" viewBox="0 0 1118 348" fill="none" xmlns="http://www.w3.org/2000/svg">
<path fill-rule="evenodd" clip-rule="evenodd" d="M83.3726 67.169C76.8857 68.867 69.2471 71.698 66.3979 73.4588C59.1101 77.9628 49.4713 93.6287 46.5751 105.673C45.1444 111.628 42.0164 117.096 39.0552 118.816C27.9843 125.248 13.1167 153.685 12.9454 168.754C12.5374 204.502 13.8581 221.716 19.1032 249.069C26.5167 287.726 30.945 298.435 47.8006 318.485C59.7065 332.645 74.9356 340.3 92.3542 340.878C108.666 341.42 121.563 334.491 140.011 315.27C147.083 307.899 153.372 301.821 153.984 301.759C154.596 301.698 162.788 296.272 172.186 289.701C191.606 276.124 206.489 256.748 201.352 251.732C199.185 249.616 197.394 249.673 194.875 251.936C192.959 253.656 186.831 258.945 181.256 263.692C171.139 272.305 171.127 272.308 174.349 265.485C195.288 221.181 199.537 199.237 198.031 143.233C197.561 125.771 196.955 123.49 188.876 108.672C178.111 88.9307 178.247 89.0589 157.029 78.5971C129.024 64.7882 106.069 61.2266 83.3726 67.169ZM131.523 86.3883C135.904 87.8324 146.72 92.6115 155.558 97.0112C177.862 108.108 183.572 117.713 186.428 148.925C190.333 191.639 180.54 229.72 155.366 269.706L145.399 285.539L122.837 287.806C100.741 290.027 100.027 289.913 88.3446 282.264C73.3259 272.432 60.2947 251.544 56.4449 231.131C54.987 223.393 52.771 216.454 51.5236 215.714C42.9034 210.596 48.3072 248.31 59.1061 268.644C72.978 294.765 86.8666 306.361 108.901 310.212L120.103 312.172L110.871 316.364C91.3872 325.213 63.1517 315.683 49.792 295.753C37.0401 276.723 32.1402 260.621 26.7215 219.913L21.7137 182.286L26.7616 166.03C29.5386 157.091 34.1953 146.578 37.1127 142.671L42.4138 135.567L41.9172 145.473C41.5504 152.751 42.1669 155.293 44.2383 155.056C49.4774 154.453 51.7161 150.428 52.2623 140.622C52.9832 127.671 56.0387 121.898 64.5208 117.452C72.9009 113.065 73.8952 102.922 65.7302 105.136C63.08 105.854 60.8098 105.449 60.6879 104.236C60.4198 101.569 70.8773 92.2525 78.5509 88.3247C86.1197 84.4495 121.698 83.1496 131.523 86.3883ZM41.6675 169.791C41.1498 172.216 41.8954 175.343 43.3255 176.739C47.0446 180.371 52.9685 176.114 51.561 170.826C49.9937 164.933 42.8673 164.188 41.6675 169.791ZM46.313 191.814C44.6453 196.024 47.7395 198.32 50.2013 194.698C51.578 192.672 51.4688 191.214 49.8703 190.266C48.5596 189.488 46.9592 190.185 46.313 191.814Z" fill="white" fill-opacity="0.7"/>
<path fill-rule="evenodd" clip-rule="evenodd" d="M361.383 52.6578C360.457 53.5052 359.381 57.3671 358.99 61.2406C358.357 67.5426 358.804 68.7671 363.236 72.8702C366.616 76.0003 369.87 82.1901 373.479 92.3559C380.215 111.332 383.19 134.87 382.778 165.935C382.611 178.529 382.695 189.488 382.964 190.287C383.233 191.085 383.118 205.376 382.709 222.046L381.966 252.355L375.6 253.689C372.099 254.422 368.172 254.746 366.87 254.41C365.57 254.074 363.742 254.709 362.805 255.823C361.87 256.938 354.489 259.579 346.404 261.693C338.32 263.805 331.075 266.241 330.307 267.102C328.457 269.18 307.968 272.993 299.617 272.813C293.534 272.683 292.995 272.258 292.817 267.432C292.711 264.55 292.193 261.395 291.666 260.422C291.138 259.449 292.114 254.787 293.833 250.062C296.691 242.213 298.242 233.581 301.541 207.163C302.184 202.014 303.823 192.967 305.184 187.057C307.441 177.252 308.028 176.276 311.906 175.868C315.404 175.503 316.273 174.435 316.832 169.82C317.37 165.372 316.723 163.51 313.691 160.778C305.901 153.761 302.589 157.979 299.532 178.818C292.852 224.335 291.174 233.67 288.204 241.813C286.405 246.747 283.559 251.678 281.882 252.768C278.414 255.026 274.843 264.928 275.767 269.722C276.153 271.73 278.245 273.117 281.362 273.433C284.727 273.773 283.319 274.405 277.012 275.385C271.882 276.181 260.168 278.461 250.981 280.456C233.531 284.239 220.302 285.939 220.376 284.386C220.4 283.885 221.807 278.293 223.504 271.958C227.045 258.736 228.117 251.011 233.677 198.702C234.895 187.251 236.695 173.212 237.678 167.504C238.662 161.797 240.513 150.821 241.794 143.113C243.073 135.404 244.538 129.118 245.05 129.143C245.562 129.167 246.556 125.684 247.258 121.401C249.6 107.136 260.977 84.4688 264.631 86.7918C266.988 88.2913 270.85 84.5368 270.235 81.3457C269.925 79.7385 270.335 77.8329 271.147 77.1119C271.957 76.3909 272.818 71.6712 273.058 66.6229C273.478 57.7871 273.326 57.3864 268.942 55.8553C263.114 53.8182 255.059 55.7703 254.893 59.259C254.748 62.3073 247.044 72.7383 245.01 72.6416C244.278 72.6067 243.57 74.8707 243.437 77.6746C243.303 80.4786 242.66 83.2457 242.006 83.8278C241.352 84.4077 240.23 89.2488 239.511 94.582C238.792 99.9173 235.957 113.951 233.213 125.771C230.468 137.591 228.061 150.662 227.863 154.819C227.646 159.385 226.608 163.316 225.239 164.755C223.465 166.619 223.239 168.06 224.193 171.395C225.039 174.352 224.805 180.048 223.427 190.026C222.335 197.93 220.841 211.365 220.107 219.878C218.068 243.521 213.55 267.626 210.184 272.812C209.496 273.872 208.853 276.398 208.756 278.428C208.66 280.455 206.59 285.017 204.157 288.567C200.218 294.312 199.757 296.039 199.952 304.314C200.072 309.426 200.735 314.603 201.423 315.816C203.359 319.229 214.444 321.054 218.167 318.573C227.437 312.398 236.864 308.785 245.238 308.198C248.247 307.987 251.296 307.291 252.016 306.651C252.734 306.012 259.876 304.288 267.885 302.82C275.894 301.351 284.63 299.5 287.298 298.707C290.068 297.884 293.067 298.159 294.284 299.342C296.391 301.395 310.38 297.913 331.194 290.154C336.007 288.362 343.577 285.617 348.016 284.058C352.454 282.496 358.813 280.183 362.147 278.915C370.861 275.596 380.184 273.644 391.22 272.828C399.473 272.216 401.274 271.371 403.732 266.965C407.075 260.974 408.029 249.412 405.486 245.721C404.405 244.153 401.933 243.604 399.092 244.302C396.327 244.982 394.155 244.532 393.7 243.183C392.527 239.698 392.093 209.113 392.796 179.355C393.146 164.566 393.128 151.931 392.757 151.277C392.386 150.623 392.198 147.655 392.339 144.68C392.786 135.285 388.008 101.953 384.176 87.7381C382.148 80.2193 377.725 68.9454 374.344 62.6826C368.492 51.843 365.124 49.2387 361.383 52.6578Z" fill="white" fill-opacity="0.7"/>
<path fill-rule="evenodd" clip-rule="evenodd" d="M474.753 4.42484C473.121 6.918 469.963 14.4015 467.739 21.0526C460.267 43.3863 455.161 60.1732 455.161 62.3983C455.161 63.6136 453.406 68.4125 451.261 73.0623C449.117 77.712 446.756 85.1452 446.016 89.5793C445.277 94.0133 442.809 105.804 440.532 115.781C435.133 139.438 432.987 150.985 430.787 168.183C429.794 175.943 427.478 193.169 425.638 206.466C422.945 225.915 418.973 281.369 418.007 313.008C417.837 318.515 420.952 322.271 425.742 322.338C430.103 322.396 436.114 315.209 438.363 307.252C439.615 302.818 442.454 293.748 444.672 287.097C446.89 280.446 450.665 268.656 453.061 260.896C463.319 227.661 476.483 197.726 492.106 172.111C497.625 163.064 502.139 154.736 502.139 153.603C502.139 152.471 503.473 150.453 505.101 149.119C506.731 147.785 510.789 141.928 514.123 136.101C517.454 130.276 524.622 119.554 530.053 112.272C535.484 104.99 544.982 92.0987 551.16 83.6255C557.339 75.1524 565.031 64.8633 568.257 60.7597L574.117 53.3004L573.091 60.3546C572.525 64.2344 570.65 72.3972 568.922 78.494C567.196 84.5909 564.298 96.3815 562.482 104.695C560.667 113.009 554.984 110.533 549.853 146.845C541.603 205.24 540.615 216.743 541.309 246.367C542.214 284.968 547.396 307.252 555.466 307.252C559.337 307.252 560.248 304.919 559.853 296.019C559.58 289.837 557.392 278.383 554.992 270.561C549.322 252.082 550.337 215.69 557.754 171.448C563.698 136.001 567.995 127.608 571.457 109.734C575.975 86.4048 584.529 53.2158 588.253 44.5673C592.812 33.9719 592.986 29.3968 588.948 26.0913C584.619 22.5461 582.473 24.6905 561.849 53.1593C552.157 66.5402 543.615 77.9398 542.866 78.494C542.116 79.0483 538.39 84.1353 534.587 89.7969C530.784 95.4604 522.503 107.705 516.188 117.006C480.37 169.765 461.989 206.357 443.878 260.952C432.123 296.387 428.607 303.697 428.607 292.7C428.607 276.941 433.356 222.245 436.874 197.503C444.67 142.657 446.639 132.308 457.224 90.587C459.615 81.1645 462.436 69.374 463.494 64.3856C466.327 51.025 469.152 42.7796 476.097 27.6009L482.32 13.9924L490.699 14.5003C497.956 14.9377 499.161 14.4156 499.713 10.5882C500.176 7.37546 498.669 5.31165 494.198 3.03011C485.413 -1.45234 478.266 -0.940397 474.753 4.42484Z" fill="white" fill-opacity="0.7"/>
<path fill-rule="evenodd" clip-rule="evenodd" d="M748.269 19.1098C736.497 19.0306 751.96 21.6055 738.86 21.7073C725.76 21.8091 705.715 21.5066 694.313 21.0339C682.914 20.5615 673.478 21.1397 673.348 22.3189C673.218 23.5007 668.123 24.7474 662.028 25.0923C645.933 26.0011 644.596 26.7753 640.765 37.4034C637.081 47.6215 628.01 117.224 623.468 170.118C620.765 201.592 620.687 201.887 611.012 217.963C603.496 230.449 600.622 238.183 598.406 251.872C595.934 267.153 594.924 269.537 591.101 269.115C585.183 268.462 583.491 282.412 588.616 289.603C590.647 292.454 593.285 298.7 594.477 303.483C595.673 308.264 597.782 313.492 599.168 315.097C603.013 319.55 611.377 316.954 615.056 310.164C617.904 304.902 619.94 304.269 630.304 305.413C654.201 308.051 661.077 297.261 638.898 291.93C623.603 288.251 621.94 286.477 625.118 277.213C626.873 272.1 635.074 267.565 667.968 253.511C712.27 234.586 732.251 221.713 733.394 211.358C734.395 202.288 721.451 183.403 709.679 176.757C693.892 167.845 680.952 169.169 648.893 182.974C641.383 186.207 635.016 188.502 634.744 188.072C634.47 187.645 635.38 164.591 636.763 136.847C638.894 94.149 640.071 83.8939 644.431 70.0739C647.261 61.0964 650.986 52.0391 652.704 49.9535C654.696 47.5306 661.701 46.1244 672.047 46.0677C681.739 46.0159 689.443 44.5619 691.194 42.4559C692.805 40.5158 697.045 38.4528 700.617 37.8694C706.094 36.9767 707.13 37.7491 707.214 42.791C707.269 46.082 709.124 49.3745 711.332 50.1059C714.517 51.1607 715.553 49.5941 716.33 42.5585L717.31 33.6804L741.778 33.0031C764.639 32.3722 756.453 32.1938 772.561 36.1859C783.599 38.9203 799.789 37.4518 800.206 33.68C801.073 25.8206 777.879 19.3146 748.269 19.1098ZM704.228 195.177C725.407 203.47 710.929 216.335 653.571 240.197L626.643 251.398L628.563 233.999C630.45 216.904 630.681 216.434 641.811 206.987C661.012 190.689 682.418 186.639 704.228 195.177ZM612.729 260.46C608.968 263.839 608.615 263.802 609.026 260.075C609.276 257.809 611.249 252.075 613.408 247.331L617.334 238.709L617.111 247.716C616.97 253.343 615.326 258.128 612.729 260.46Z" fill="white" fill-opacity="0.7"/>
<path fill-rule="evenodd" clip-rule="evenodd" d="M828.938 20.1075C824.398 24.1363 824.137 24.8966 810.381 74.2408C802.707 101.769 795.628 125.288 794.651 126.51C793.674 127.731 793.216 130.171 793.634 131.93C794.052 133.69 792.876 141.687 791.019 149.707C789.163 157.724 786.856 169.643 785.891 176.195C784.927 182.747 783.595 191 782.933 194.535C780.868 205.571 778.215 224.583 778.087 229.264C778.02 231.727 777.622 239.231 777.201 245.939C776.781 252.647 776.557 262.169 776.705 267.1C776.853 272.032 776.764 276.8 776.507 277.698C776.25 278.597 776.162 284.982 776.312 291.889C776.592 304.785 777.868 306.899 783.356 303.564C786.072 301.914 787.709 297.487 795.072 271.888C799.779 255.522 803.506 241.081 803.355 239.799C803.013 236.898 805.715 223.505 810.126 206.262C812.873 195.518 813.892 193.225 815.704 193.716C817.301 194.148 817.569 193.723 816.66 192.204C815.836 190.824 816.465 187.482 818.474 182.567C820.957 176.49 822.318 175.044 825.543 175.055C827.74 175.06 833.854 174.793 839.129 174.458C844.404 174.122 852.11 174.822 856.253 176.014C862.779 177.89 864.412 179.489 868.465 187.971C875.307 202.286 864.356 286.771 862.331 297.507C860.696 306.161 860.813 306.472 868.474 313.746C879.409 324.128 886.44 325.712 888.568 318.272C889.663 314.443 887.271 304.173 885.143 303.564C882.038 302.676 881.85 186.081 882.789 179.371C883.328 175.525 870.479 158.369 863.954 154.223C858.996 151.074 859.46 149.148 866.977 141.644C879.789 128.855 883.638 124.209 893.511 109.619C904.795 92.9398 906.705 86.5926 902.586 79.4466C893.955 64.4804 857.125 97.5111 824.849 149.168C811.566 170.426 800.627 199.36 795.087 227.894C793.086 238.198 790.173 252.358 788.614 259.36C785.437 273.624 785.509 273.963 785.527 244.934C785.54 224.208 786.212 218.482 792.837 182.696C802.151 132.368 827.623 46.6933 834.25 43.3971C835.862 42.5963 838.851 35.4179 840.192 29.1315C840.765 26.44 836.252 16.7957 834.137 16.1907C833.809 16.097 831.47 17.8591 828.938 20.1075ZM872.595 114.654C865.458 123.477 857.499 132.627 854.906 134.989C852.315 137.351 847.904 141.931 845.106 145.165C842.308 148.398 839.156 150.799 838.101 150.497C835.843 149.851 850.901 127.932 859.142 119.867C862.007 117.064 864.575 113.984 864.851 113.022C865.28 111.522 883.953 98.1521 885.143 98.4926C885.378 98.5596 879.73 105.833 872.595 114.654Z" fill="white" fill-opacity="0.7"/>
<path fill-rule="evenodd" clip-rule="evenodd" d="M1021.87 52.2633C1018.88 54.7915 1016.34 71.5561 1018.14 76.8751C1020.6 84.1412 1021.73 97.2959 1020.09 99.4723C1018.35 101.774 1002.81 144.818 999.7 155.966C998.739 159.406 997.164 162.612 996.199 163.091C995.231 163.571 994.111 166.6 993.707 169.824C992.236 181.561 979.824 212.229 977.393 210.139C976.551 209.414 976.171 206.342 976.551 203.31C977.334 197.066 973.791 191.822 969.984 193.589C963.18 196.743 954.064 205.791 953.529 209.921C953.202 212.442 954.278 217.207 955.922 220.513C958.519 225.741 959.774 226.482 965.543 226.207L972.177 225.891L969.709 235.301C968.351 240.476 964.194 249.816 960.474 256.059C956.752 262.302 953.601 268.255 953.471 269.292C952.887 273.95 937.686 287.467 927.155 292.696C905.991 303.2 903.088 308.015 910.203 320.795C913.804 327.261 916.354 327.87 925.903 324.536C934.738 321.454 941.796 315.508 951.421 303.041C962.422 288.791 983.901 248.043 984.991 239.355C985.217 237.547 986.034 236.144 986.805 236.241C990.524 236.707 1020.65 270.565 1031.27 286.213C1054.57 320.551 1074.34 346.474 1077.54 346.888C1083.46 347.651 1083.64 341.986 1078.26 324.698C1075.33 315.295 1072.3 301.714 1071.53 294.518C1070.75 287.321 1066.06 268.417 1061.12 252.507C1056.17 236.597 1051.07 217.64 1049.77 210.378C1048.48 203.117 1046.95 195.33 1046.37 193.073C1042.16 176.661 1034.58 123.701 1035.92 120.092C1036.8 117.709 1036.87 115.195 1036.06 114.505C1033.47 112.28 1034.16 97.9719 1037.31 88.4266C1044.79 65.7766 1044.94 63.801 1039.5 58.4595C1033.12 52.1787 1025.24 49.4115 1021.87 52.2633ZM1028.78 154.133C1030.58 164.734 1032.81 177.97 1033.74 183.547C1034.66 189.124 1036.72 198.764 1038.31 204.97C1039.9 211.176 1042.71 222.698 1044.56 230.574C1046.4 238.45 1050.82 253.727 1054.37 264.524C1057.92 275.322 1060.62 285.772 1060.37 287.747C1060.13 289.723 1060.58 293.195 1061.37 295.463C1062.17 297.733 1062.33 301.49 1061.72 303.816C1060.73 307.563 1059.72 306.719 1052.81 296.381C1048.53 289.968 1042.55 281.14 1039.54 276.765C1036.52 272.388 1030.42 263.473 1025.97 256.954C1021.52 250.434 1014.05 241.493 1009.36 237.083C1004.67 232.673 998.639 226.535 995.954 223.443L991.068 217.822L995.989 202.597C1001.26 186.289 1007.81 168.202 1011.84 158.818C1013.2 155.636 1014.53 151.398 1014.78 149.4C1015.03 147.402 1016.56 142.743 1018.19 139.047C1019.81 135.351 1021.69 131.055 1022.36 129.5C1023.85 126.026 1024.3 127.762 1028.78 154.133Z" fill="white" fill-opacity="0.7"/>
</svg>
