<svg width="176" height="296" viewBox="0 0 176 296" fill="none" xmlns="http://www.w3.org/2000/svg">
<path fill-rule="evenodd" clip-rule="evenodd" d="M115.146 1.12268C112.156 3.65091 109.618 20.4154 111.419 25.7344C113.879 33.0006 115.016 46.1553 113.369 48.3317C111.629 50.6334 96.0948 93.6773 92.9812 104.826C92.0206 108.266 90.4451 111.472 89.4799 111.95C88.5126 112.431 87.3925 115.459 86.9883 118.683C85.5169 130.421 73.1053 161.088 70.6739 158.998C69.8319 158.273 69.4525 155.201 69.8326 152.169C70.6154 145.925 67.0725 140.682 63.2654 142.448C56.4614 145.602 47.3451 154.65 46.8106 158.781C46.4835 161.301 47.5595 166.067 49.2036 169.372C51.8006 174.601 53.0553 175.342 58.8247 175.066L65.458 174.75L62.9899 184.16C61.6321 189.336 57.4755 198.675 53.7551 204.919C50.0329 211.162 46.882 217.115 46.7521 218.151C46.1681 222.81 30.9677 236.327 20.4365 241.555C-0.728081 252.059 -3.63072 256.874 3.48411 269.654C7.08476 276.12 9.63508 276.73 19.1847 273.396C28.0196 270.313 35.0773 264.367 44.7018 251.901C55.7032 237.65 77.1827 196.903 78.2718 188.215C78.4985 186.406 79.3149 185.004 80.0858 185.1C83.8055 185.567 113.931 219.424 124.55 235.072C147.849 269.41 167.622 295.334 170.826 295.747C176.737 296.51 176.918 290.846 171.54 273.558C168.615 264.154 165.584 250.573 164.807 243.377C164.028 236.181 159.345 217.276 154.4 201.366C149.455 185.457 144.351 166.499 143.054 159.238C141.76 151.977 140.228 144.189 139.65 141.933C135.445 125.52 127.862 72.5608 129.197 68.9514C130.079 66.568 130.146 64.0546 129.344 63.3643C126.756 61.1395 127.441 46.8312 130.592 37.286C138.072 14.6359 138.216 12.6604 132.783 7.31884C126.399 1.03809 118.518 -1.72909 115.146 1.12268ZM122.061 102.993C123.86 113.593 126.09 126.829 127.016 132.406C127.944 137.983 130.003 147.624 131.593 153.829C133.182 160.035 135.994 171.557 137.839 179.433C139.683 187.309 144.097 202.587 147.649 213.383C151.199 224.181 153.902 234.631 153.655 236.606C153.407 238.582 153.857 242.054 154.655 244.323C155.452 246.593 155.607 250.349 154.997 252.675C154.012 256.422 153.004 255.579 146.094 245.241C141.807 238.828 135.833 229.999 132.818 225.624C129.803 221.247 123.698 212.333 119.249 205.814C114.801 199.293 107.328 190.352 102.64 185.942C97.954 181.532 91.9205 175.395 89.2353 172.302L84.3495 166.682L89.2699 151.457C94.5427 135.148 101.09 117.061 105.119 107.678C106.486 104.495 107.809 100.257 108.06 98.259C108.31 96.2611 109.846 91.6026 111.47 87.9063C113.096 84.2103 114.971 79.914 115.64 78.3597C117.132 74.8852 117.585 76.6218 122.061 102.993Z" fill="white" fill-opacity="0.1"/>
</svg>
