<svg width="173" height="303" viewBox="0 0 173 303" fill="none" xmlns="http://www.w3.org/2000/svg">
<path fill-rule="evenodd" clip-rule="evenodd" d="M103.739 1.34243C100.906 4.09907 98.9881 21.536 100.922 26.9414C103.565 34.3256 105.113 47.8554 103.579 50.1832C101.958 52.6451 88.2356 97.8547 85.5692 109.52C84.7466 113.119 83.3162 116.507 82.3904 117.048C81.4626 117.591 80.4706 120.774 80.1838 124.123C79.1394 136.316 68.0515 168.592 65.6094 166.552C64.7636 165.844 64.291 162.691 64.5608 159.541C65.1164 153.054 61.4847 147.811 57.8289 149.821C51.2951 153.41 42.7017 163.198 42.3179 167.49C42.0828 170.109 43.2916 174.978 45.0059 178.312C47.7143 183.585 48.9633 184.289 54.5834 183.723L61.0452 183.074L58.9508 192.912C57.7985 198.323 54.0541 208.171 50.6321 214.8C47.2084 221.428 44.3324 227.73 44.2403 228.806C43.8257 233.646 29.4449 248.346 19.3435 254.259C-0.957198 266.138 -3.62887 271.251 3.73939 284.103C7.46825 290.605 9.977 291.111 19.1837 287.202C27.7014 283.589 34.3897 277.104 43.365 263.761C53.6242 248.508 73.2239 205.38 73.997 196.355C74.1579 194.476 74.9077 192.988 75.6631 193.05C79.3081 193.35 109.831 226.849 120.714 242.491C144.593 276.818 164.75 302.627 167.89 302.898C173.683 303.398 173.671 297.54 167.847 279.947C164.679 270.379 161.269 256.501 160.271 249.107C159.272 241.713 154.072 222.418 148.716 206.228C143.36 190.039 137.748 170.709 136.241 163.273C134.736 155.838 132.982 147.87 132.343 145.568C127.693 128.823 118.528 74.4994 119.711 70.7069C120.492 68.2024 120.473 65.6035 119.668 64.9297C117.068 62.7582 117.259 47.9482 120.016 37.937C126.559 14.1811 126.634 12.1339 121.154 6.88223C114.716 0.706894 106.933 -1.76691 103.739 1.34243ZM113.882 106.21C115.991 117.07 118.608 130.631 119.698 136.345C120.789 142.059 123.12 151.915 124.878 158.246C126.636 164.578 129.763 176.34 131.825 184.384C133.888 192.428 138.704 207.99 142.53 218.967C146.354 229.946 149.34 240.606 149.164 242.658C148.988 244.711 149.543 248.274 150.398 250.578C151.25 252.884 151.527 256.756 151.009 259.188C150.173 263.105 149.161 262.283 142.074 251.944C137.678 245.529 131.555 236.703 128.467 232.331C125.379 227.958 119.125 219.049 114.566 212.534C110.01 206.016 102.419 197.147 97.6979 192.821C92.9788 188.495 86.887 182.45 84.1639 179.387L79.2093 173.821L83.5027 157.858C88.1038 140.759 93.889 121.761 97.5073 111.874C98.7352 108.521 99.8853 104.079 100.063 102.003C100.241 99.9279 101.584 95.0422 103.045 91.1458C104.508 87.2495 106.195 82.7213 106.795 81.0835C108.136 77.4226 108.635 79.194 113.882 106.21Z" fill="white" fill-opacity="0.19"/>
</svg>
