<svg width="178" height="283" viewBox="0 0 178 283" fill="none" xmlns="http://www.w3.org/2000/svg">
<path fill-rule="evenodd" clip-rule="evenodd" d="M55.4524 2.08136C53.1025 5.11134 54.309 21.4299 57.2226 26.0386C61.2028 32.3345 65.1877 44.4564 64.0655 46.8623C62.8801 49.4064 57.2211 93.2733 56.6391 104.436C56.4596 107.881 55.6317 111.239 54.7993 111.9C53.9651 112.563 53.5406 115.655 53.8542 118.775C54.9958 130.133 49.6593 161.681 46.8405 160.246C45.8639 159.748 44.8228 156.942 44.5279 154.008C43.9205 147.965 39.3317 143.808 36.0215 146.3C30.1049 150.751 23.2336 161.249 23.6192 165.25C23.8535 167.691 25.9421 171.938 28.2626 174.687C31.9296 179.037 33.3104 179.46 38.8526 177.942L45.2249 176.197L44.8891 185.584C44.704 190.747 42.7129 200.437 40.4673 207.12C38.2199 213.803 36.4638 220.089 36.5646 221.091C37.0177 225.599 25.217 241.628 16.1352 248.843C-2.11727 263.339 -3.88157 268.5 5.82651 278.965C10.7392 284.26 13.3493 284.277 21.8927 279.057C29.7972 274.231 35.3488 267.099 41.9649 253.275C49.5274 237.474 61.4622 194.469 60.6172 186.062C60.4413 184.312 60.9269 182.814 61.6967 182.737C65.411 182.364 102.081 207.627 115.819 220.024C145.965 247.229 170.844 267.291 174.046 266.98C179.954 266.407 178.889 261.042 169.88 245.958C164.98 237.754 159.062 225.645 156.732 219.047C154.4 212.45 145.712 195.695 137.425 181.814C129.139 167.932 120.031 151.219 117.181 144.674C114.334 138.129 111.141 131.14 110.086 129.144C102.408 114.629 83.4456 66.4832 83.952 62.7976C84.2865 60.3639 83.8012 57.9858 82.8712 57.5117C79.8703 55.9846 77.4018 42.3803 78.3716 32.7166C80.6752 9.78502 80.3824 7.89587 73.9361 4.05881C66.3612 -0.454023 58.1016 -1.33604 55.4524 2.08136ZM84.4768 96.366C88.5458 105.942 93.6101 117.902 95.7308 122.943C97.8534 127.985 101.964 136.601 104.867 142.09C107.769 147.579 113.023 157.8 116.539 164.804C120.056 171.807 127.688 185.21 133.502 194.587C139.314 203.967 144.227 213.203 144.419 215.114C144.612 217.027 145.809 220.193 147.081 222.152C148.352 224.113 149.324 227.612 149.242 229.932C149.106 233.67 147.942 233.097 138.968 224.884C133.4 219.789 125.666 212.791 121.78 209.335C117.894 205.877 110.012 198.827 104.264 193.668C98.5173 188.507 89.3013 181.73 83.7833 178.606C78.2671 175.482 71.0638 171.027 67.7789 168.705L61.8034 164.486L63.2473 149.096C64.7961 132.609 67.193 114.172 69.0504 104.469C69.6811 101.178 70.0382 96.9038 69.8439 94.9703C69.6495 93.0369 70.1204 88.3211 70.888 84.4909C71.6574 80.6605 72.5375 76.2113 72.8465 74.6037C73.535 71.0107 74.3546 72.545 84.4768 96.366Z" fill="white" fill-opacity="0.19"/>
</svg>
