<svg width="182" height="279" viewBox="0 0 182 279" fill="none" xmlns="http://www.w3.org/2000/svg">
<path fill-rule="evenodd" clip-rule="evenodd" d="M57.6554 2.06772C55.2441 5.05556 56.413 21.0935 59.3704 25.613C63.4106 31.7871 67.433 43.6886 66.2778 46.0581C65.0574 48.5638 59.1089 91.7108 58.4714 102.687C58.2747 106.074 57.4164 109.379 56.5637 110.032C55.7094 110.687 55.2639 113.729 55.572 116.794C56.6939 127.956 51.1223 158.991 48.2493 157.591C47.254 157.105 46.2017 154.351 45.9119 151.468C45.315 145.53 40.6451 141.46 37.2551 143.923C31.196 148.322 24.1385 158.668 24.5168 162.6C24.7467 164.999 26.8631 169.166 29.2221 171.86C32.9499 176.122 34.3583 176.533 40.0238 175.019L46.5379 173.278L46.1586 182.509C45.9496 187.585 43.8788 197.119 41.5598 203.697C39.239 210.276 37.4214 216.462 37.5205 217.447C37.9658 221.878 25.853 237.681 16.5509 244.809C-2.14424 259.131 -3.96587 264.211 5.90738 274.462C10.9036 279.648 13.569 279.654 22.3135 274.49C30.4042 269.714 36.101 262.682 42.9107 249.066C50.6945 233.503 63.0485 191.179 62.2181 182.917C62.0452 181.197 62.5469 179.724 63.3333 179.645C67.1277 179.263 104.476 203.957 118.458 216.092C149.138 242.72 174.466 262.346 177.737 262.029C183.772 261.443 182.705 256.172 173.564 241.378C168.592 233.332 162.596 221.45 160.241 214.973C157.885 208.497 149.078 192.059 140.67 178.444C132.261 164.829 123.025 148.434 120.141 142.011C117.258 135.587 114.025 128.729 112.955 126.771C105.17 112.53 85.9926 65.2723 86.524 61.6471C86.8749 59.2532 86.3885 56.9172 85.4406 56.4548C82.382 54.965 79.9139 41.6003 80.9417 32.0963C83.3828 9.54356 83.091 7.68748 76.523 3.94024C68.8051 -0.466989 60.3739 -1.30215 57.6554 2.06772ZM86.9299 94.6458C91.0482 104.044 96.1735 115.782 98.3196 120.73C100.468 125.679 104.632 134.133 107.575 139.518C110.518 144.903 115.843 154.931 119.407 161.802C122.971 168.674 130.713 181.82 136.613 191.017C142.512 200.215 147.494 209.276 147.683 211.154C147.872 213.034 149.082 216.142 150.374 218.063C151.664 219.986 152.644 223.421 152.55 225.703C152.397 229.378 151.211 228.82 142.078 220.78C136.413 215.793 128.541 208.943 124.586 205.56C120.631 202.176 112.61 195.275 106.76 190.226C100.912 185.174 91.5265 178.548 85.9037 175.498C80.2827 172.448 72.9441 168.097 69.5986 165.826L63.5128 161.702L65.0469 146.566C66.6922 130.352 69.2112 112.218 71.1455 102.672C71.8022 99.4338 72.1834 95.2304 71.9925 93.3304C71.8015 91.4304 72.3006 86.7925 73.0993 83.0241C73.8998 79.2555 74.8157 74.8781 75.1375 73.2965C75.8544 69.7616 76.6855 71.2668 86.9299 94.6458Z" fill="white" fill-opacity="0.19"/>
</svg>
