<svg width="182" height="322" viewBox="0 0 182 322" fill="none" xmlns="http://www.w3.org/2000/svg">
<path fill-rule="evenodd" clip-rule="evenodd" d="M99.932 1.55811C97.0517 4.58979 95.606 23.2611 97.8085 28.9692C100.817 36.7671 102.878 51.1588 101.345 53.6918C99.726 56.3705 86.8064 105.057 84.3893 117.591C83.6436 121.459 82.254 125.12 81.3012 125.727C80.3463 126.336 79.4095 129.764 79.2173 133.347C78.5174 146.394 67.9405 181.193 65.3149 179.093C64.4054 178.365 63.808 175.013 63.9888 171.643C64.3612 164.702 60.3849 159.221 56.6182 161.482C49.8861 165.519 41.1959 176.237 40.9325 180.83C40.7709 183.632 42.1955 188.791 44.1003 192.295C47.1097 197.837 48.4416 198.55 54.314 197.768L61.0658 196.871L59.189 207.438C58.1564 213.25 54.5505 223.879 51.1784 231.062C47.8045 238.245 44.9941 245.061 44.9323 246.213C44.6545 251.392 30.0572 267.535 19.6611 274.165C-1.23237 287.485 -3.86711 293.027 4.27186 306.511C8.39069 313.333 11.0366 313.794 20.5599 309.331C29.3707 305.206 36.171 298.073 45.1464 283.548C55.4057 266.945 74.5528 220.295 75.0709 210.637C75.1787 208.627 75.9165 207.015 76.7103 207.058C80.5404 207.263 113.617 242.052 125.53 258.404C151.67 294.288 173.632 321.198 176.933 321.388C183.021 321.739 182.818 315.486 176.145 296.894C172.515 286.781 168.491 272.077 167.206 264.216C165.919 256.356 159.844 235.926 153.707 218.816C147.569 201.706 141.061 181.252 139.241 173.363C137.423 165.475 135.326 157.026 134.581 154.589C129.165 136.864 117.801 79.1728 118.918 75.0876C119.655 72.3899 119.552 69.6166 118.686 68.9229C115.89 66.6873 115.611 50.8743 118.177 40.1022C124.266 14.5405 124.278 12.3531 118.365 6.9209C111.416 0.533176 103.179 -1.86141 99.932 1.55811ZM113.958 113.165C116.52 124.689 119.702 139.08 121.029 145.145C122.358 151.209 125.12 161.655 127.167 168.357C129.215 175.059 132.873 187.514 135.296 196.035C137.718 204.555 143.27 221.013 147.635 232.608C151.998 244.205 155.473 255.489 155.355 257.683C155.237 259.88 155.934 263.666 156.904 266.098C157.873 268.532 158.288 272.656 157.824 275.268C157.075 279.475 155.987 278.63 148.225 267.818C143.409 261.111 136.705 251.884 133.327 247.316C129.95 242.745 123.106 233.434 118.117 226.624C113.13 219.812 104.887 210.585 99.7984 206.117C94.712 201.649 88.1314 195.39 85.178 192.206L79.8047 186.422L83.788 169.249C88.0571 150.853 93.5059 130.394 96.9783 119.727C98.1566 116.109 99.2184 111.332 99.3375 109.111C99.4567 106.891 100.706 101.633 102.112 97.4287C103.519 93.224 105.14 88.3377 105.717 86.5706C107.003 82.621 107.584 84.4958 113.958 113.165Z" fill="white" fill-opacity="0.1"/>
</svg>
