<svg width="849" height="356" viewBox="0 0 849 356" fill="none" xmlns="http://www.w3.org/2000/svg">
<path fill-rule="evenodd" clip-rule="evenodd" d="M797.573 65.5967C789.955 62.8024 778.916 62.2415 762.054 63.7887C753.697 64.5542 742.528 61.9099 735.984 63.2378C687.04 73.1704 663.617 135.56 660.972 206.088C658.328 276.616 659.688 243.232 661.361 277.111C658.446 329.649 662.39 316.905 675.409 329.411C680.191 334.007 692.594 335.604 705.074 333.236C717.537 330.869 743.917 319.676 767.943 306.559C782.841 298.426 797.687 290.436 800.934 288.806C808.131 285.191 810.657 275.854 805.777 270.907C801.484 266.551 792.652 267.225 779.369 272.918C767.688 277.924 743.299 278.257 720.467 273.723C710.469 271.737 704.467 268.943 696.147 262.407C685.802 254.276 685.253 253.353 687.473 247.768C691.479 237.699 679.969 213.781 679.969 213.781C679.969 213.781 678.669 213.569 681.604 196.719C680.06 194.14 689.035 154.068 701.19 132.224C713.344 110.381 713.805 83.8024 728.382 81.1741C741.091 78.8834 771.404 86.3168 779.016 100.682C787.33 116.372 794.654 123.609 797.721 119.167C800.839 114.652 800.07 106.258 795.88 99.0464C783.82 78.2992 766.536 84.6358 762.304 80.0377C757.564 74.8869 757.776 74.8369 772.533 77.6791C787.358 80.5328 803.924 90.5931 803.045 96.2071C802.837 97.5419 804.634 101.716 807.043 105.48C809.451 109.247 812.623 115.924 814.092 120.32C816.582 127.768 817.046 128.214 820.908 126.86C827.104 124.688 827.57 120.188 823.438 102.484C820.374 89.3553 818.199 84.6979 811.575 77.0843C807.114 71.9542 800.811 66.7855 797.573 65.5967ZM682.625 273.285C683.374 274.62 688.196 278.69 693.337 282.331C700.805 287.62 706.808 289.642 723.176 292.386C748.013 296.546 751.61 299.159 739.07 303.929C718.098 311.906 709.973 313.872 698.014 313.864C678.042 313.851 672.437 305.753 675.268 281.009C676.527 270.003 679.204 267.193 682.625 273.285Z" fill="white" fill-opacity="0.7"/>
<path fill-rule="evenodd" clip-rule="evenodd" d="M444.036 12.4227C440.765 23.5796 439.003 34.601 438.583 46.5297C438.488 49.2143 437.508 57.5193 436.404 64.9856C434.542 77.5636 433.662 85.2046 429.036 128.947C428.107 137.734 427.029 154.256 426.639 165.664L425.932 186.405L414.917 187.501C408.857 188.104 402.292 187.488 400.328 186.129C398.365 184.773 392.727 183.294 387.8 182.845C382.874 182.394 377.94 180.869 376.836 179.457C375.732 178.047 372.056 175.74 368.667 174.336C365.277 172.93 358.622 168.842 353.875 165.254L345.248 158.729L345.785 140.05C346.752 106.387 351.265 66.9498 355.404 56.0226C356.719 52.548 357.671 48.4771 357.522 46.9769C357.37 45.4746 359.286 43.4721 361.778 42.5238C367.252 40.4446 366.807 27.8966 361.119 23.9515C351.911 17.5601 339.881 30.6465 341.08 45.7531C341.364 49.324 340.617 53.0194 339.421 53.9652C338.225 54.9111 337.651 59.5012 338.144 64.165C338.639 68.8312 337.884 81.1532 336.469 91.5467C335.053 101.943 333.756 114.839 333.586 120.206C332.466 155.677 332.25 156.883 326.348 160.42C321.61 163.262 321.143 165.614 321.692 183.796C322.028 194.915 322.264 214.412 322.217 227.123C322.118 253.541 320.688 305.551 321.886 311.11C322.844 315.545 332.21 315.96 335.613 311.718C338.175 308.523 339.682 297.639 341.258 270.947C341.816 261.478 343.107 246.492 344.127 237.645C345.146 228.798 343.031 215.933 343.093 209.239C343.155 202.545 343.862 196.186 344.667 195.109C346.362 192.837 362.647 198.969 370.494 204.834C376.764 209.519 408.543 216.121 419.523 215.016L427.102 214.255L428.892 240.91C429.197 258.999 424.44 270.716 424.47 290.223C419.841 294.659 418.855 297.526 419.551 304.529C420.78 316.911 428.419 317.369 442.892 305.929C442.88 297.786 447.196 280.609 442.853 280.063C438.509 279.517 441.292 260.538 440.762 246.789C440.019 227.478 440.86 209.481 446.629 207.871C460.552 203.986 468.202 199.711 470.224 194.682C472.252 189.641 472.173 170.354 469.921 118.799C469.513 109.477 469.278 97.4627 469.399 92.1007C469.9 69.753 483.61 78.1772 484.434 56.3924C485.42 30.2864 463.75 0.733481 453.659 0.521666C448.38 0.409856 447.092 2.00199 444.036 12.4227ZM453.974 67.3398C453.352 75.1764 453.323 91.3901 453.91 103.369C454.643 118.301 453.967 126.588 451.761 129.726C449.42 133.054 449.357 134.221 451.533 134.004C453.751 133.783 454.458 136.697 454.271 145.283C453.517 179.866 452.759 182.519 443.364 183.454C437.774 184.01 437.605 183.641 437.77 171.244C438.161 141.624 438.501 137.733 440.728 137.511C442.016 137.383 442.224 134.989 441.192 132.188C439.205 126.797 441.361 105.562 444.16 102.973C445.07 102.131 445.386 98.8163 444.86 95.6075C444.337 92.3985 444.779 86.6056 445.844 82.735C446.91 78.8645 447.496 73.0062 447.148 69.7165C446.401 62.6654 452.07 46.3114 453.871 50.327C454.551 51.8474 454.598 59.5031 453.974 67.3398Z" fill="white" fill-opacity="0.7"/>
<path fill-rule="evenodd" clip-rule="evenodd" d="M76.439 74.489C70.7584 77.5499 64.2662 81.9483 62.0115 84.2622C56.2443 90.1808 50.9149 107.282 51.0505 119.429C51.1186 125.434 49.4801 131.351 47.1105 133.65C38.2525 142.25 31.0434 172.709 34.45 187.14C42.5299 221.375 47.8432 237.524 59.2365 262.486C75.339 297.765 82.0263 307.011 102.577 322.422C117.093 333.306 133.185 337.239 149.654 333.927C165.078 330.826 175.53 321.348 188.278 298.896C193.164 290.287 197.622 283.087 198.182 282.892C198.741 282.698 205.138 275.698 212.394 267.337C227.39 250.061 236.758 228.253 230.754 224.601C228.221 223.061 226.556 223.512 224.729 226.233C223.34 228.3 218.846 234.712 214.742 240.483C207.295 250.953 207.284 250.96 208.69 243.727C217.836 196.766 216.626 174.863 201.955 121.706C197.381 105.132 196.273 103.087 185.19 90.7262C170.423 74.2584 170.581 74.3507 148.209 69.065C118.68 62.0881 96.314 63.7783 76.439 74.489ZM126.137 82.1649C130.587 82.5722 141.86 84.7377 151.189 86.9793C174.729 92.6306 182.357 100.538 192.423 129.717C206.197 169.648 206.029 208.194 191.89 251.97L186.292 269.304L165.673 276.475C145.481 283.497 144.784 283.546 132.019 278.832C115.61 272.773 98.4459 255.713 90.0038 237.069C86.8051 230.002 83.0845 223.865 81.7399 223.436C72.4455 220.46 86.4401 255.283 101.38 272.31C120.57 294.182 136.338 302.176 157.911 300.966L168.878 300.353L161.214 306.405C145.039 319.18 116.308 316.341 99.0633 300.268C82.6017 284.921 74.1954 270.628 59.4779 232.948L45.875 198.12L46.7601 181.473C47.2478 172.319 49.1256 161.245 50.9362 156.866L54.2252 148.905L56.1045 158.477C57.4834 165.509 58.6634 167.801 60.5495 167.115C65.3193 165.377 66.4655 161.036 64.6564 151.549C62.2666 139.019 63.7648 132.826 70.6658 126.699C77.4847 120.649 76.0161 110.741 68.8842 114.666C66.5692 115.94 64.3446 116.057 63.9433 114.926C63.0606 112.438 70.6605 101.219 76.9259 95.7653C83.1056 90.3849 116.158 81.2509 126.137 82.1649ZM61.6271 181.759C61.7157 184.19 63.1549 187.011 64.8264 188.028C69.1734 190.671 73.7203 185.292 71.1487 180.553C68.2842 175.272 61.4256 176.141 61.6271 181.759ZM71.1963 201.763C70.6292 206.154 74.074 207.661 75.5249 203.656C76.3363 201.416 75.8887 200.047 74.1653 199.496C72.7523 199.044 71.4167 200.064 71.1963 201.763Z" fill="white" fill-opacity="0.7"/>
<path fill-rule="evenodd" clip-rule="evenodd" d="M569.106 26.9284C566.273 29.685 564.355 47.1219 566.29 52.5273C568.932 59.9115 570.48 73.4413 568.946 75.7692C567.325 78.231 553.603 123.441 550.936 135.106C550.114 138.705 548.683 142.093 547.758 142.634C546.83 143.177 545.838 146.36 545.551 149.708C544.507 161.902 533.419 194.178 530.977 192.138C530.131 191.43 529.658 188.276 529.928 185.127C530.484 178.64 526.852 173.397 523.196 175.407C516.662 178.996 508.069 188.784 507.685 193.076C507.45 195.695 508.659 200.564 510.373 203.898C513.081 209.171 514.33 209.875 519.951 209.309L526.412 208.66L524.318 218.498C523.166 223.909 519.421 233.757 515.999 240.386C512.576 247.014 509.7 253.316 509.607 254.392C509.193 259.232 494.812 273.932 484.711 279.845C464.41 291.724 461.738 296.837 469.107 309.689C472.835 316.191 475.344 316.697 484.551 312.788C493.069 309.175 499.757 302.69 508.732 289.347C518.991 274.094 538.591 230.966 539.364 221.941C539.525 220.062 540.275 218.574 541.03 218.636C544.675 218.936 575.198 252.434 586.081 268.077C609.96 302.404 630.117 328.213 633.257 328.484C639.051 328.984 639.038 323.126 633.214 305.533C630.047 295.965 626.636 282.087 625.639 274.693C624.639 267.299 619.439 248.004 614.083 231.814C608.728 215.625 603.116 196.295 601.609 188.859C600.104 181.424 598.349 173.456 597.71 171.154C593.06 154.409 583.895 100.085 585.078 96.2928C585.859 93.7884 585.84 91.1895 585.035 90.5156C582.435 88.3441 582.626 73.5341 585.383 63.523C591.926 39.7671 592.001 37.7198 586.521 32.4682C580.083 26.2928 572.3 23.819 569.106 26.9284ZM579.249 131.796C581.358 142.656 583.976 156.217 585.065 161.931C586.157 167.645 588.487 177.501 590.245 183.832C592.003 190.164 595.13 201.926 597.193 209.97C599.255 218.014 604.071 233.576 607.897 244.553C611.721 255.532 614.707 266.192 614.531 268.244C614.355 270.297 614.91 273.86 615.765 276.164C616.618 278.47 616.894 282.342 616.376 284.774C615.541 288.691 614.528 287.869 607.441 277.529C603.045 271.115 596.922 262.289 593.834 257.917C590.747 253.544 584.492 244.635 579.933 238.12C575.377 231.602 567.786 222.733 563.065 218.407C558.346 214.081 552.254 208.036 549.531 204.973L544.576 199.407L548.87 183.444C553.471 166.344 559.256 147.347 562.875 137.46C564.102 134.106 565.252 129.665 565.43 127.589C565.608 125.514 566.951 120.628 568.412 116.732C569.876 112.835 571.562 108.307 572.163 106.669C573.503 103.009 574.002 104.78 579.249 131.796Z" fill="white" fill-opacity="0.7"/>
</svg>
