<svg width="215" height="299" viewBox="0 0 215 299" fill="none" xmlns="http://www.w3.org/2000/svg">
<path fill-rule="evenodd" clip-rule="evenodd" d="M162.698 0.00184115C150.927 -0.0773568 166.39 2.49756 153.29 2.59936C140.19 2.70117 120.145 2.3987 108.743 1.92603C97.3434 1.45361 87.9078 2.03184 87.7777 3.21102C87.6472 4.39284 82.5526 5.63946 76.4579 5.98441C60.363 6.89323 59.0258 7.66739 55.1943 18.2955C51.5105 28.5135 42.4398 98.1157 37.898 151.01C35.1947 182.484 35.1169 182.779 25.4414 198.855C17.9256 211.341 15.0514 219.075 12.8359 232.764C10.3638 248.045 9.35341 250.43 5.53045 250.008C-0.387394 249.354 -2.07947 263.304 3.04524 270.495C5.07699 273.346 7.71439 279.592 8.90697 284.375C10.1022 289.156 12.2118 294.384 13.5982 295.989C17.4426 300.442 25.8063 297.846 29.4854 291.056C32.3341 285.794 34.3697 285.161 44.7336 286.305C68.6307 288.943 75.5071 278.153 53.328 272.822C38.0322 269.144 36.3693 267.369 39.548 258.105C41.3024 252.992 49.504 248.457 82.3973 234.403C126.699 215.478 146.68 202.605 147.823 192.25C148.825 183.18 135.881 164.295 124.109 157.649C108.322 148.737 95.3821 150.061 63.323 163.866C55.8124 167.099 49.4453 169.394 49.1739 168.964C48.8998 168.537 49.8098 145.483 51.1922 117.739C53.3234 75.0411 54.5007 64.786 58.8606 50.966C61.6911 41.9885 65.4157 32.9312 67.1333 30.8456C69.1261 28.4227 76.1304 27.0165 86.4769 26.9598C96.1684 26.908 103.873 25.454 105.624 23.348C107.235 21.4079 111.475 19.3449 115.047 18.7615C120.524 17.8688 121.56 18.6412 121.643 23.6831C121.699 26.9741 123.553 30.2666 125.762 30.9979C128.946 32.0528 129.983 30.4862 130.76 23.4506L131.74 14.5724L156.207 13.8951C179.068 13.2643 170.883 13.0859 186.991 17.078C198.029 19.8124 214.219 18.3439 214.635 14.5721C215.503 6.71264 192.309 0.206661 162.698 0.00184115ZM118.658 176.069C139.837 184.362 125.358 197.227 68.001 221.089L41.0723 232.29L42.9928 214.892C44.88 197.796 45.1104 197.326 56.2411 187.879C75.4413 171.581 96.8472 167.532 118.658 176.069ZM27.159 241.352C23.3973 244.731 23.0444 244.694 23.4558 240.967C23.7059 238.701 25.6787 232.967 27.8373 228.223L31.7638 219.601L31.5406 228.608C31.4001 234.235 29.7558 239.02 27.159 241.352Z" fill="white" fill-opacity="0.1"/>
</svg>
