<svg width="203" height="324" viewBox="0 0 203 324" fill="none" xmlns="http://www.w3.org/2000/svg">
<path fill-rule="evenodd" clip-rule="evenodd" d="M67.908 0.633684C67.873 0.859262 67.4653 5.10102 67.0042 10.0618C66.5443 15.0226 65.1074 21.4502 63.8123 24.3438C61.8243 28.7897 61.721 29.7598 63.1492 30.5941C64.8622 31.5966 63.8178 37.2767 60.5252 44.8448C59.8272 46.4496 59.5241 49.2516 59.8537 51.0684C60.8185 56.3937 57.7713 59.311 52.1728 58.4235C47.944 57.7543 47.1548 58.1301 46.6919 61.0424C46.3936 62.912 47.1188 66.2638 48.3031 68.4877C50.1502 71.9591 50.7524 72.2361 52.541 70.4345C53.791 69.1766 54.5899 69.037 54.5352 70.0839C54.485 71.0436 53.8709 72.2591 53.1707 72.7828C52.4704 73.3065 51.8054 75.4963 51.6929 77.6492C51.5804 79.802 50.9154 81.992 50.2151 82.5157C49.5149 83.0394 48.8306 85.599 48.6944 88.2038C48.5583 90.8086 47.9351 93.3236 47.3086 93.7919C46.6822 94.2601 45.7544 97.4069 45.2475 100.785C44.4029 106.411 41.3784 116.997 37.7045 127.179C36.9019 129.403 36.3006 132.458 36.3674 133.966C36.4341 135.476 35.8885 137.159 35.1551 137.707C34.4217 138.257 33.7259 140.522 33.61 142.74C33.4941 144.959 32.805 148.031 32.0787 149.566C30.6564 152.577 27.6753 165.561 26.5537 173.634C26.1719 176.374 24.8735 181.296 23.666 184.573C22.35 188.146 21.6253 192.815 21.8576 196.235C22.2853 202.542 18.3516 210.882 14.2378 212.393C12.2943 213.107 11.8651 215.256 11.1173 228.044C10.6073 236.75 9.61183 243.79 8.70381 245.106C7.83287 246.367 6.61948 254.369 5.92283 263.438C4.53501 281.544 2.82969 291.793 1.22036 291.709C0.623721 291.678 0.0777391 292.762 0.0068861 294.118C-0.0639669 295.474 0.419782 296.611 1.0823 296.646C1.7436 296.68 2.92848 299.152 3.71319 302.139C5.95867 310.675 12.2968 319.745 17.8136 322.314C25.5329 325.908 26.5836 324.018 27.5919 304.723C28.6207 285.037 31.3099 270.333 34.5562 266.648C39.7249 260.779 41.747 260.548 85.0534 260.873C91.507 260.922 97.3136 260.568 97.9566 260.088C98.6008 259.605 104.072 259.247 110.118 259.288C116.163 259.328 121.959 258.898 122.998 258.329C126.438 256.448 134.808 254.187 136.649 254.643C137.645 254.889 142.768 254.697 148.034 254.216C155.958 253.493 157.944 253.798 159.564 255.992C161.291 258.33 163.966 258.776 171.647 258.004C172.493 257.92 173.242 256.741 173.313 255.386C173.418 253.386 175.42 253.024 183.923 253.468C193.678 253.978 194.665 253.717 198.19 249.687C202.382 244.895 203.506 238.051 200.677 234.536C199.715 233.339 199.23 231.994 199.599 231.547C200.888 229.988 197.767 226.178 195.088 226.038C193.604 225.96 192.024 225.344 191.575 224.669C189.844 222.064 182.376 222.626 180.201 225.525C177.782 228.747 174.049 229.206 172.941 226.416C172.548 225.427 171.456 224.967 170.514 225.393C169.572 225.82 168.514 225.443 168.162 224.558C166.941 221.482 163.699 222.58 164.167 225.911C164.694 229.666 160.634 230.583 142.954 230.699C136.808 230.74 131.228 231.185 130.553 231.691C129.878 232.196 125.012 232.591 119.74 232.571C114.469 232.549 109.324 233.159 108.309 233.926C107.292 234.694 101.491 235.592 95.4181 235.924C89.3448 236.254 80.7658 237.124 76.3539 237.854C71.9419 238.584 64.5756 239.31 59.9843 239.467C55.3932 239.623 48.6432 240.096 44.9838 240.517L38.3311 241.282L39.5273 232.51C40.1856 227.685 41.1597 223.02 41.6926 222.141C42.2254 221.263 42.8724 217.687 43.1318 214.198C43.3901 210.708 44.286 206.861 45.1212 205.65C46.2714 203.985 46.3058 202.835 45.2641 200.927C44.5059 199.539 44.3049 196.666 44.816 194.542C45.4502 191.911 45.059 189.75 43.5888 187.751C41.8467 185.386 41.6279 183.252 42.4582 176.681C43.0239 172.202 42.9709 167.595 42.3412 166.442C41.5416 164.979 42.0187 161.61 43.9168 155.302C45.4148 150.329 46.7803 143.748 46.9542 140.677C47.3026 134.48 49.2919 123.22 54.1353 100.023C55.9139 91.5061 57.479 82.7898 57.6127 80.6545C57.7463 78.5192 59.233 73.9037 60.9161 70.3976C63.5344 64.9415 64.431 64.1711 67.134 65.0539C68.8711 65.6192 70.9147 65.3305 71.6748 64.4112C72.4349 63.4918 73.6775 63.3113 74.4348 64.0133C75.1922 64.7137 81.9273 65.8154 89.4006 66.4613C117.697 68.9074 146.824 74.7058 150.083 78.5411C150.744 79.3171 153.431 81 156.055 82.2791C158.68 83.5583 161.447 85.3409 162.204 86.2373C164.011 88.3784 168.907 87.6242 169.669 85.0883C170.802 81.3211 164.42 74.9745 154.576 70.0733C143.445 64.5332 141.777 64.1691 113.122 61.0369C101.747 59.7932 91.8044 58.0146 91.026 57.0824C90.0957 55.9692 88.3259 55.913 85.862 56.9164C83.7519 57.7767 81.8557 57.7963 81.525 56.9616C81.2017 56.1472 77.0831 55.7128 72.3726 55.9972C67.6095 56.2839 63.8547 55.8619 63.9121 55.0443C64.1129 52.1858 68.9777 25.6997 70.8663 17.1849C72.403 10.255 72.5063 7.74079 71.3904 4.44107C70.2598 1.09609 68.1939 -1.16241 67.908 0.633684ZM127.251 153.528C94.7568 156.853 66.2216 157.476 64.1526 154.904C60.4096 150.254 58.0185 158.644 61.673 163.606C64.1338 166.946 77.9306 168.14 94.7656 166.469C125.601 163.407 145.883 163.33 156.534 166.235C163.703 168.19 166.142 168.325 167.602 166.856C170.313 164.127 170.274 157.593 167.534 155.391C164.965 153.326 140.346 152.187 127.251 153.528Z" fill="white" fill-opacity="0.1"/>
</svg>
