<svg width="1076" height="386" viewBox="0 0 1076 386" fill="none" xmlns="http://www.w3.org/2000/svg">
<path fill-rule="evenodd" clip-rule="evenodd" d="M48.7437 92.5766C47.6528 94.9019 45.8575 101.677 44.7565 107.629C41.0575 127.618 38.7102 142.582 38.9742 144.486C39.1183 145.526 38.1968 149.839 36.9262 154.07C35.6555 158.301 34.5311 164.938 34.4289 168.819C34.3266 172.7 33.6288 183.079 32.8772 191.883C31.0967 212.761 30.6424 222.893 30.8133 237.867C30.8903 244.623 30.9657 259.634 30.9792 271.227C30.999 288.185 34.2014 336.1 37.1335 363.284C37.6426 368.015 40.7347 370.863 44.8121 370.355C48.5241 369.892 52.7789 363.034 53.7458 355.961C54.2836 352.02 55.6201 343.926 56.7158 337.974C57.8115 332.022 59.62 321.489 60.7352 314.568C65.5082 284.923 73.1423 257.761 83.3781 234.005C86.994 225.614 89.8413 217.957 89.707 216.987C89.5726 216.018 90.4666 214.135 91.6914 212.802C92.918 211.468 95.6715 205.979 97.8126 200.601C99.9521 195.225 104.77 185.206 108.521 178.336C112.271 171.466 118.812 159.318 123.056 151.341C127.301 143.363 132.616 133.654 134.869 129.763L138.964 122.69L138.929 128.847C138.909 132.233 138.284 139.438 137.539 144.858C136.796 150.278 135.732 160.707 135.175 168.034C134.618 175.362 142.297 278.31 139.701 291.636C135.528 313.065 135.247 317.211 137.276 327.507C139.919 340.924 145.404 348.12 152.261 347.169C155.549 346.714 156.21 345.789 155.443 342.718C154.91 340.584 152.495 336.829 150.076 334.371C144.361 328.566 143.456 315.697 147.609 299.324C150.937 286.206 142.577 186.988 143.398 171.288C144.47 150.796 147.801 121.391 149.938 113.553C152.555 103.951 152.16 100.016 148.337 97.6635C144.239 95.14 142.669 97.2277 128.524 124.015C121.877 136.605 115.971 147.365 115.4 147.927C114.829 148.49 112.267 153.281 109.707 158.573C107.148 163.867 101.565 175.318 97.3021 184.02C73.1281 233.38 61.8515 266.852 52.9395 315.698C47.1553 347.4 45.0357 354.068 43.7314 344.66C41.8621 331.176 39.4091 283.819 39.4626 262.235C39.5811 214.391 40.0264 205.304 44.0706 168.361C44.9851 160.018 45.9831 149.598 46.2904 145.205C47.1126 133.44 48.5347 126.052 52.6346 112.248L56.3082 99.8712L63.4871 99.3189C69.7049 98.8382 70.6669 98.2496 70.6815 94.9099C70.6943 92.1065 69.1687 90.5183 65.0993 89.0928C57.1036 86.2924 51.0922 87.5723 48.7437 92.5766Z" fill="white" fill-opacity="0.7"/>
<path fill-rule="evenodd" clip-rule="evenodd" d="M713.333 15.0561C710.301 26.4756 708.573 37.8098 707.988 50.1309C707.855 52.9038 706.854 61.4571 705.761 69.1385C703.919 82.0788 703.015 89.949 698.204 135.019C697.238 144.072 695.997 161.12 695.447 172.903L694.449 194.328L675.291 197.212C670.068 197.81 661.075 186.171 659.207 185.157C657.339 184.145 662.928 182.474 658.662 182.687C654.394 182.897 652.534 181.979 651.504 180.702C650.475 179.427 647.179 177.428 644.181 176.264C641.182 175.099 635.221 171.563 630.931 168.408L623.135 162.671L622.557 145.081C621.515 113.38 623.207 76.0861 626.165 65.6191C627.104 62.2908 627.698 58.4186 627.485 57.0148C627.271 55.6091 628.81 53.6374 630.904 52.6303C635.505 50.4219 634.422 38.6428 629.302 35.1959C621.012 29.6115 611.377 42.4741 613.252 56.6244C613.695 59.9693 613.258 63.4788 612.28 64.4236C611.302 65.3684 611.062 69.7114 611.748 74.0743C612.433 78.4394 612.469 90.0616 611.83 99.9007C611.189 109.742 610.789 121.93 610.942 126.985C611.953 160.392 611.834 161.536 606.946 165.135C603.022 168.027 602.75 170.261 604.236 187.333C605.145 197.774 606.434 216.097 607.102 228.053C608.488 252.899 610.152 301.874 611.495 307.047C612.567 311.173 620.659 311.131 623.354 306.983C625.384 303.861 626.076 293.556 625.947 268.383C625.901 259.452 626.178 245.3 626.565 236.933C626.949 228.567 624.411 216.567 624.092 210.269C623.772 203.971 624.027 197.959 624.661 196.909C625.994 194.694 640.366 199.707 647.454 204.86C653.117 208.975 670.209 226.448 679.672 225.352L694.938 223.172L695.985 250.803C695.909 269.522 694.739 267.331 694.4 287.506C690.321 291.925 692.253 301.46 693.634 308.027C696.075 319.636 694.147 329.859 706.854 318.553C706.996 310.132 711.044 292.524 707.304 291.802C703.565 291.08 706.322 271.553 706.122 257.315C705.842 237.316 706.904 218.735 711.915 217.28C724.007 213.767 730.691 209.624 732.531 204.497C734.376 199.357 734.668 179.409 733.688 126.009C733.511 116.354 733.533 103.92 733.737 98.3793C734.588 75.286 746.266 84.4963 747.384 61.9968C748.724 35.0343 730.57 3.68377 721.863 3.09803C717.307 2.79056 716.166 4.39033 713.333 15.0561ZM720.884 72.2116C720.201 80.2934 719.872 97.0603 720.155 109.47C720.509 124.939 719.77 133.485 717.807 136.65C715.724 140.007 715.648 141.211 717.53 141.066C719.449 140.918 720.005 143.957 719.683 152.83C718.385 188.568 717.681 191.284 709.553 191.91C704.717 192.282 704.578 191.893 704.952 179.078C705.844 148.46 706.21 144.449 708.137 144.3C709.251 144.215 709.476 141.746 708.637 138.812C707.022 133.165 709.281 111.282 711.746 108.706C712.547 107.868 712.882 104.452 712.488 101.114C712.096 97.7767 712.586 91.8018 713.578 87.8377C714.571 83.8735 715.186 77.8363 714.947 74.4215C714.435 67.1023 719.634 50.3952 721.114 54.6136C721.672 56.2106 721.57 64.1297 720.884 72.2116Z" fill="white" fill-opacity="0.7"/>
<path fill-rule="evenodd" clip-rule="evenodd" d="M919.857 109.223C917.808 109.405 914.604 110.904 912.736 112.552C909.11 115.754 903.609 126.855 904.553 129.065C904.864 129.797 903.905 132.695 902.419 135.507C899.922 140.235 899.849 140.83 901.44 143.434C904.138 147.849 902.761 152.624 897.118 158.409C892.061 163.593 891.879 164.109 890.611 176.804C889.894 183.987 888.973 191.882 888.567 194.347C887.717 199.505 882.395 208.168 881.443 205.942C881.094 205.12 880.181 209.531 879.417 215.742C878.326 224.611 877.371 227.748 874.968 230.357C872.397 233.146 871.494 236.505 869.31 251.397C867.866 261.247 865.854 270.45 864.781 272.12C863.657 273.868 861.943 282.038 860.68 291.667C859.486 300.765 857.88 309.433 857.11 310.926C856.213 312.668 856.411 315.432 857.661 318.628C858.734 321.37 860.054 327.84 860.595 333.004C861.134 338.167 862.076 342.455 862.689 342.531C863.3 342.606 863.636 344 863.436 345.628C862.832 350.537 866.083 354.804 873.132 358.352C876.807 360.202 881.899 362.975 884.448 364.512C887.165 366.151 891.386 366.868 894.648 366.245C897.709 365.66 901.655 365.859 903.418 366.689C905.179 367.521 908.54 366.951 910.885 365.42C917.319 361.228 923.167 357.998 924.602 357.845C927.903 357.493 934.071 354.899 936.618 352.794C941.499 348.758 953.307 344.584 955.463 346.131C956.718 347.032 959.209 345.687 961.804 342.709C964.154 340.012 966.726 337.884 967.52 337.981C968.313 338.079 971.523 336.511 974.653 334.497C981.473 330.108 982.313 330.114 983.81 334.533C984.446 336.411 986.337 338.116 988.013 338.322C989.689 338.528 991.971 339.771 993.083 341.081C994.196 342.391 998.173 344.488 1001.92 345.741C1008.73 348.011 1008.74 348.006 1009.46 342.167C1010.08 337.083 1009.29 335.452 1003.38 329.685C998.295 324.723 996.892 322.261 997.81 319.916C998.485 318.189 999.771 311.961 1000.67 306.073C1001.56 300.186 1003.72 291.128 1005.47 285.944C1007.21 280.761 1008.86 274.735 1009.14 272.556C1009.42 270.376 1010.76 266.125 1012.13 263.109C1013.49 260.092 1016.6 251.982 1019.05 245.086C1021.49 238.189 1024.44 230.727 1025.61 228.504C1026.78 226.284 1027.9 223.135 1028.1 221.509C1028.3 219.882 1029.62 215.599 1031.02 211.993C1032.43 208.386 1034.64 202.446 1035.93 198.793C1037.22 195.141 1039.55 190.613 1041.11 188.733C1042.67 186.853 1044.07 184.348 1044.21 183.165C1044.73 179.014 1052.63 167.431 1054.78 167.694C1055.97 167.841 1058.92 170.183 1061.34 172.897C1065.99 178.114 1068.88 178.167 1069.51 173.043C1069.92 169.76 1057.07 150.528 1054.24 150.18C1051.84 149.884 1046.5 156.977 1044.9 162.589C1040.54 177.925 1038.39 184.531 1036.98 186.904C1034.11 191.715 1018.27 229.372 1017.93 232.189C1017.74 233.701 1015.42 239.152 1012.77 244.303C1008.11 253.365 1004.89 262.491 998.936 283.562C997.373 289.097 995.654 293.993 995.117 294.44C994.125 295.264 980.348 283.709 978.437 280.446C977.862 279.466 976.076 277.772 974.469 276.687C972.862 275.601 970.752 273.115 969.78 271.163C968.809 269.21 964.316 266.369 959.796 264.849C955.276 263.326 947.396 260.191 942.283 257.878C937.17 255.565 932.942 254.051 932.885 254.51C932.829 254.968 931.894 254.297 930.807 253.016C929.72 251.735 924.243 249.552 918.636 248.164C913.028 246.778 907.266 244.955 905.832 244.113C902.499 242.159 897.8 248.643 897.519 255.581C897.282 261.449 907.434 273.669 912.882 274.068C914.684 274.201 916.764 275.137 917.504 276.149C918.244 277.162 927.503 278.991 938.078 280.218C955.852 282.276 957.78 282.906 963.554 288.543C966.989 291.897 970.432 294.72 971.205 294.815C971.978 294.91 974.153 297.631 976.038 300.862C977.923 304.093 980.625 306.879 982.042 307.053C986.942 307.656 983.888 312.752 976.147 316.89C963.3 323.759 946.298 331.008 943.767 330.697C942.46 330.536 939.854 331.332 937.976 332.466C935.256 334.107 933.776 333.705 930.698 330.487C928.574 328.265 925.194 326.564 923.187 326.708C919.584 326.966 918.707 327.301 909.426 331.989C901.928 335.778 887.633 334.717 883.788 330.087C877.659 322.707 876.749 318.667 877.921 304.054L879.024 290.304L883.201 290.128C886.357 289.995 887.611 288.828 888.334 285.351C888.963 282.327 888.533 280.204 887.082 279.162C883.517 276.601 882.47 267.557 885.008 261.223C886.177 258.303 887.3 254.57 887.502 252.931C887.704 251.291 888.858 247.307 890.067 244.079C892.708 237.03 893.024 235.979 893.736 231.848C894.04 230.086 895.411 228.783 896.782 228.952C898.154 229.121 899.418 228.114 899.59 226.711C899.763 225.31 901.453 222 903.344 219.356L906.785 214.545L904.522 210.391C902.382 206.459 902.404 205.973 904.927 201.357C906.394 198.671 908.183 195.936 908.901 195.274C909.619 194.612 910.091 192.11 909.946 189.713C909.792 187.131 910.534 184.413 911.766 183.045C912.91 181.772 914.642 177.344 915.615 173.204C916.589 169.062 918.995 162.032 920.963 157.581C925.152 148.105 927.619 147.7 933.886 155.466C938.897 161.674 942.33 160.275 944.073 151.319C944.936 146.882 944.181 144.388 940.028 137.955C937.219 133.606 933.862 129.378 932.565 128.557C930.898 127.504 930.425 125.214 930.948 120.725C931.541 115.64 931.095 114.159 928.702 113.26C927.058 112.643 925.235 111.409 924.649 110.515C924.062 109.623 921.905 109.041 919.857 109.223Z" fill="white" fill-opacity="0.7"/>
<path fill-rule="evenodd" clip-rule="evenodd" d="M260.034 55.4118C242.033 60.0215 225.26 72.2687 212.269 90.291C195.707 113.27 179.581 154.929 176.597 182.454C174.979 197.366 175.862 230.298 178.154 240.548C183.49 264.408 185.976 281.407 185.196 288.708C184.234 297.702 185.159 302.104 188.007 302.093C190.666 302.083 191.582 309.679 192.217 337.026C192.725 358.938 192.935 360.355 195.73 360.863C201.009 361.82 203.296 354.894 203.234 338.124C203.197 328.243 204.161 318.877 206.024 310.993L208.871 298.952L229.473 297.632C262.26 295.531 308.982 290.141 311.543 288.166C311.966 287.84 316.846 287.354 322.387 287.084C332.621 286.59 338.842 284.787 350.512 278.932C358.753 274.797 370.702 264.197 370.69 261.028C370.685 259.698 371.954 257.496 373.511 256.136C377.551 252.601 380.174 230.529 377.664 221.189C373.528 205.806 367.763 198.142 351.822 186.836C335.271 175.099 318.632 170.547 282.862 167.974C275.702 167.459 269.634 166.786 269.376 166.48C269.119 166.173 270.461 162.817 272.357 159.019C274.253 155.223 279.834 141.618 284.759 128.785C289.685 115.952 294.307 104.051 295.03 102.336C295.754 100.622 296.343 98.4729 296.34 97.5624C296.337 96.652 298.916 90.2047 302.071 83.2338C305.227 76.2647 307.804 69.3282 307.799 67.8191C307.754 55.8471 283.222 49.4746 260.034 55.4118ZM289.372 70.7599C293.313 71.9713 294.805 73.3835 294.814 75.9087C294.836 81.746 278.796 130.416 276.188 132.43C275.419 133.022 273.251 137.726 271.37 142.882C267.507 153.47 258.167 165.009 252.165 166.608C249.96 167.197 246.671 168.059 244.855 168.524C241.36 169.419 238.786 175.535 238.813 182.872C238.826 186.501 239.397 187.112 242.079 186.369C258.771 181.739 284.509 180.252 297.141 183.186C301.252 184.14 309.813 185.847 316.166 186.982C328.411 189.164 335.867 192.499 349.431 201.86C362.776 211.07 370.874 228.319 368.441 242.35C367.191 249.562 358.8 259.497 349.439 264.849C337.601 271.619 335.694 271.807 327.884 266.98C312.08 257.215 312.844 257.438 310.2 261.801C307.893 265.604 297.704 270.384 289.345 271.585C287.133 271.903 285.362 272.969 285.406 273.954C285.518 276.456 296.187 276.214 305.665 273.496C315.229 270.753 323.006 270.48 323.015 272.886C323.023 275.155 320.119 275.941 299.315 279.301C283.951 281.783 281.848 281.791 279.679 279.377C276.543 275.883 273.301 275.881 274.397 279.372C275.341 282.381 271.718 283.179 270.261 280.283C268.978 277.732 265.132 278.103 260.309 281.246C257.508 283.072 255.584 283.382 254.421 282.195C253.472 281.225 251.443 280.732 249.913 281.098C248.383 281.464 238.766 282.39 228.542 283.154C210.793 284.481 209.988 284.391 210.695 281.176C211.102 279.325 212.096 272.567 212.903 266.156C213.711 259.746 215.333 247.239 216.508 238.363C217.683 229.487 218.587 213.153 218.517 202.067C218.448 190.978 218.698 181.283 219.076 180.522C219.452 179.76 220.137 170.684 220.598 160.352C221.059 150.018 221.704 139.923 222.03 137.918C222.357 135.913 223.237 127.321 223.983 118.827C225.85 97.6017 231.874 83.3581 241.252 77.9916C256.755 69.1202 275.091 66.366 289.372 70.7599ZM219.971 102.531C215.36 117.246 208.538 183.876 208.591 213.661C208.607 222.73 208.034 234.023 207.317 238.757C206.6 243.49 205.239 254.895 204.291 264.102C202.676 279.781 199.795 288.246 197.279 284.699C196.066 282.99 190.895 259.237 188.382 243.844C187.418 237.933 186.039 230.76 185.319 227.906C183.178 219.413 183.645 183.439 186.073 170.033C189.81 149.389 202.433 119.786 214.461 103.468C220.635 95.0885 222.396 94.7898 219.971 102.531Z" fill="white" fill-opacity="0.7"/>
<path fill-rule="evenodd" clip-rule="evenodd" d="M912.665 42.0613C891.939 39.4693 878.611 39.1603 861.59 40.8835C855.358 41.5131 847.756 42.031 844.697 42.0321C831.826 42.0381 799.274 46.592 784.254 50.4891C777.953 52.1232 770.303 53.6047 767.257 53.7801C759.439 54.2304 753.401 61.5247 756.564 66.7003C758.478 69.8303 796.869 75.6212 798.061 72.9597C799.467 69.8208 797.503 68.4906 788.153 66.2561C772.615 62.5411 775.412 61.0927 804.107 57.9887C809.654 57.3884 817.218 56.4594 820.917 55.923C825.039 55.3248 830.496 55.8458 835.017 57.2692L842.392 59.5912L837.528 70.3422C834.853 76.2557 832.355 82.7994 831.977 84.8854C831.598 86.9714 830.721 89.0002 830.028 89.3939C829.334 89.7874 827.388 95.6796 825.704 102.488C824.02 109.296 820.798 120.544 818.545 127.484C816.292 134.425 812.661 146.919 810.477 155.25C808.292 163.581 805.897 172.542 805.153 175.163C804.41 177.784 802.568 185.718 801.06 192.794C798.802 203.393 798.635 205.716 800.114 205.984C801.501 206.236 802.292 204.198 803.596 197.012C804.524 191.897 805.617 187.774 806.026 187.849C806.434 187.923 808.285 182.058 810.137 174.815C811.99 167.571 813.493 163.007 813.479 164.668C813.465 166.33 811.551 174.844 809.227 183.589C806.902 192.332 803.921 205.461 802.603 212.765C800.172 226.23 789.795 271.136 787.613 277.627C786.958 279.575 785.625 281.024 784.651 280.847C783.676 280.67 782.681 281.617 782.439 282.951C782.197 284.285 782.645 285.494 783.435 285.637C784.551 285.84 784.472 286.272 783.082 287.578C782.099 288.502 780.743 292.294 780.07 296.007C779.396 299.72 777.571 305.497 776.017 308.846C772.884 315.589 772.076 322.98 774.285 324.687C777.464 327.145 780.385 320.723 787.391 295.864C790.056 286.406 792.912 279.721 791.897 285.316C791.086 289.782 794.06 303.417 797.294 310.065C801.057 317.802 802.753 318.99 804.617 315.192C805.419 313.557 804.67 310.609 802.391 306.439C800.503 302.979 798.268 295.702 797.426 290.266C795.98 280.932 796.135 279.076 800.199 256.944C807.433 217.553 819.297 164.379 829.929 123.704C834.674 105.554 842.896 80.4296 843.436 82.4317C843.949 84.327 858.996 91.5323 869.444 94.8831C873.48 96.1785 879.402 98.4407 882.603 99.9103C890.337 103.462 893.11 103.856 892.956 101.388C892.766 98.3456 881.957 90.9104 874.074 88.4009C864.066 85.2134 865.167 82.5519 876.587 82.3227C881.895 82.2169 892.438 81.6715 900.017 81.1094C909.552 80.4026 919.076 80.9734 930.931 82.9661C944.726 85.2858 948.371 85.4144 949.639 83.6269C951.772 80.6215 951.867 79.6616 950.34 76.5584C948.08 71.9709 939.118 69.3824 901.547 62.4658C877.945 58.1226 864.422 55.0054 863.231 53.635C861.717 51.8955 862.871 51.4218 869.701 50.9809C876.034 50.5701 878.332 50.9637 879.35 52.6318C880.375 54.3076 881.211 54.4126 882.918 53.0787C884.144 52.1204 886.636 51.4117 888.456 51.5031C890.276 51.5929 894.883 51.3417 898.695 50.9409C907.529 50.0136 949.581 57.6382 960.211 62.0943C966.565 64.7591 968.422 65.041 969.514 63.5069C972.087 59.8884 971.96 55.8617 969.205 53.7497C965.687 51.052 936.806 45.0809 912.665 42.0613ZM904.092 72.4333C903.078 72.9458 898.751 73.3766 894.475 73.3906C887.846 73.4119 886.244 72.874 883.602 69.7388L880.502 66.0629L893.219 68.7832C900.212 70.2777 905.106 71.9207 904.092 72.4333ZM867.909 69.0558C872.504 70.8884 876.149 73.0264 876.007 73.809C875.865 74.5901 874.8 75.0917 873.641 74.9265C872.482 74.7596 865.846 74.5525 858.894 74.4668C851.942 74.381 846.302 74.0491 846.36 73.7289C846.418 73.4087 847.748 70.6802 849.316 67.6642C851.963 62.5708 852.43 62.3065 855.86 63.9512C857.892 64.9262 863.314 67.2231 867.909 69.0558ZM796.09 211.99C794.546 215.136 792.917 225.083 793.046 230.575C793.126 233.961 793.438 234.334 794.693 232.544C795.544 231.329 796.866 227.443 797.629 223.907C798.393 220.371 799.465 216.084 800.011 214.381C801.25 210.526 797.83 208.443 796.09 211.99ZM787.885 254.292C786.832 261.219 786.465 266.979 787.068 267.088C787.669 267.197 789.325 261.672 790.745 254.811C792.838 244.699 792.993 242.274 791.562 242.014C790.128 241.754 789.439 244.049 787.885 254.292Z" fill="white" fill-opacity="0.7"/>
<path fill-rule="evenodd" clip-rule="evenodd" d="M454.566 4.05629C454.531 4.28187 454.124 8.52363 453.662 13.4844C453.203 18.4452 451.766 24.8728 450.47 27.7664C448.482 32.2123 448.379 33.1824 449.807 34.0168C451.52 35.0192 450.476 40.6993 447.183 48.2674C446.485 49.8722 446.182 52.6742 446.512 54.491C447.477 59.8163 444.43 62.7336 438.831 61.8462C434.602 61.1769 433.813 61.5527 433.35 64.465C433.052 66.3346 433.777 69.6864 434.961 71.9103C436.808 75.3817 437.411 75.6587 439.199 73.8571C440.449 72.5992 441.248 72.4596 441.193 73.5065C441.143 74.4662 440.529 75.6817 439.829 76.2054C439.129 76.7291 438.464 78.9189 438.351 81.0718C438.239 83.2247 437.574 85.4146 436.873 85.9383C436.173 86.462 435.489 89.0216 435.353 91.6264C435.217 94.2312 434.593 96.7463 433.967 97.2145C433.34 97.6827 432.413 100.83 431.906 104.208C431.061 109.834 428.037 120.42 424.363 130.602C423.56 132.825 422.959 135.88 423.026 137.389C423.092 138.898 422.547 140.582 421.813 141.13C421.08 141.68 420.384 143.944 420.268 146.163C420.152 148.381 419.463 151.453 418.737 152.989C417.315 156 414.334 168.984 413.212 177.056C412.83 179.796 411.532 184.718 410.324 187.996C409.008 191.569 408.283 196.237 408.516 199.657C408.944 205.965 405.01 214.305 400.896 215.815C398.953 216.53 398.523 218.679 397.776 231.467C397.266 240.173 396.27 247.213 395.362 248.528C394.491 249.79 393.278 257.791 392.581 266.861C391.193 284.966 389.488 295.216 387.879 295.132C387.282 295.101 386.736 296.185 386.665 297.54C386.594 298.896 387.078 300.034 387.741 300.068C388.402 300.103 389.587 302.574 390.371 305.562C392.617 314.098 398.955 323.168 404.472 325.737C412.191 329.331 413.242 327.441 414.25 308.146C415.279 288.46 417.968 273.756 421.214 270.071C426.383 264.201 428.405 263.971 471.712 264.296C478.165 264.345 483.972 263.991 484.615 263.51C485.259 263.028 490.731 262.67 496.776 262.71C502.821 262.751 508.617 262.321 509.656 261.752C513.096 259.87 521.466 257.61 523.307 258.066C524.303 258.312 529.426 258.12 534.693 257.639C542.617 256.916 544.602 257.221 546.222 259.415C547.949 261.753 550.625 262.199 558.305 261.427C559.151 261.343 559.901 260.164 559.971 258.808C560.076 256.808 562.078 256.447 570.581 256.891C580.336 257.401 581.323 257.139 584.848 253.11C589.041 248.318 590.164 241.473 587.336 237.959C586.373 236.762 585.888 235.416 586.258 234.969C587.547 233.41 584.425 229.6 581.746 229.46C580.262 229.383 578.682 228.766 578.233 228.092C576.502 225.487 569.034 226.049 566.859 228.948C564.44 232.17 560.707 232.629 559.599 229.839C559.206 228.849 558.115 228.39 557.172 228.815C556.23 229.242 555.172 228.866 554.821 227.981C553.599 224.904 550.357 226.002 550.825 229.334C551.352 233.089 547.292 234.006 529.612 234.122C523.466 234.163 517.886 234.608 517.211 235.113C516.536 235.618 511.671 236.013 506.399 235.993C501.127 235.972 495.982 236.581 494.967 237.349C493.95 238.116 488.15 239.014 482.076 239.346C476.003 239.677 467.424 240.546 463.012 241.277C458.6 242.007 451.234 242.733 446.643 242.89C442.051 243.045 435.301 243.518 431.642 243.94L424.989 244.705L426.185 235.933C426.844 231.108 427.818 226.442 428.351 225.564C428.884 224.685 429.531 221.11 429.79 217.62C430.048 214.13 430.944 210.283 431.779 209.073C432.93 207.408 432.964 206.257 431.922 204.349C431.164 202.962 430.963 200.089 431.474 197.965C432.108 195.333 431.717 193.172 430.247 191.174C428.505 188.809 428.286 186.675 429.116 180.104C429.682 175.625 429.629 171.018 428.999 169.864C428.2 168.402 428.677 165.032 430.575 158.724C432.073 153.752 433.439 147.171 433.612 144.1C433.961 137.902 435.95 126.642 440.793 103.446C442.572 94.9287 444.137 86.2124 444.271 84.0771C444.404 81.9418 445.891 77.3263 447.574 73.8202C450.193 68.3641 451.089 67.5937 453.792 68.4765C455.529 69.0418 457.573 68.7532 458.333 67.8338C459.093 66.9144 460.336 66.7339 461.093 67.4359C461.85 68.1363 468.585 69.238 476.059 69.884C504.355 72.33 533.482 78.1284 536.742 81.9637C537.402 82.7398 540.089 84.4226 542.714 85.7017C545.338 86.9809 548.106 88.7635 548.863 89.6599C550.669 91.801 555.566 91.0468 556.327 88.5109C557.46 84.7437 551.078 78.3971 541.234 73.4959C530.104 67.9558 528.436 67.5917 499.78 64.4595C488.406 63.2158 478.463 61.4372 477.684 60.505C476.754 59.3918 474.984 59.3357 472.52 60.339C470.41 61.1993 468.514 61.2189 468.183 60.3843C467.86 59.5698 463.741 59.1354 459.031 59.4198C454.268 59.7065 450.513 59.2845 450.57 58.4669C450.771 55.6084 455.636 29.1223 457.525 20.6075C459.061 13.6776 459.164 11.1634 458.049 7.86368C456.918 4.5187 454.852 2.2602 454.566 4.05629ZM513.91 156.951C481.415 160.276 452.88 160.899 450.811 158.327C447.068 153.677 444.677 162.067 448.331 167.028C450.792 170.369 464.589 171.563 481.424 169.891C512.259 166.829 532.541 166.752 543.192 169.657C550.361 171.612 552.801 171.748 554.26 170.278C556.972 167.549 556.933 161.015 554.192 158.814C551.623 156.748 527.005 155.61 513.91 156.951Z" fill="white" fill-opacity="0.7"/>
</svg>
