<svg width="243" height="312" viewBox="0 0 243 312" fill="none" xmlns="http://www.w3.org/2000/svg">
<path fill-rule="evenodd" clip-rule="evenodd" d="M199.296 4.43865C193.453 9.92719 184.717 21.8124 184.717 24.2731C184.717 25.2141 185.58 25.9846 186.635 25.9846C187.69 25.9846 188.554 25.3075 188.554 24.4813C188.554 23.6534 192.083 19.9567 196.397 16.2632C202.729 10.8435 204.596 9.9288 206.088 11.5173C208.625 14.2157 213.56 27.0173 215.351 35.5436C217.691 46.683 219.113 66.9486 217.887 71.6847C217.274 74.0486 216.489 80.042 216.142 85.001C215.353 96.3125 213.152 102.571 213.152 107.659C213.152 109.799 213.152 111.511 212.586 113.223C212.087 114.733 210.969 118.234 208.167 121.826C204.631 126.359 202.801 130.771 202.801 130.771C202.801 130.771 198.468 136.522 195.79 138.903C193.112 141.283 193.252 139.798 188.771 145.247C178.269 158.016 174.357 162.106 165.915 169.141C160.849 173.362 156.153 178.08 155.479 179.624C154.159 182.645 150.949 182.28 123.971 176.032C107.153 172.136 105.17 170.901 101.89 162.286C100.295 158.099 98.9993 153.823 99.0121 152.782C99.0236 151.741 100.906 146.577 103.194 141.306C107.895 130.477 110.546 121.636 111.969 112.05C112.504 108.444 113.888 100.698 115.044 94.8371C118.391 77.8633 115.38 57.4994 108.969 53.7551C107.326 52.7961 105.282 49.9846 104.427 47.5059C100.319 35.6108 86.2629 25.3476 75.6972 24.3452C65.1315 23.3428 67.1203 24.7869 60.7667 29.104C41.4258 56.2988 54.1133 55.0403 54.1133 55.0403C54.1133 55.0403 79.3947 32.7595 84.6006 35.9896C90.8261 39.8535 101.222 55.0207 102.292 61.8027C102.67 64.1928 103.471 68.5306 104.075 71.4405C105.226 76.9978 101.791 91.0798 101.791 91.0798C101.059 92.6637 97.2942 102.951 97.2942 102.951C96.3402 105.161 92.1759 114.079 90.8404 114.935C89.004 116.112 81.7386 125.275 79.2115 131.657C72.8339 147.76 52.9387 168.891 41.0876 172.149C25.0649 176.554 12.0717 166.144 12.0717 148.903C12.0717 146.121 12.9593 138.841 14.045 132.722C15.8904 122.327 15.9117 123.569 17.2472 120.573C18.5827 117.577 27.4027 104.648 27.4027 104.648L17.2472 109.714C17.2472 109.714 12.488 114.935 9.51405 120.573C9.00118 121.546 9.14913 121.355 8.41423 122.706C8.06828 123.342 5.66724 128.791 3.65432 136.231C-0.585072 151.901 -1.19637 167.916 2.13759 175.985C9.40915 193.582 26.0842 199.89 40.5685 190.523C47.6981 185.913 56.3354 177.459 66.0112 165.624L71.9951 158.306C71.9951 158.306 72.5007 162.378 72.5869 165.011C72.673 167.644 72.9207 173.064 70.9174 181.275C72.4085 180.266 74.7356 178.692 74.7356 178.692C74.7356 178.692 75.7692 174.427 76.0144 171.431C76.2596 168.435 76.0144 167.322 76.0144 163.747C76.0144 158.875 77.7473 158.069 78.6335 155.45C79.5984 152.599 79.9323 153.455 80.5428 150.785C80.9568 148.974 81.2718 145.847 83.6837 142.383C87.4052 137.04 87.5983 136.96 89.3875 140.026C92.6178 145.559 93.0052 151.867 90.5767 159.395C89.3196 163.288 86.3908 166.154 85.6698 167.95C84.2728 171.431 84.9792 171.431 83.0481 176.804C80.0982 185.013 76.3568 194.811 73.6318 214C69.0855 246.016 66.0112 232.76 66.0112 232.76L61.8267 248.702C62.5492 262.745 65.4041 271.88 64.5244 274.695C64.0704 276.153 64.5827 284.119 63.5991 291.105C61.9384 302.888 62.6238 302.878 64.8272 307.337C68.9191 315.62 73.5438 312.075 72.7274 301.283C72.4585 297.729 73.2959 285.421 74.5892 273.934C76.6061 256.009 72.073 262.648 76.2219 232.76C78.8818 213.601 84.9869 196.488 84.9792 195.5C84.9728 194.511 85.8923 191.322 87.0241 188.414L89.0818 183.126L91.8198 186.365C96.3738 191.754 109.331 197.616 119.136 198.726C128.316 199.764 132.101 194.785 132.101 194.785C132.101 194.785 125.06 192.249 121.533 191.865C117.969 191.477 116.535 190.416 115.679 187.529C115.055 185.426 113.789 183.36 112.865 182.939C111.94 182.516 111.611 181.583 112.134 180.864C113.283 179.286 125.634 182.654 132.101 186.308C136.201 188.626 136.415 189.014 133.883 189.544C132.301 189.877 132.101 194.785 132.101 194.785C132.101 194.785 144.342 193.802 146.599 193.244C148.268 192.831 150.552 193.591 156.615 193.244C162.483 192.906 165.915 192.831 165.915 192.831C165.915 192.831 171.64 192.831 175.313 189.407C178.985 185.983 179.506 183.454 184.078 177.564C188.65 171.673 191.963 165.78 192.432 164.862C193.669 162.443 195.975 155.661 197.015 153.883C198.017 152.171 199.815 146.776 200.688 145.247C203.579 140.187 203.484 140.46 204.694 138.903C205.625 137.705 207.032 134.195 208.109 132.536C209.239 130.794 214.729 121.79 214.729 121.79C214.729 121.79 218.406 116.105 218.896 115.734C219.385 115.363 220.984 113.144 223.726 111.511C227.056 109.529 230.337 104.855 233.852 99.0988C237.367 93.3425 241.336 64.7748 241.913 47.2961C242.226 37.8288 242.423 39.1787 242.959 29.4698C243.494 19.7609 238.648 17.7877 238.648 17.7877C238.648 17.7877 235.704 15.8141 234.085 13.4026C231.605 9.70585 229.854 8.8993 222.956 8.27143C216.54 7.68618 214.11 6.68452 211.719 3.64025C207.749 -1.41221 205.363 -1.25972 199.296 4.43865ZM227.666 17.3403C228.881 18.896 231.251 24.1616 232.935 29.0419C235.472 36.3993 235.96 40.3207 235.784 52.0305C235.481 72.4175 230.751 88.87 220.845 103.993C216.512 110.606 215.757 109.472 218.021 99.7437C223.42 76.5338 223.336 36.4698 217.851 18.1977C216.836 14.8157 217.107 14.5091 221.101 14.5091C223.523 14.5091 226.438 15.7665 227.666 17.3403ZM170.65 41.4698C165.882 48.6715 163.5 51.6485 149.597 67.7879C133.008 87.047 124.06 99.1732 118.016 110.588C112.212 121.549 111.697 125.985 116.228 125.985C118.788 125.985 120.182 123.973 123.905 114.919C126.408 108.834 131.187 100.149 134.526 95.6208C141.468 86.2076 166.176 56.9502 168.797 55.0403C169.757 54.3403 170.24 52.7568 169.871 51.5207C169.501 50.2863 170.436 48.165 171.948 46.8076C173.741 45.1978 174.549 42.9994 174.271 40.4896C173.847 36.642 173.846 36.6436 170.65 41.4698ZM54.1133 55.0403C54.1133 55.0403 41.4258 56.2988 60.7667 29.104C61.0203 29.1677 20.0572 108.072 17.2472 109.714L27.4027 104.648C27.4027 104.648 29.406 99.9397 33.4126 90.5237C37.4192 81.1077 54.1133 55.0403 54.1133 55.0403ZM107.502 107.785C104.313 123.998 100.095 138.065 97.9033 139.801C97.278 140.298 96.0873 139.655 95.2586 138.375C92.3633 133.901 93.4809 126.963 98.8432 116.149C101.747 110.288 103.71 104.703 103.972 103.807C104.973 100.383 109.664 87.4601 110.192 89.4405C110.483 90.5306 109.272 98.7847 107.502 107.785ZM190.954 154.462C190.111 156.832 189.112 157.735 188.54 158.772C188.259 159.28 185.909 162.377 183.772 166.782C180.489 173.552 178.745 175.341 172.5 178.336C168.436 180.285 163.911 181.66 162.446 181.391C160.201 180.98 160.589 180.259 164.895 176.831C167.708 174.591 170.536 172.46 171.178 172.096C172.579 171.303 178.054 165.342 185.937 156.026C189.123 152.262 191.899 149.4 192.108 149.667C192.316 149.932 191.797 152.091 190.954 154.462ZM100.285 168.79C100.3 169.342 98.8408 169.432 97.0414 168.991C94.8341 168.45 94.0016 167.414 94.4837 165.806C94.8763 164.495 95.21 162.56 95.2253 161.506C95.2534 159.639 100.228 166.801 100.285 168.79ZM108.108 181.834C110.151 183.7 111.822 186.003 111.822 186.954C111.822 188.123 111.306 188.149 110.224 187.031C109.345 186.123 106.795 184.878 104.557 184.265C102.32 183.652 99.8037 182.091 98.9661 180.798C96.4966 176.985 103.689 177.8 108.108 181.834ZM60.7667 228.904C61.6032 239.701 61.8267 248.702 61.8267 248.702L66.0112 232.76L74.7356 178.692C74.7356 178.692 72.4085 180.266 70.9174 181.275C70.4079 186.365 59.9301 218.106 60.7667 228.904Z" fill="white" fill-opacity="0.19"/>
<path d="M121.533 191.865C125.06 192.249 132.101 194.785 132.101 194.785C132.101 194.785 132.301 189.877 133.883 189.544C136.415 189.014 136.201 188.626 132.101 186.308C125.634 182.654 113.283 179.286 112.134 180.864C111.611 181.583 111.94 182.516 112.865 182.939C113.789 183.36 115.055 185.426 115.679 187.529C116.535 190.416 117.969 191.477 121.533 191.865Z" fill="white" fill-opacity="0.19"/>
<path d="M108.108 181.834C110.151 183.7 111.822 186.003 111.822 186.954C111.822 188.123 111.306 188.149 110.224 187.031C109.345 186.123 106.795 184.878 104.557 184.265C102.32 183.652 99.8037 182.091 98.9661 180.798C96.4966 176.985 103.689 177.8 108.108 181.834Z" fill="white" fill-opacity="0.19"/>
<path d="M100.285 168.79C100.3 169.342 98.8408 169.432 97.0414 168.991C94.8341 168.45 94.0016 167.414 94.4837 165.806C94.8763 164.495 95.21 162.56 95.2253 161.506C95.2534 159.639 100.228 166.801 100.285 168.79Z" fill="white" fill-opacity="0.19"/>
</svg>
