<svg width="973" height="371" viewBox="0 0 973 371" fill="none" xmlns="http://www.w3.org/2000/svg">
<path fill-rule="evenodd" clip-rule="evenodd" d="M199.296 56.4387C193.453 61.9272 184.717 73.8124 184.717 76.2731C184.717 77.2141 185.58 77.9846 186.635 77.9846C187.69 77.9846 188.554 77.3075 188.554 76.4813C188.554 75.6534 192.083 71.9567 196.397 68.2632C202.729 62.8435 204.596 61.9288 206.088 63.5173C208.625 66.2157 213.56 79.0173 215.351 87.5436C217.691 98.683 219.113 118.949 217.887 123.685C217.274 126.049 216.489 132.042 216.142 137.001C215.353 148.313 213.152 154.571 213.152 159.659C213.152 161.799 213.152 163.511 212.586 165.223C212.087 166.733 210.969 170.234 208.167 173.826C204.631 178.359 202.801 182.771 202.801 182.771C202.801 182.771 198.468 188.522 195.79 190.903C193.112 193.283 193.252 191.798 188.771 197.247C178.269 210.016 174.357 214.106 165.915 221.141C160.849 225.362 156.153 230.08 155.479 231.624C154.159 234.645 150.949 234.28 123.971 228.032C107.153 224.136 105.17 222.901 101.89 214.286C100.295 210.1 98.9993 205.823 99.0121 204.782C99.0236 203.741 100.906 198.577 103.194 193.306C107.895 182.477 110.546 173.636 111.969 164.05C112.504 160.444 113.888 152.698 115.044 146.837C118.391 129.863 115.38 109.499 108.969 105.755C107.326 104.796 105.282 101.985 104.427 99.5059C100.319 87.6108 86.2629 77.3476 75.6972 76.3452C65.1315 75.3428 67.1203 76.7869 60.7667 81.104C41.4258 108.299 54.1133 107.04 54.1133 107.04C54.1133 107.04 79.3947 84.7595 84.6006 87.9896C90.8261 91.8535 101.222 107.021 102.292 113.803C102.67 116.193 103.471 120.531 104.075 123.44C105.226 128.998 101.791 143.08 101.791 143.08C101.059 144.664 97.2942 154.951 97.2942 154.951C96.3402 157.161 92.1759 166.079 90.8404 166.935C89.004 168.112 81.7386 177.275 79.2115 183.657C72.8339 199.76 52.9387 220.891 41.0876 224.149C25.0649 228.554 12.0717 218.144 12.0717 200.903C12.0717 198.121 12.9593 190.84 14.045 184.722C15.8904 174.327 15.9117 175.569 17.2472 172.573C18.5828 169.577 27.4027 156.648 27.4027 156.648L17.2472 161.714C17.2472 161.714 12.488 166.935 9.51405 172.573C9.00118 173.546 9.14913 173.355 8.41423 174.706C8.06828 175.342 5.66724 180.791 3.65432 188.231C-0.585072 203.901 -1.19637 219.916 2.13759 227.985C9.40915 245.582 26.0842 251.89 40.5685 242.523C47.6981 237.913 56.3354 229.459 66.0112 217.624L71.9951 210.306C71.9951 210.306 72.5007 214.378 72.5869 217.011C72.673 219.644 72.9207 225.064 70.9174 233.275C72.4085 232.266 74.7356 230.692 74.7356 230.692C74.7356 230.692 75.7692 226.427 76.0144 223.431C76.2596 220.435 76.0144 219.322 76.0144 215.747C76.0144 210.875 77.7473 210.069 78.6335 207.45C79.5984 204.599 79.9323 205.455 80.5428 202.785C80.9568 200.974 81.2718 197.847 83.6837 194.383C87.4052 189.04 87.5983 188.96 89.3875 192.026C92.6178 197.559 93.0052 203.867 90.5767 211.395C89.3196 215.288 86.3908 218.154 85.6698 219.95C84.2728 223.431 84.9792 223.431 83.0481 228.804C80.0982 237.013 76.3568 246.811 73.6318 266C69.0855 298.016 66.0112 284.76 66.0112 284.76L61.8267 300.702C62.5492 314.745 65.4041 323.88 64.5244 326.695C64.0704 328.153 64.5827 336.119 63.5991 343.105C61.9384 354.888 62.6238 354.878 64.8272 359.337C68.9191 367.62 73.5438 364.075 72.7274 353.283C72.4585 349.729 73.2959 337.421 74.5892 325.934C76.6061 308.009 72.073 314.648 76.2219 284.76C78.8818 265.601 84.9869 248.488 84.9792 247.5C84.9728 246.511 85.8923 243.322 87.0241 240.414L89.0818 235.126L91.8198 238.365C96.3738 243.754 109.331 249.616 119.136 250.726C128.316 251.764 132.101 246.785 132.101 246.785C132.101 246.785 125.06 244.249 121.533 243.865C117.969 243.477 116.535 242.416 115.679 239.529C115.055 237.426 113.789 235.36 112.865 234.939C111.94 234.516 111.611 233.583 112.134 232.864C113.283 231.286 125.634 234.654 132.101 238.308C136.201 240.626 136.415 241.014 133.883 241.544C132.301 241.877 132.101 246.785 132.101 246.785C132.101 246.785 144.342 245.802 146.599 245.244C148.268 244.831 150.552 245.591 156.615 245.244C162.483 244.906 165.915 244.831 165.915 244.831C165.915 244.831 171.64 244.831 175.313 241.407C178.985 237.983 179.506 235.454 184.078 229.564C188.65 223.673 191.963 217.78 192.432 216.862C193.669 214.443 195.975 207.661 197.015 205.883C198.017 204.171 199.815 198.776 200.688 197.247C203.579 192.187 203.484 192.46 204.694 190.903C205.625 189.705 207.032 186.195 208.109 184.536C209.239 182.794 214.729 173.79 214.729 173.79C214.729 173.79 218.406 168.105 218.896 167.734C219.385 167.363 220.984 165.144 223.726 163.511C227.056 161.529 230.337 156.855 233.852 151.099C237.367 145.342 241.336 116.775 241.913 99.2961C242.226 89.8288 242.423 91.1787 242.959 81.4698C243.494 71.7609 238.648 69.7877 238.648 69.7877C238.648 69.7877 235.704 67.8141 234.085 65.4026C231.605 61.7059 229.854 60.8993 222.956 60.2714C216.54 59.6862 214.11 58.6845 211.719 55.6403C207.749 50.5878 205.363 50.7403 199.296 56.4387ZM227.666 69.3403C228.881 70.896 231.251 76.1616 232.935 81.0419C235.472 88.3993 235.96 92.3207 235.784 104.031C235.481 124.417 230.751 140.87 220.845 155.993C216.512 162.606 215.757 161.472 218.021 151.744C223.42 128.534 223.336 88.4698 217.851 70.1977C216.836 66.8157 217.107 66.5091 221.101 66.5091C223.523 66.5091 226.438 67.7665 227.666 69.3403ZM170.65 93.4698C165.882 100.671 163.5 103.649 149.597 119.788C133.008 139.047 124.06 151.173 118.016 162.588C112.212 173.549 111.697 177.985 116.228 177.985C118.788 177.985 120.182 175.973 123.905 166.919C126.408 160.834 131.187 152.149 134.526 147.621C141.468 138.208 166.176 108.95 168.797 107.04C169.757 106.34 170.24 104.757 169.871 103.521C169.501 102.286 170.436 100.165 171.948 98.8076C173.741 97.1978 174.549 94.9994 174.271 92.4896C173.847 88.642 173.846 88.6436 170.65 93.4698ZM54.1133 107.04C54.1133 107.04 41.4258 108.299 60.7667 81.104C61.0203 81.1677 20.0572 160.072 17.2472 161.714L27.4027 156.648C27.4027 156.648 29.406 151.94 33.4126 142.524C37.4192 133.108 54.1133 107.04 54.1133 107.04ZM107.502 159.785C104.313 175.998 100.095 190.065 97.9033 191.801C97.278 192.298 96.0873 191.655 95.2586 190.375C92.3633 185.901 93.4809 178.963 98.8432 168.149C101.747 162.288 103.71 156.703 103.972 155.807C104.973 152.383 109.664 139.46 110.192 141.44C110.483 142.531 109.272 150.785 107.502 159.785ZM190.954 206.462C190.111 208.832 189.112 209.735 188.54 210.772C188.259 211.28 185.909 214.377 183.772 218.782C180.489 225.552 178.745 227.341 172.5 230.336C168.436 232.285 163.911 233.66 162.446 233.391C160.201 232.98 160.589 232.259 164.895 228.831C167.708 226.591 170.536 224.46 171.178 224.096C172.579 223.303 178.054 217.342 185.937 208.026C189.123 204.262 191.899 201.4 192.108 201.667C192.316 201.932 191.797 204.091 190.954 206.462ZM100.285 220.79C100.3 221.342 98.8408 221.432 97.0414 220.991C94.8341 220.45 94.0016 219.414 94.4837 217.806C94.8763 216.495 95.21 214.56 95.2253 213.506C95.2534 211.639 100.228 218.801 100.285 220.79ZM108.108 233.834C110.151 235.7 111.822 238.003 111.822 238.954C111.822 240.123 111.306 240.149 110.224 239.031C109.345 238.123 106.795 236.878 104.557 236.265C102.32 235.652 99.8037 234.091 98.9661 232.798C96.4966 228.985 103.689 229.8 108.108 233.834ZM60.7667 280.904C61.6032 291.701 61.8267 300.702 61.8267 300.702L66.0112 284.76L74.7356 230.692C74.7356 230.692 72.4085 232.266 70.9174 233.275C70.4079 238.365 59.9301 270.106 60.7667 280.904Z" fill="white" fill-opacity="0.7"/>
<path d="M121.533 243.865C125.06 244.249 132.101 246.785 132.101 246.785C132.101 246.785 132.301 241.877 133.883 241.544C136.415 241.014 136.201 240.626 132.101 238.308C125.634 234.654 113.283 231.286 112.134 232.864C111.611 233.583 111.94 234.516 112.865 234.939C113.789 235.36 115.055 237.426 115.679 239.529C116.535 242.416 117.969 243.477 121.533 243.865Z" fill="white" fill-opacity="0.7"/>
<path d="M108.108 233.834C110.151 235.7 111.822 238.003 111.822 238.954C111.822 240.123 111.306 240.149 110.224 239.031C109.345 238.123 106.795 236.878 104.557 236.265C102.32 235.652 99.8037 234.091 98.9661 232.798C96.4966 228.985 103.689 229.8 108.108 233.834Z" fill="white" fill-opacity="0.7"/>
<path d="M100.285 220.79C100.3 221.342 98.8408 221.432 97.0414 220.991C94.8341 220.45 94.0016 219.414 94.4837 217.806C94.8763 216.495 95.21 214.56 95.2253 213.506C95.2534 211.639 100.228 218.801 100.285 220.79Z" fill="white" fill-opacity="0.7"/>
<path fill-rule="evenodd" clip-rule="evenodd" d="M325.019 49.2229C318.152 50.8381 310.05 53.4767 307.017 55.0854C299.257 59.2003 288.827 73.2444 285.568 83.9649C283.958 89.2651 280.567 94.1632 277.416 95.7373C265.635 101.625 249.475 127.073 249.037 140.426C247.996 172.105 249.094 187.333 254.157 211.477C261.312 245.599 265.797 255.012 283.224 272.486C295.534 284.828 311.458 291.35 329.812 291.565C346.999 291.766 360.713 285.407 380.49 268.063C388.072 261.411 394.805 255.919 395.452 255.854C396.098 255.789 404.828 250.843 414.847 244.86C435.553 232.5 451.573 215.079 446.243 210.723C443.995 208.885 442.107 208.966 439.412 211.014C437.363 212.571 430.812 217.361 424.853 221.662C414.041 229.465 414.027 229.469 417.542 223.368C440.373 183.76 445.227 164.245 444.596 114.654C444.399 99.1911 443.799 97.1807 435.536 84.1905C424.524 66.8842 424.665 66.9955 402.475 58.0892C373.187 46.3337 349.048 43.5704 325.019 49.2229ZM375.452 65.4278C380.047 66.6323 391.368 70.6817 400.61 74.4286C423.933 83.8787 429.789 92.2909 432.266 119.895C435.654 157.671 424.679 191.577 397.457 227.432L386.678 241.63L362.854 244.025C339.522 246.37 338.772 246.28 326.586 239.703C310.921 231.25 297.54 212.966 293.83 194.947C292.425 188.116 290.208 182.006 288.905 181.372C279.905 176.985 284.957 210.305 295.995 228.137C310.172 251.042 324.616 261.078 347.78 264.113L359.555 265.658L349.752 269.53C329.06 277.703 299.456 269.742 285.712 252.313C272.594 235.671 267.703 221.489 262.686 185.516L258.05 152.265L263.649 137.777C266.729 129.81 271.818 120.416 274.961 116.905L280.671 110.521L279.978 119.305C279.467 125.759 280.073 128.002 282.261 127.756C287.795 127.132 290.224 123.528 290.967 114.831C291.948 103.345 295.268 98.1774 304.286 94.094C313.196 90.0635 314.417 81.0607 305.772 83.1614C302.965 83.8431 300.579 83.5229 300.471 82.4508C300.234 80.0925 311.418 71.6594 319.575 68.0484C327.62 64.4858 365.15 62.7263 375.452 65.4278ZM279.299 140.854C278.712 143.012 279.445 145.769 280.928 146.982C284.787 150.136 291.105 146.263 289.711 141.602C288.16 136.408 280.66 135.87 279.299 140.854ZM283.82 160.286C281.99 164.045 285.213 166.026 287.87 162.775C289.356 160.957 289.266 159.667 287.597 158.854C286.229 158.188 284.529 158.832 283.82 160.286Z" fill="white" fill-opacity="0.7"/>
<path fill-rule="evenodd" clip-rule="evenodd" d="M508.79 13.7624C503.596 24.7824 497.797 46.2334 494.343 67.2242C492.804 76.5729 490.989 80.4671 485.514 86.1797C476.368 95.7239 471.513 102.421 468.5 109.645C460.842 128.009 455.935 141.705 456.115 144.201C456.228 145.76 455.133 152.287 453.681 158.705C448.086 183.419 449.12 216.241 456.574 250.712C459.562 264.524 462.786 276.621 463.742 277.593C464.696 278.566 466.454 283.118 467.646 287.71C474.774 315.142 498.452 331.068 517.166 321.018C526.606 315.948 526.935 311.08 520.59 270.47C513.382 224.347 511.813 209.473 513.679 204.951C514.683 202.516 514.484 200.974 513.083 200.29C510.665 199.111 509.274 180.875 511.333 177.367C512.126 176.016 511.821 174.585 510.614 173.996C509.459 173.434 508.313 170.972 508.067 168.526C507.647 164.342 508.029 164.148 514.464 165.247C524.778 167.008 529.248 164.4 527.223 157.801C525.706 152.854 526.007 152.405 531.188 151.884C534.271 151.574 536.707 150.452 536.6 149.389C536.493 148.328 538.648 146.345 541.392 144.984C551.621 139.907 570.486 126.704 570.291 124.757C570.206 123.915 570.947 123.142 571.938 123.042C573.606 122.875 581.604 116.882 591.046 108.724C596.363 104.13 595.333 96.916 588.157 88.5042C582.354 81.6999 562.874 69.6234 552.453 66.367C543.558 63.5873 527.485 64.0871 516.981 67.4672C511.595 69.202 506.716 70.235 506.139 69.7619C503.976 67.9939 509.357 43.8629 514.208 33.5741C519 23.4131 519.641 22.8403 527.31 21.8734C534.626 20.9535 538.504 18.0035 538.154 13.6263C537.913 10.643 524.785 5.97215 518.442 6.61347C513.017 7.16255 511.304 8.43116 508.79 13.7624ZM537.68 81.656C549.094 83.4365 558.745 87.4973 570.559 95.4925L577.793 100.386L571.992 106.377C557.236 121.612 548.854 127.873 530.404 137.444C507.317 149.421 506.828 149.378 504.069 135.099C502.829 128.681 501.741 120.438 501.652 116.782C501.562 113.127 501.202 105.698 500.853 100.273C500.061 88.022 503.461 85.2248 524.984 80.4119C526.049 80.1735 531.763 80.7337 537.68 81.656ZM492.624 122.924C493.372 136.199 498.434 181.089 503.869 222.68C509.306 264.274 513.385 300.054 512.936 302.193C511.127 310.799 493.171 305.759 485.821 294.582C474.298 277.059 468.358 259.361 461.04 220.755C458.07 205.085 460.153 158.515 464.095 152.475C465.022 151.055 466.11 146.924 466.515 143.295C467.659 132.996 485.389 99.3818 489.915 98.9268C490.656 98.8524 491.876 109.65 492.624 122.924Z" fill="white" fill-opacity="0.7"/>
<path fill-rule="evenodd" clip-rule="evenodd" d="M641.761 52.2698C638.089 52.989 634.216 54.9809 633.154 56.6962C631.892 58.733 630.714 59.1508 629.756 57.9012C627.542 55.0117 612.583 57.1552 608.117 61.0039C603.345 65.1149 600.718 78.5328 603.776 83.1832C608.276 90.0266 612.172 102.124 613.403 113.073C615.786 134.288 618.393 185.384 617.215 187.803C616.57 189.126 616.116 193.318 616.204 197.12C616.293 200.921 616.338 208.411 616.306 213.763C616.272 219.115 617.241 237.677 618.454 255.012C620.654 286.4 620.684 286.547 625.815 290.74C628.648 293.056 632.888 294.758 635.235 294.522C637.582 294.286 641.164 295.318 643.195 296.814C649.358 301.361 654.346 297.555 654.814 287.95C655.038 283.365 654.919 278.388 654.55 276.892C653.405 272.248 653.79 266.252 655.077 268.701C656.335 271.096 662.231 271.312 664.094 269.03C665.845 266.89 658.471 259.122 655.018 259.469C651.418 259.831 651.301 258.691 651.121 220.961C650.999 195.035 651.025 193.651 652.052 174.188C652.479 166.122 652.796 157.689 652.76 155.45C652.725 153.211 653.766 149.787 655.078 147.842C656.882 145.163 656.863 143.817 655.007 142.3C651.71 139.605 651.047 131.499 654.099 131.192C655.437 131.058 659.968 136.511 664.166 143.309C676.423 163.159 684.071 173.667 689.598 178.252C692.439 180.608 696.707 184.541 699.083 186.991C710.445 198.707 739.426 212.085 750.94 210.928C755.891 210.43 758.782 219.9 758.636 236.133C758.265 276.934 761.999 304.327 770.922 326.268C773.053 331.51 773.417 334.995 772.28 339.26C770.399 346.303 774.628 356.43 779.182 355.793C780.797 355.569 785.826 353.085 790.357 350.276C796.154 346.683 798.652 343.79 798.786 340.517C798.97 336 798.699 335.932 789.31 338.151C781.331 340.037 779.592 339.92 779.346 337.48C779.183 335.855 778.842 333.892 778.589 333.114C770.823 309.298 765.77 277.833 766.369 257.029C766.463 253.81 766.636 245.916 766.756 239.485C766.876 233.055 767.122 226.466 767.302 224.843C767.481 223.221 767.904 218.802 768.24 215.024C768.605 210.936 771.445 204.975 775.252 200.3L781.651 192.445L778.677 180.506C773.507 159.757 774.308 144.039 781.669 121.836C783.033 117.721 783.983 112.692 783.778 110.658C783.282 105.723 792.364 79.7803 795.384 77.5084C796.697 76.5207 797.618 74.1971 797.432 72.3428C797.246 70.4905 798.029 67.8289 799.172 66.4303C800.315 65.0317 800.593 63.9534 799.792 64.0339C798.991 64.1144 799.491 62.1192 800.903 59.5986C802.314 57.08 803.283 53.151 803.054 50.8692C802.615 46.5021 797.673 42.0158 794.867 43.4356C792.875 44.4449 775.768 69.6656 775.937 71.3447C776.002 71.9955 773.947 76.3974 771.373 81.1276C768.797 85.8581 766.398 91.9458 766.04 94.6561C765.682 97.3665 764.85 103.139 764.19 107.484C763.53 111.83 762.841 123.277 762.657 132.923C762.473 142.569 761.694 159.277 760.925 170.052L759.529 189.642L752.214 190.994C748.191 191.737 743.413 191.882 741.598 191.316C739.781 190.752 736.217 190.225 733.679 190.148C728.518 189.988 717.096 184.243 708.326 177.395C700.865 171.569 682.131 148.836 677.898 140.47C676.095 136.907 673.325 132.741 671.741 131.21C670.16 129.681 668.72 127.2 668.542 125.697C668.366 124.196 666.027 118.094 663.348 112.141C657.647 99.4805 656.44 81.8773 660.429 69.5768C662.654 62.7208 662.566 61.3021 659.662 57.2158C655.817 51.8023 650.975 50.4645 641.761 52.2698Z" fill="white" fill-opacity="0.7"/>
<path fill-rule="evenodd" clip-rule="evenodd" d="M848.337 70.2982C845.926 73.286 847.095 89.324 850.052 93.8435C854.092 100.018 858.115 111.919 856.959 114.289C855.739 116.794 849.791 159.941 849.153 170.918C848.956 174.305 848.098 177.61 847.245 178.262C846.391 178.917 845.946 181.959 846.254 185.025C847.376 196.187 841.804 227.221 838.931 225.822C837.936 225.336 836.883 222.582 836.594 219.698C835.997 213.76 831.327 209.691 827.937 212.153C821.878 216.552 814.82 226.899 815.198 230.831C815.428 233.23 817.545 237.396 819.904 240.091C823.632 244.352 825.04 244.763 830.705 243.249L837.22 241.509L836.84 250.739C836.631 255.815 834.56 265.349 832.241 271.928C829.921 278.506 828.103 284.693 828.202 285.678C828.647 290.108 816.535 305.911 807.233 313.039C788.537 327.361 786.716 332.442 796.589 342.692C801.585 347.878 804.251 347.885 812.995 342.72C821.086 337.945 826.783 330.912 833.592 317.297C841.376 301.734 853.73 259.409 852.9 251.148C852.727 249.428 853.229 247.954 854.015 247.875C857.809 247.494 895.158 272.188 909.14 284.322C939.819 310.95 965.147 330.577 968.418 330.259C974.453 329.673 973.386 324.402 964.245 309.609C959.273 301.562 953.277 289.681 950.923 283.204C948.567 276.727 939.76 260.289 931.351 246.674C922.943 233.06 913.706 216.665 910.822 210.241C907.94 203.817 904.706 196.96 903.636 195.001C895.852 180.761 876.674 133.503 877.206 129.878C877.557 127.484 877.07 125.148 876.122 124.685C873.064 123.196 870.596 109.831 871.623 100.327C874.064 77.774 873.773 75.918 867.205 72.1707C859.487 67.7635 851.056 66.9283 848.337 70.2982ZM877.612 162.876C881.73 172.274 886.855 184.012 889.001 188.961C891.149 193.909 895.314 202.364 898.257 207.748C901.2 213.133 906.525 223.161 910.089 230.033C913.652 236.904 921.394 250.051 927.295 259.247C933.194 268.445 938.176 277.507 938.365 279.385C938.554 281.264 939.764 284.373 941.055 286.293C942.345 288.216 943.325 291.652 943.232 293.934C943.079 297.609 941.892 297.05 932.76 289.011C927.094 284.023 919.223 277.173 915.268 273.791C911.313 270.406 903.292 263.506 897.442 258.456C891.593 253.405 882.208 246.778 876.585 243.729C870.964 240.679 863.626 236.327 860.28 234.057L854.194 229.933L855.729 214.797C857.374 198.583 859.893 180.448 861.827 170.902C862.484 167.664 862.865 163.461 862.674 161.561C862.483 159.661 862.982 155.023 863.781 151.255C864.581 147.486 865.497 143.109 865.819 141.527C866.536 137.992 867.367 139.497 877.612 162.876Z" fill="white" fill-opacity="0.7"/>
</svg>
