<svg width="155" height="286" viewBox="0 0 155 286" fill="none" xmlns="http://www.w3.org/2000/svg">
<path fill-rule="evenodd" clip-rule="evenodd" d="M9.61768 16.1074C9.71569 23.4488 8.81652 27.9613 6.01032 34.2244C-0.851922 49.5385 -1.23644 53.2462 1.84977 74.3236C3.376 84.74 6.08049 97.9884 7.86031 103.763C9.64012 109.537 11.8788 117.772 12.8347 122.064C15.049 132.004 16.174 133.01 16.6543 125.481C16.9339 121.097 16.0275 115.898 13.2487 105.954C11.1656 98.4992 8.72209 86.1939 7.81776 78.6072C6.40026 66.7072 6.54106 63.5256 8.84838 55.4145C11.1147 47.4505 11.5362 46.7936 11.6089 51.1128C11.656 53.9163 15.4872 78.9193 20.1212 106.675C28.2634 155.434 29.6595 169.283 24.6951 152.028C23.3896 147.491 21.7436 143.451 21.0371 143.053C20.3318 142.655 19.417 140.454 19.0051 138.162C18.0145 132.652 15.2883 134.454 15.8093 140.276C16.0237 142.68 17.4688 146.733 19.0187 149.282C20.5686 151.831 22.1773 155.811 22.5934 158.125C23.0097 160.442 23.9725 162.223 24.7331 162.087C25.6872 161.915 25.8434 162.55 25.236 164.127C24.1369 166.981 26.7729 178.149 29.177 180.82C30.4859 182.276 31.4312 187.386 32.7016 199.876C34.5621 218.162 44.612 276.148 46.9479 282.078C48.5768 286.213 51.376 286.368 51.7846 282.347C51.9381 280.837 51.4921 276.423 50.7936 272.537C49.5989 265.89 49.7145 265.486 52.747 265.706C56.5018 265.98 56.5486 264.414 52.8952 260.662C50.5029 258.205 49.9283 255.263 45.9568 225.133C43.4951 206.447 41.7665 188.215 41.9489 182.852C42.1261 177.664 41.9782 170.93 41.6206 167.886C41.2633 164.843 41.3653 154.855 41.8492 145.69C42.3907 135.421 41.8859 118.717 40.535 102.154C37.086 59.9015 37.0692 59.2842 38.5575 29.9591C38.7245 26.662 34.673 23.2371 32.5374 24.8702C31.6838 25.523 31.0441 28.2148 31.1179 30.855C31.1913 33.4937 31.4025 44.4446 31.587 55.1909C31.7727 65.9369 32.5095 81.5262 33.2253 89.8336C34.4331 103.859 35.1973 122.112 35.1734 136.35C35.1678 139.632 35.2137 147.632 35.2752 154.126C35.337 160.622 35.1403 166.409 34.8394 166.986C34.5388 167.565 33.2345 160.175 31.9411 150.565C30.6477 140.956 27.0515 117.444 23.9482 98.3182C17.2492 57.0216 15.6166 40.3134 17.7999 35.3774C20.7613 28.6825 31.0936 20.5758 39.5432 18.3191C51.4105 15.1481 85.7628 17.3002 101.088 22.1738C104.936 23.3977 109.037 24.2268 110.202 24.0174C111.366 23.8082 117.984 24.9194 124.908 26.4868C131.832 28.0542 138.63 29.133 140.016 28.884C141.401 28.6349 144.938 29.5075 147.875 30.8253C154.27 33.6893 155.314 32.8217 154.035 25.7079C152.662 18.0691 147.986 14.6881 137.947 14.076C133.347 13.7951 128.085 13.1902 126.253 12.7338C124.421 12.2757 120.56 11.5024 117.673 11.0141C114.786 10.5259 105.299 8.71851 96.5912 6.9979C87.8835 5.2773 73.161 2.80073 63.8737 1.49447C48.5301 -0.664313 45.8918 -0.582044 34.9825 2.38269C24.5077 5.23014 22.5256 6.30902 19.4485 10.8382C17.1267 14.2533 15.8609 15.2035 15.7459 13.6153C15.3366 7.90464 14.1253 5.49771 11.8658 5.90384C9.97613 6.24351 9.51515 8.33739 9.61768 16.1074Z" fill="white" fill-opacity="0.1"/>
</svg>
