<svg width="174" height="323" viewBox="0 0 174 323" fill="none" xmlns="http://www.w3.org/2000/svg">
<path fill-rule="evenodd" clip-rule="evenodd" d="M56.7527 4.42484C55.1207 6.918 51.9629 14.4015 49.7386 21.0526C42.2669 43.3863 37.1606 60.1732 37.1606 62.3983C37.1606 63.6136 35.406 68.4125 33.2614 73.0623C31.1167 77.712 28.7555 85.1452 28.0161 89.5793C27.2767 94.0133 24.8093 105.804 22.5319 115.781C17.1334 139.438 14.9867 150.985 12.7868 168.183C11.7942 175.943 9.47788 193.169 7.63754 206.466C4.94546 225.915 0.972717 281.369 0.00659095 313.008C-0.162941 318.515 2.95195 322.271 7.74173 322.338C12.1026 322.396 18.1138 315.209 20.3626 307.252C21.6147 302.818 24.4539 293.748 26.6721 287.097C28.8903 280.446 32.6649 268.656 35.0608 260.896C45.3185 227.661 58.4828 197.726 74.1063 172.111C79.6253 163.064 84.1392 154.736 84.1392 153.603C84.1392 152.471 85.473 150.453 87.1009 149.119C88.7309 147.785 92.7894 141.928 96.1229 136.101C99.4543 130.276 106.622 119.554 112.053 112.272C117.484 104.99 126.982 92.0987 133.16 83.6255C139.339 75.1524 147.031 64.8633 150.257 60.7597L156.117 53.3004L155.091 60.3546C154.525 64.2344 152.65 72.3972 150.922 78.494C149.196 84.5909 146.298 96.3815 144.482 104.695C142.667 113.009 136.984 110.533 131.853 146.845C123.603 205.24 122.615 216.743 123.309 246.367C124.214 284.968 129.396 307.252 137.466 307.252C141.337 307.252 142.248 304.919 141.853 296.019C141.58 289.837 139.392 278.383 136.992 270.561C131.322 252.082 132.337 215.69 139.754 171.448C145.698 136.001 149.995 127.608 153.457 109.734C157.975 86.4048 166.529 53.2158 170.253 44.5673C174.812 33.9719 174.986 29.3968 170.948 26.0913C166.619 22.5461 164.473 24.6905 143.849 53.1593C134.157 66.5402 125.615 77.9398 124.866 78.494C124.116 79.0483 120.39 84.1353 116.587 89.7969C112.784 95.4604 104.503 107.705 98.1879 117.006C62.3697 169.765 43.9889 206.357 25.8776 260.952C14.1227 296.387 10.6074 303.697 10.6074 292.7C10.6074 276.941 15.3564 222.245 18.8736 197.503C26.6701 142.657 28.6391 132.308 39.2236 90.587C41.6154 81.1645 44.4361 69.374 45.4942 64.3856C48.3272 51.025 51.1521 42.7796 58.0968 27.6009L64.3204 13.9924L72.6989 14.5003C79.956 14.9377 81.1612 14.4156 81.7127 10.5882C82.1764 7.37546 80.6689 5.31165 76.1978 3.03011C67.4128 -1.45234 60.2659 -0.940397 56.7527 4.42484Z" fill="white" fill-opacity="0.1"/>
</svg>
