<svg width="125" height="283" viewBox="0 0 125 283" fill="none" xmlns="http://www.w3.org/2000/svg">
<path fill-rule="evenodd" clip-rule="evenodd" d="M17.9644 4.93994C16.8735 7.26531 15.0782 14.0401 13.9772 19.9928C10.2782 39.9815 7.93094 54.9458 8.19487 56.8496C8.33903 57.8895 7.41754 62.2021 6.1469 66.433C4.87625 70.6639 3.75184 77.3018 3.64958 81.1827C3.54731 85.0636 2.84951 95.4423 2.09792 104.247C0.317432 125.124 -0.136902 135.256 0.0340436 150.23C0.111053 156.986 0.186405 171.998 0.199942 183.591C0.219695 200.549 3.4221 248.463 6.35417 275.647C6.86327 280.378 9.95538 283.226 14.0328 282.719C17.7448 282.255 21.9996 275.398 22.9665 268.325C23.5043 264.383 24.8408 256.289 25.9365 250.337C27.0322 244.385 28.8407 233.852 29.9559 226.931C34.7289 197.287 42.363 170.124 52.5988 146.368C56.2147 137.977 59.062 130.32 58.9277 129.351C58.7933 128.382 59.6873 126.498 60.9121 125.165C62.1387 123.832 64.8922 118.342 67.0333 112.964C69.1728 107.588 73.9905 97.5698 77.7412 90.6996C81.4919 83.8294 88.0325 71.6813 92.277 63.7039C96.5216 55.7265 101.837 46.0171 104.09 42.1262L108.184 35.0538L108.15 41.2102C108.129 44.5964 107.504 51.8012 106.759 57.2212C106.016 62.641 104.952 73.0704 104.396 80.3976C103.839 87.7249 111.518 190.674 108.922 203.999C104.749 225.428 104.468 229.575 106.496 239.871C109.14 253.287 114.625 260.483 121.482 259.533C124.77 259.077 125.431 258.152 124.664 255.081C124.131 252.947 121.716 249.192 119.297 246.735C113.582 240.929 112.677 228.061 116.83 211.688C120.158 198.57 111.797 99.3518 112.619 83.6516C113.69 63.1589 117.021 33.7549 119.159 25.9167C121.776 16.3142 121.381 12.3793 117.558 10.0269C113.46 7.50338 111.89 9.59103 97.7446 36.3781C91.0973 48.9683 85.1921 59.7279 84.6209 60.2904C84.0498 60.8529 81.4877 65.6443 78.9279 70.9362C76.3684 76.2299 70.7854 87.6813 66.5228 96.3835C42.3488 145.743 31.0722 179.216 22.1602 228.061C16.376 259.763 14.2565 266.432 12.9521 257.023C11.0828 243.54 8.62977 196.182 8.68333 174.599C8.80182 126.755 9.24714 117.668 13.2913 80.7248C14.2058 72.3813 15.2038 61.961 15.5111 57.5684C16.3333 45.8033 17.7554 38.4159 21.8553 24.611L25.5289 12.2345L32.7078 11.6822C38.9256 11.2016 39.8876 10.6129 39.9022 7.27326C39.915 4.46987 38.3894 2.88163 34.32 1.45621C26.3243 -1.34419 20.3129 -0.0643546 17.9644 4.93994Z" fill="white" fill-opacity="0.1"/>
</svg>
