<svg width="174" height="300" viewBox="0 0 174 300" fill="none" xmlns="http://www.w3.org/2000/svg">
<path fill-rule="evenodd" clip-rule="evenodd" d="M65.7569 3.79822C64.1336 6.06736 60.8815 12.9507 58.533 19.0926C50.6447 39.7163 45.1899 55.2391 45.0969 57.3247C45.0461 58.4639 43.2123 62.8892 41.0217 67.1585C38.8311 71.4277 36.3225 78.297 35.4489 82.4225C34.5753 86.548 31.7857 97.4972 29.2488 106.754C23.2349 128.705 20.7539 139.439 17.9873 155.468C16.7389 162.7 13.8627 178.75 11.5938 191.137C8.27488 209.256 2.25857 261.069 0.0364809 290.685C-0.351536 295.839 2.39069 299.49 6.84617 299.751C10.9027 299.987 16.7984 293.5 19.2243 286.135C20.5751 282.031 23.597 273.647 25.9397 267.505C28.2825 261.363 32.2888 250.468 34.8433 243.294C45.7806 212.568 59.2853 185.056 74.8984 161.696C80.4136 153.444 84.9634 145.826 85.0107 144.764C85.0581 143.702 86.3839 141.867 87.9549 140.684C89.5279 139.501 93.5504 134.179 96.8967 128.856C100.241 123.535 107.361 113.782 112.72 107.182C118.08 100.582 127.459 88.8929 133.565 81.2073C139.67 73.5218 147.26 64.1969 150.434 60.4844L156.2 53.7359L154.951 60.3054C154.262 63.9186 152.175 71.4919 150.312 77.1349C148.451 82.778 145.26 93.7093 143.222 101.427C141.184 109.144 129.11 220.628 123.713 234.352C115.034 256.42 113.917 260.794 114.057 272.192C114.238 287.044 118.68 295.812 126.191 296.147C129.794 296.308 130.682 295.45 130.467 292.018C130.318 289.634 128.478 285.147 126.378 282.045C121.417 274.718 122.985 260.794 130.646 244.122C136.785 230.765 147.395 123.132 151.365 106.522C156.546 84.8427 165.896 54.0889 169.723 46.1371C174.41 36.395 174.763 32.1138 171.142 28.8479C167.262 25.3452 165.174 27.2661 144.787 53.0944C135.207 65.2342 126.78 75.5647 126.059 76.0531C125.338 76.5415 121.657 81.155 117.881 86.3038C114.104 91.4544 105.884 102.587 99.6172 111.044C64.0722 159.009 45.4337 192.544 26.2933 242.966C13.8705 275.691 10.2929 282.397 10.7527 272.09C11.4116 257.319 18.1187 206.248 22.427 183.202C31.9768 132.118 34.2423 122.499 45.8386 83.8324C48.4588 75.0998 51.5772 64.1653 52.7706 59.5335C55.9662 47.1279 58.9403 39.5166 66.0389 25.5776L72.4007 13.0803L80.1781 13.9043C86.9147 14.6155 88.0583 14.1762 88.7316 10.6115C89.2975 7.61946 87.9807 5.6224 83.9144 3.29823C75.9248 -1.26802 69.2512 -1.08489 65.7569 3.79822Z" fill="white" fill-opacity="0.1"/>
</svg>
