<svg width="129" height="307" viewBox="0 0 129 307" fill="none" xmlns="http://www.w3.org/2000/svg">
<path fill-rule="evenodd" clip-rule="evenodd" d="M52.6994 3.92048C48.1602 7.94927 47.8985 8.70954 34.1428 58.0538C26.469 85.5816 19.3898 109.101 18.4126 110.323C17.4353 111.544 16.9774 113.984 17.3958 115.743C17.8136 117.503 16.6372 125.5 14.7808 133.52C12.925 141.537 10.6178 153.456 9.653 160.008C8.68825 166.56 7.35628 174.813 6.69511 178.348C4.62982 189.384 1.97634 208.396 1.84913 213.077C1.78166 215.54 1.3834 223.044 0.96236 229.752C0.54273 236.46 0.318921 245.982 0.466938 250.913C0.614963 255.845 0.52537 260.613 0.268787 261.511C0.0116087 262.41 -0.0758925 268.795 0.0739465 275.702C0.353436 288.598 1.62949 290.712 7.11767 287.377C9.83371 285.727 11.4711 281.3 18.8333 255.701C23.541 239.335 27.2676 224.894 27.1164 223.612C26.7743 220.711 29.477 207.318 33.8872 190.075C36.6344 179.331 37.6538 177.038 39.4658 177.529C41.0625 177.961 41.3306 177.536 40.4222 176.017C39.5977 174.637 40.2263 171.295 42.2354 166.38C44.7188 160.303 46.0796 158.857 49.3047 158.868C51.5016 158.873 57.6157 158.606 62.8907 158.271C68.1658 157.935 75.8715 158.635 80.0147 159.827C86.5411 161.702 88.1735 163.302 92.2271 171.784C99.0689 186.099 88.1176 270.584 86.0923 281.32C84.4577 289.974 84.575 290.285 92.2357 297.559C103.171 307.941 110.202 309.525 112.33 302.085C113.425 298.256 111.033 287.986 108.905 287.377C105.799 286.489 105.611 169.894 106.551 163.184C107.09 159.338 94.2411 142.182 87.7162 138.036C82.7579 134.887 83.2216 132.961 90.7392 125.457C103.551 112.668 107.4 108.022 117.273 93.4316C128.557 76.7528 130.467 70.4056 126.348 63.2596C117.717 48.2934 80.8872 81.3241 48.611 132.981C35.3282 154.239 24.389 183.173 18.8491 211.706C16.8478 222.011 13.9352 236.171 12.3756 243.173C9.19918 257.437 9.27036 257.776 9.28863 228.747C9.30199 208.021 9.97403 202.295 16.5983 166.509C25.9129 116.181 51.3845 30.5063 58.0119 27.2101C59.6235 26.4093 62.6129 19.2309 63.9539 12.9445C64.5266 10.2529 60.0141 0.608706 57.8986 0.0036991C57.5709 -0.0900003 55.2322 1.67213 52.6994 3.92048ZM96.357 98.4673C89.2201 107.29 81.261 116.44 78.6681 118.802C76.0767 121.164 71.6656 125.744 68.8678 128.978C66.0701 132.211 62.9178 134.612 61.8629 134.31C59.6047 133.664 74.6625 111.745 82.904 103.68C85.7683 100.877 88.3372 97.7967 88.6123 96.8348C89.0413 95.3346 107.714 81.9651 108.905 82.3056C109.139 82.3726 103.492 89.6463 96.357 98.4673Z" fill="white" fill-opacity="0.1"/>
</svg>
