<svg width="60" height="67" viewBox="0 0 60 67" fill="none" xmlns="http://www.w3.org/2000/svg">
<path fill-rule="evenodd" clip-rule="evenodd" d="M48.7104 0.8463C47.2823 1.89278 45.1276 4.65149 45.1276 4.65149L45.616 4.95438L46.0848 4.66775C46.0848 4.66775 46.9475 3.80506 48.0018 3.10084C49.5493 2.06749 50.0057 1.89308 50.3705 2.19596C50.9906 2.71045 52.1968 5.15129 52.6344 6.77695C53.2064 8.90085 53.5539 12.7648 53.2542 13.6678C53.1045 14.1185 52.9125 15.2613 52.8278 16.2068C52.635 18.3635 52.0968 19.5568 52.0968 20.5269C52.0968 20.9349 52.0968 21.2613 51.9586 21.5877C51.8367 21.8756 51.5635 22.5432 50.8787 23.228C50.0144 24.0923 49.5671 24.9336 49.5671 24.9336C49.5671 24.9336 49.0578 26.0301 48.4033 26.484C47.7488 26.9379 47.5362 27.3553 46.441 28.3943C43.8742 30.8289 42.615 31.8934 40.5517 33.2346C39.3134 34.0395 38.1656 33.9538 38.0009 34.2482C37.6783 34.8243 36.8937 34.7546 30.3001 33.5634C26.1896 32.8204 25.7048 32.585 24.903 30.9425C24.5133 30.1442 24.1966 29.3287 24.1998 29.1302C24.2026 28.9318 24.6627 27.9472 25.2219 26.9423C26.3709 24.8774 27.0188 23.1918 27.3667 21.3642C27.4973 20.6765 27.8356 19.1996 28.1181 18.0822C28.9361 14.8459 28.2003 10.9632 26.6334 10.2493C26.2318 10.0664 25.7323 9.53036 25.5232 9.05776C24.5192 6.78977 21.0837 4.83293 18.5013 4.64181C15.9189 4.45069 16.405 4.72603 14.8521 5.54914C10.125 10.7343 13.226 10.4943 13.226 10.4943C13.226 10.4943 19.405 6.24612 20.6774 6.86199C22.199 7.59871 24.7399 10.4906 25.0015 11.7837C25.0937 12.2394 25.2897 13.0665 25.4372 13.6213C25.7185 14.6809 24.879 17.3658 24.879 17.3658C24.7 17.6678 23.7799 19.6292 23.7799 19.6292C23.5467 20.0506 22.5289 21.7509 22.2025 21.9141C21.7537 22.1386 19.9779 23.8857 19.3603 25.1025C17.8015 28.1728 12.9389 32.2018 10.0423 32.8229C6.12617 33.6628 2.95046 31.678 2.95046 28.3907C2.95046 27.8603 3.1674 26.4722 3.43277 25.3057C3.88381 23.3237 3.88901 23.5604 4.21543 22.9892C4.54185 22.418 6.69755 19.9528 6.69755 19.9528L4.21543 20.9188C4.21543 20.9188 3.05221 21.9142 2.32535 22.9892C2.2 23.1746 2.23616 23.1382 2.05654 23.3959C1.97198 23.5171 1.38514 24.5561 0.89316 25.9745C-0.142998 28.9624 -0.292407 32.0159 0.522453 33.5543C2.29971 36.9094 6.37531 38.1122 9.91544 36.3262C11.658 35.4472 13.7691 33.8353 16.1339 31.5789L17.5965 30.1836C17.5965 30.1836 17.7201 30.96 17.7411 31.462C17.7622 31.9639 17.8227 32.9973 17.3331 34.5629C17.6975 34.3706 18.2663 34.0704 18.2663 34.0704C18.2663 34.0704 18.5189 33.2573 18.5789 32.686C18.6388 32.1148 18.5789 31.9027 18.5789 31.221C18.5789 30.292 19.0024 30.1384 19.219 29.6391C19.4548 29.0954 19.5364 29.2586 19.6857 28.7495C19.7868 28.4043 19.8638 27.8081 20.4533 27.1476C21.3629 26.129 21.4101 26.1137 21.8474 26.6982C22.6369 27.7531 22.7316 28.9558 22.1381 30.3911C21.8308 31.1335 21.115 31.68 20.9388 32.0224C20.5973 32.686 20.77 32.686 20.298 33.7106C19.577 35.2757 19.8301 36.8335 18.1031 40.2745C15.2219 46.0158 14.5316 46.3112 14.5316 46.3112L12.6401 49.0857C12.0224 51.7232 11.3974 53.5355 11.1311 54.0581C10.9936 54.3288 10.9716 55.8506 10.6031 57.1647C9.98105 59.3811 10.1483 59.389 10.6031 60.2685C11.4476 61.902 12.6401 61.2947 12.6401 59.2311C12.6401 58.5516 13.0711 56.2236 13.5981 54.0581C14.4201 50.6793 14.9975 49.233 17.6646 43.869C19.3743 40.4308 20.7718 37.4636 20.77 37.2751C20.7684 37.0866 20.9931 36.4787 21.2698 35.9242L21.7727 34.9159L22.4419 35.5335C23.5549 36.5609 26.7219 37.6787 29.1183 37.8903C31.3619 38.0881 32.2872 37.1388 32.2872 37.1388C32.2872 37.1388 30.5661 36.6553 29.7041 36.5822C28.833 36.5081 28.4826 36.3059 28.2734 35.7554C28.1209 35.3544 27.8115 34.9606 27.5855 34.8802C27.3595 34.7996 27.2792 34.6217 27.407 34.4845C27.6877 34.1838 30.7065 34.8258 32.2872 35.5226C33.2893 35.9645 33.3414 36.0386 32.7226 36.1396C32.3359 36.203 32.2872 37.1388 32.2872 37.1388C32.2872 37.1388 35.279 36.9514 35.8305 36.845C36.2386 36.7663 36.7968 36.9113 38.2787 36.845C39.7128 36.7806 40.5517 36.7663 40.5517 36.7663C40.5517 36.7663 41.9509 36.7663 42.8486 36.1134C43.7462 35.4606 43.8734 34.9784 44.9908 33.8553C46.1083 32.7323 46.9182 31.6085 47.0328 31.4336C47.3351 30.9723 47.8986 29.6793 48.1529 29.3402C48.3977 29.0138 48.8371 27.9851 49.0506 27.6937C49.7572 26.7288 49.7341 26.781 50.0298 26.484C50.2573 26.2556 50.6011 25.5864 50.8643 25.27C51.1406 24.938 52.4825 23.2211 52.4825 23.2211C52.4825 23.2211 53.3811 22.1373 53.5008 22.0665C53.6204 21.9957 54.0112 21.5726 54.6813 21.2613C55.4952 20.8834 56.2972 19.9923 57.1564 18.8948C58.0155 17.7972 58.9854 12.3504 59.1264 9.01775C59.203 7.21267 59.2512 7.47005 59.3821 5.61889C59.5129 3.76773 58.3284 3.39151 58.3284 3.39151C58.3284 3.39151 57.6089 3.0152 57.2132 2.55542C56.6071 1.85058 56.1792 1.69679 54.4932 1.57708C52.925 1.46549 52.3312 1.27451 51.7467 0.694073C50.7765 -0.269261 50.1932 -0.240186 48.7104 0.8463ZM55.6444 3.3062C55.9413 3.60282 56.5205 4.60679 56.9321 5.53731C57.5523 6.94011 57.6714 7.68778 57.6286 9.92045C57.5545 13.8075 56.3983 16.9445 53.9772 19.8279C52.9182 21.0888 52.7338 20.8725 53.287 19.0177C54.6066 14.5924 54.586 6.95356 53.2454 3.46968C52.9973 2.82485 53.0635 2.7664 54.0397 2.7664C54.6317 2.7664 55.3443 3.00613 55.6444 3.3062ZM45.1276 4.65149C43.9623 6.0246 39.9613 9.84762 36.5634 12.9248C32.5088 16.5969 30.3217 18.9089 28.8445 21.0854C27.4261 23.1752 27.3001 24.021 28.4075 24.021C29.0333 24.021 29.374 23.6375 30.2839 21.9112C30.8956 20.7509 32.0637 19.0949 32.8798 18.2316C34.5764 16.4369 40.6155 10.8585 41.256 10.4943C41.4907 10.3609 43.3986 8.50218 43.5771 8.32371C44.638 7.26285 46.0848 4.66775 46.0848 4.66775L45.616 4.95438L45.1276 4.65149ZM13.226 10.4943C13.226 10.4943 10.125 10.7343 14.8521 5.54914C14.9141 5.56129 4.90223 20.6056 4.21543 20.9188L6.69755 19.9528C6.69755 19.9528 7.18718 19.0551 8.16644 17.2598C9.1457 15.4645 13.226 10.4943 13.226 10.4943ZM26.2749 20.5509C25.4953 23.6422 24.4645 26.3243 23.9288 26.6553C23.7759 26.75 23.4849 26.6275 23.2824 26.3834C22.5747 25.5304 22.8479 24.2076 24.1585 22.1456C24.8683 21.0282 25.3479 19.9634 25.412 19.7924C25.6568 19.1396 26.8031 16.6757 26.9322 17.0533C27.0035 17.2611 26.7075 18.8349 26.2749 20.5509ZM46.6715 29.4506C46.4655 29.9026 46.2213 30.0747 46.0814 30.2724C46.0128 30.3693 45.4384 30.9597 44.9161 31.7996C44.1138 33.0905 43.6874 33.4315 42.1612 34.0025C41.1678 34.3742 40.0619 34.6364 39.7037 34.5852C39.1552 34.5067 39.2499 34.3692 40.3023 33.7156C40.99 33.2886 41.681 32.8823 41.8379 32.8129C42.1805 32.6616 43.5186 31.5251 45.4453 29.7488C46.2239 29.0312 46.9025 28.4854 46.9535 28.5364C47.0044 28.587 46.8775 28.9986 46.6715 29.4506ZM24.5108 32.1825C24.5145 32.2878 24.1579 32.305 23.7181 32.2209C23.1786 32.1178 22.9751 31.9202 23.093 31.6136C23.1889 31.3635 23.2705 30.9947 23.2742 30.7937C23.2811 30.4377 24.497 31.8033 24.5108 32.1825ZM26.423 34.6696C26.9222 35.0253 27.3307 35.4644 27.3307 35.6457C27.3307 35.8686 27.2045 35.8736 26.94 35.6604C26.7253 35.4872 26.102 35.25 25.555 35.1331C25.0084 35.0162 24.3933 34.7186 24.1885 34.472C23.585 33.745 25.3428 33.9003 26.423 34.6696ZM14.2052 42.4757C13.7972 44.5159 12.6401 49.0857 12.6401 49.0857L14.5316 46.3112L18.2663 34.0704C18.2663 34.0704 17.6975 34.3706 17.3331 34.5629C17.2086 35.5335 14.6132 40.4356 14.2052 42.4757Z" fill="white"/>
<path d="M29.7041 36.5822C30.5661 36.6553 32.2872 37.1388 32.2872 37.1388C32.2872 37.1388 32.3359 36.203 32.7226 36.1396C33.3414 36.0386 33.2893 35.9645 32.2872 35.5226C30.7065 34.8258 27.6877 34.1838 27.407 34.4845C27.2792 34.6217 27.3595 34.7996 27.5855 34.8802C27.8115 34.9606 28.1209 35.3544 28.2734 35.7554C28.4826 36.3059 28.833 36.5081 29.7041 36.5822Z" fill="white"/>
<path d="M26.423 34.6696C26.9222 35.0253 27.3307 35.4644 27.3307 35.6457C27.3307 35.8686 27.2045 35.8736 26.94 35.6604C26.7253 35.4872 26.102 35.25 25.555 35.1331C25.0084 35.0162 24.3933 34.7186 24.1885 34.472C23.585 33.745 25.3428 33.9003 26.423 34.6696Z" fill="white"/>
<path d="M24.5108 32.1825C24.5145 32.2878 24.1579 32.305 23.7181 32.2209C23.1786 32.1178 22.9751 31.9202 23.093 31.6136C23.1889 31.3635 23.2705 30.9947 23.2742 30.7937C23.2811 30.4377 24.497 31.8033 24.5108 32.1825Z" fill="white"/>
<path d="M46.6715 29.4506C46.4655 29.9026 46.2213 30.0747 46.0814 30.2724C46.0128 30.3693 45.4384 30.9597 44.9161 31.7996C44.1138 33.0905 43.6874 33.4315 42.1612 34.0025C41.1678 34.3742 40.0619 34.6364 39.7037 34.5852C39.1552 34.5067 39.2499 34.3692 40.3023 33.7156C40.99 33.2886 41.681 32.8823 41.8379 32.8129C42.1805 32.6616 43.5186 31.5251 45.4453 29.7488C46.2239 29.0312 46.9025 28.4854 46.9535 28.5364C47.0044 28.587 46.8775 28.9986 46.6715 29.4506Z" fill="white"/>
<path fill-rule="evenodd" clip-rule="evenodd" d="M40.9331 16.2121C39.9735 18.6649 39.1873 22.693 38.3935 25.7763C38.04 27.1495 37.7955 27.6933 37.2036 28.4237C36.2149 29.6439 35.6507 30.5377 35.2264 31.555C34.1477 34.1413 33.41 36.0894 33.3646 36.4703C33.3362 36.7082 33.0877 37.6664 32.8121 38.5996C31.751 42.1932 31.0431 47.1685 30.8274 52.5468C30.741 54.7018 30.7157 56.6037 30.7715 56.7732C30.827 56.943 30.8626 57.6717 30.8504 58.3928C30.7778 62.7015 32.3549 65.6716 34.1487 64.6044C35.0536 64.066 35.1986 63.3397 35.6546 57.0622C36.1725 49.9324 36.4021 47.6512 36.666 47.0139C36.8081 46.6708 36.8289 46.4333 36.7293 46.2966C36.5575 46.0608 37.8358 44.6498 38.3803 44.0949C38.59 43.8812 38.5833 43.6089 38.3645 43.4536C38.1552 43.3053 38.0197 42.812 38.0635 42.3577C38.1383 41.5807 38.222 41.5607 39.4659 42.0181C41.4592 42.7512 42.4511 42.4564 42.2973 41.1762C42.182 40.2165 42.2592 40.147 43.3138 40.2599C43.9414 40.3271 44.4707 40.2207 44.4897 40.0233C44.5086 39.8263 45.0145 39.5523 45.6141 39.4149C47.8503 38.9021 52.1201 37.2587 52.1549 36.8972C52.1699 36.7408 52.3473 36.63 52.5491 36.6516C52.8886 36.6879 54.7137 35.9193 56.9095 34.8153C58.1461 34.1934 58.2143 32.8415 57.1001 31.0256C56.1993 29.5569 53.4082 24.599 51.45 23.5899C49.7787 22.7286 46.5491 22.1757 44.3224 22.3691C43.1807 22.4686 42.0214 23.699 41.9242 23.5899C41.5592 23.1821 39.9769 23.4675 40.8729 21.1776C41.7578 18.9162 41.8496 18.8027 42.7476 18.8592C43.6041 18.9138 44.1416 18.3509 44.2504 17.2858C44.3243 16.5597 43.0015 14.9425 42.2642 14.8577C41.6336 14.7853 41.3973 15.0256 40.9331 16.2121ZM47.9186 25.7763C50.131 26.5569 51.263 29.6647 53.3194 31.5905L54.5787 32.7695L53.1924 33.6257C49.6666 35.8027 47.7544 36.6048 43.7055 37.6049C38.639 38.8564 38.5428 38.8288 38.5339 36.1239C38.5297 34.9081 37.7201 33.9801 37.801 33.4266C37.882 32.8731 39.0773 30.6669 39.2135 29.6674C39.5204 27.4096 40.9476 25.0542 45.4297 25.0417C45.6515 25.041 46.7715 25.3717 47.9186 25.7763ZM36.9044 34.1365C36.6455 36.1567 35.9796 43.049 35.4244 49.4528C34.8693 55.857 34.3423 61.3516 34.2534 61.6635C33.8953 62.9183 32.5292 61.7274 32.1904 59.8652C31.6592 56.9458 31.5948 54.134 31.9218 48.1353C32.0545 45.7005 33.353 38.7262 33.8258 37.9097C33.9369 37.7177 34.127 37.1206 34.2483 36.583C34.5921 35.057 36.874 30.412 37.2601 30.4519C37.3233 30.4585 37.1634 32.1164 36.9044 34.1365Z" fill="white"/>
</svg>
