<svg width="198" height="290" viewBox="0 0 198 290" fill="none" xmlns="http://www.w3.org/2000/svg">
<path fill-rule="evenodd" clip-rule="evenodd" d="M34.8039 17.8924C31.4574 18.7822 28.0036 20.8596 27.1277 22.5089C26.0877 24.4673 25.026 24.9256 24.0645 23.8305C21.8424 21.2983 8.15986 24.197 4.27233 28.0255C0.118119 32.115 -1.48311 44.6673 1.62672 48.7738C6.2028 54.8168 10.5441 65.7485 12.3535 75.7838C15.8582 95.229 21.4057 142.253 20.466 144.559C19.9517 145.821 19.7902 149.72 20.1054 153.225C20.4207 156.73 20.9223 163.644 21.2217 168.588C21.5193 173.532 23.555 190.615 25.7406 206.547C29.7011 235.398 29.7381 235.532 34.7333 239.089C37.492 241.053 41.5119 242.364 43.665 242.002C45.818 241.64 49.1888 242.373 51.1563 243.63C57.1275 247.449 61.4994 243.628 61.3414 234.73C61.2662 230.482 60.8505 225.893 60.4186 224.535C59.0753 220.316 59.0626 214.756 60.4015 216.939C61.7102 219.072 67.1678 218.91 68.7484 216.688C70.234 214.604 62.9469 207.884 59.78 208.416C56.4771 208.972 56.2995 207.926 53.8142 173.095C52.1082 149.161 52.0474 147.882 51.8 129.845C51.698 122.371 51.473 114.564 51.3018 112.499C51.1324 110.433 51.8829 107.207 52.9749 105.331C54.4763 102.746 54.3764 101.504 52.5689 100.217C49.3584 97.9312 48.248 90.4862 51.0475 90.0154C52.275 89.809 56.7948 94.5664 61.089 100.586C73.6275 118.163 81.3356 127.397 86.7218 131.291C89.4902 133.292 93.6731 136.662 96.0176 138.778C107.23 148.899 134.814 159.473 145.376 157.696C149.917 156.932 153.169 165.499 154.032 180.5C156.197 218.199 161.328 243.266 170.917 262.98C173.207 267.689 173.757 270.886 172.969 274.894C171.665 281.513 176.193 290.605 180.359 289.737C181.836 289.431 186.328 286.828 190.34 283.956C195.472 280.281 197.601 277.457 197.524 274.426C197.416 270.243 197.161 270.197 188.627 272.823C181.375 275.055 179.762 275.054 179.385 272.816C179.135 271.325 178.699 269.533 178.417 268.83C169.782 247.315 163.182 218.568 162.457 199.321C162.346 196.342 162.021 189.041 161.737 183.096C161.452 177.15 161.275 171.05 161.341 169.541C161.406 168.032 161.526 163.925 161.604 160.416C161.69 156.618 163.946 150.939 167.174 146.388L172.601 138.741L169.121 127.898C163.071 109.055 162.845 94.4913 168.278 73.5357C169.285 69.6522 169.852 64.9491 169.539 63.0839C168.777 58.557 175.57 34.0419 178.219 31.7584C179.37 30.7656 180.079 28.5632 179.793 26.8623C179.507 25.1632 180.066 22.6573 181.036 21.2955C182.005 19.9337 182.197 18.9208 181.462 19.0444C180.727 19.1679 181.066 17.2948 182.214 14.8804C183.363 12.4678 184.016 8.77998 183.664 6.68698C182.991 2.68114 178.151 -1.15807 175.647 0.325517C173.871 1.3799 159.623 25.7214 159.882 27.2615C159.982 27.8585 158.355 32.0498 156.268 36.5761C154.18 41.1028 152.339 46.872 152.175 49.3968C152.011 51.9216 151.598 57.3035 151.255 61.3568C150.912 65.4101 150.979 76.0236 151.402 84.9427C151.825 93.8618 152.133 109.339 152.085 119.336L152 137.512L145.328 139.21C141.658 140.143 137.255 140.571 135.544 140.16C133.831 139.75 130.508 139.483 128.159 139.568C123.384 139.737 112.482 135.134 103.963 129.349C96.7152 124.427 78.0186 104.586 73.5956 97.1204C71.7114 93.9411 68.8972 90.2643 67.3409 88.9478C65.7867 87.6327 64.3047 85.4301 64.0477 84.0531C63.7927 82.6775 61.2583 77.1866 58.4181 71.8542C52.3752 60.5131 50.1786 44.3315 53.1072 32.7274C54.74 26.2595 54.5714 24.9547 51.6385 21.3597C47.7553 16.5969 43.2024 15.659 34.8039 17.8924Z" fill="white" fill-opacity="0.19"/>
</svg>
