<svg width="201" height="313" viewBox="0 0 201 313" fill="none" xmlns="http://www.w3.org/2000/svg">
<path fill-rule="evenodd" clip-rule="evenodd" d="M39.2978 9.10183C35.626 9.82098 31.7534 11.8129 30.6908 13.5282C29.429 15.565 28.2515 15.9829 27.2934 14.7332C25.0794 11.8438 10.1201 13.9873 5.65417 17.836C0.882035 21.9469 -1.74486 35.3649 1.31327 40.0153C5.81327 46.8586 9.70934 58.9557 10.9402 69.9048C13.3234 91.1204 15.9306 142.216 14.752 144.635C14.107 145.958 13.6531 150.15 13.7415 153.952C13.8299 157.753 13.8747 165.243 13.8427 170.595C13.8088 175.947 14.778 194.509 15.9912 211.844C18.1911 243.233 18.2214 243.379 23.3517 247.572C26.1849 249.888 30.4248 251.59 32.772 251.354C35.1193 251.118 38.7007 252.151 40.7318 253.646C46.8953 258.193 51.8829 254.387 52.351 244.782C52.5747 240.197 52.4557 235.22 52.0876 233.724C50.942 229.08 51.3274 223.084 52.6141 225.533C53.872 227.928 59.7676 228.144 61.6311 225.862C63.3823 223.722 56.008 215.954 52.5556 216.301C48.9548 216.663 48.8383 215.523 48.6579 177.793C48.5358 151.867 48.562 150.483 49.5893 131.02C50.0156 122.954 50.3331 114.521 50.2968 112.282C50.2623 110.043 51.3029 106.619 52.6148 104.674C54.419 101.995 54.4004 100.649 52.5441 99.1322C49.2468 96.4372 48.5838 88.331 51.6357 88.0243C52.974 87.8898 57.5054 93.3431 61.7033 100.141C73.9601 119.991 81.6078 130.499 87.1354 135.084C89.9765 137.44 94.2443 141.373 96.6202 143.823C107.982 155.539 136.963 168.917 148.477 167.76C153.428 167.262 156.319 176.732 156.173 192.965C155.802 233.766 159.536 261.159 168.459 283.1C170.59 288.342 170.954 291.827 169.817 296.092C167.937 303.135 172.165 313.262 176.719 312.625C178.334 312.401 183.363 309.917 187.895 307.108C193.691 303.515 196.19 300.622 196.324 297.349C196.507 292.832 196.236 292.764 186.847 294.983C178.868 296.869 177.129 296.752 176.884 294.312C176.72 292.687 176.379 290.724 176.126 289.946C168.36 266.13 163.307 234.665 163.906 213.861C164 210.642 164.174 202.748 164.294 196.317C164.414 189.887 164.66 183.298 164.839 181.675C165.018 180.053 165.441 175.634 165.777 171.856C166.143 167.768 168.982 161.807 172.789 157.132L179.188 149.277L176.215 137.338C171.044 116.589 171.845 100.871 179.206 78.6681C180.57 74.5535 181.52 69.5236 181.315 67.4902C180.819 62.5551 189.901 36.6123 192.921 34.3405C194.234 33.3527 195.155 31.0291 194.969 29.1748C194.783 27.3225 195.566 24.6609 196.709 23.2623C197.852 21.8637 198.131 20.7854 197.33 20.8659C196.528 20.9464 197.028 18.9513 198.44 16.4307C199.851 13.912 200.82 9.983 200.591 7.70124C200.152 3.33414 195.21 -1.15218 192.404 0.267659C190.413 1.27692 173.305 26.4976 173.474 28.1767C173.539 28.8275 171.484 33.2294 168.91 37.9597C166.334 42.6901 163.935 48.7779 163.577 51.4882C163.219 54.1985 162.388 59.9712 161.727 64.3165C161.067 68.6618 160.378 80.1092 160.194 89.7554C160.01 99.4015 159.231 116.109 158.462 126.884L157.066 146.474L149.751 147.826C145.728 148.569 140.95 148.715 139.135 148.148C137.318 147.584 133.754 147.057 131.216 146.98C126.055 146.82 114.633 141.075 105.863 134.227C98.4019 128.401 79.6683 105.668 75.4354 97.302C73.6322 93.7392 70.862 89.5733 69.2785 88.0422C67.6972 86.5129 66.2575 84.032 66.0792 82.5289C65.903 81.0276 63.5645 74.9259 60.8851 68.9732C55.1838 56.3126 53.9766 38.7093 57.9665 26.4089C60.191 19.5529 60.1028 18.1341 57.1986 14.0478C53.3539 8.63432 48.5126 7.29652 39.2978 9.10183Z" fill="white" fill-opacity="0.19"/>
</svg>
