<svg width="1440" height="898" viewBox="0 0 1440 898" fill="none" xmlns="http://www.w3.org/2000/svg">
<g filter="url(#filter0_df_250_721)">
<mask id="path-1-outside-1_250_721" maskUnits="userSpaceOnUse" x="-204" y="11" width="1750" height="790" fill="black">
<rect fill="white" x="-204" y="11" width="1750" height="790"/>
<path d="M-195.636 628.361V553.251L135.733 28.9523H190.225V145.3H153.406L-96.9614 541.469V547.36H349.282V628.361H-195.636ZM159.297 783V605.534V570.556V28.9523H246.189V783H159.297ZM671 793.309C615.526 793.309 568.276 778.214 529.248 748.022C490.22 717.585 460.397 673.526 439.778 615.843C419.16 557.915 408.851 487.959 408.851 405.976C408.851 324.484 419.16 254.897 439.778 197.214C460.642 139.286 490.588 95.1033 529.616 64.6665C568.889 33.9842 616.017 18.6431 671 18.6431C725.983 18.6431 772.988 33.9842 812.016 64.6665C851.289 95.1033 881.235 139.286 901.854 197.214C922.717 254.897 933.149 324.484 933.149 405.976C933.149 487.959 922.84 557.915 902.222 615.843C881.603 673.526 851.78 717.585 812.752 748.022C773.724 778.214 726.474 793.309 671 793.309ZM671 712.308C725.983 712.308 768.692 685.799 799.129 632.78C829.566 579.761 844.784 504.159 844.784 405.976C844.784 340.684 837.789 285.088 823.798 239.187C810.052 193.287 790.17 158.309 764.151 134.254C738.378 110.199 707.328 98.1715 671 98.1715C616.508 98.1715 573.921 125.049 543.239 178.805C512.557 232.314 497.216 308.038 497.216 405.976C497.216 471.268 504.088 526.742 517.834 572.397C531.58 618.052 551.339 652.784 577.112 676.594C603.131 700.403 634.427 712.308 671 712.308ZM993.179 628.361V553.251L1324.55 28.9523H1379.04V145.3H1342.22L1091.85 541.469V547.36H1538.1V628.361H993.179ZM1348.11 783V605.534V570.556V28.9523H1435V783H1348.11Z"/>
</mask>
<path d="M-195.636 628.361V553.251L135.733 28.9523H190.225V145.3H153.406L-96.9614 541.469V547.36H349.282V628.361H-195.636ZM159.297 783V605.534V570.556V28.9523H246.189V783H159.297ZM671 793.309C615.526 793.309 568.276 778.214 529.248 748.022C490.22 717.585 460.397 673.526 439.778 615.843C419.16 557.915 408.851 487.959 408.851 405.976C408.851 324.484 419.16 254.897 439.778 197.214C460.642 139.286 490.588 95.1033 529.616 64.6665C568.889 33.9842 616.017 18.6431 671 18.6431C725.983 18.6431 772.988 33.9842 812.016 64.6665C851.289 95.1033 881.235 139.286 901.854 197.214C922.717 254.897 933.149 324.484 933.149 405.976C933.149 487.959 922.84 557.915 902.222 615.843C881.603 673.526 851.78 717.585 812.752 748.022C773.724 778.214 726.474 793.309 671 793.309ZM671 712.308C725.983 712.308 768.692 685.799 799.129 632.78C829.566 579.761 844.784 504.159 844.784 405.976C844.784 340.684 837.789 285.088 823.798 239.187C810.052 193.287 790.17 158.309 764.151 134.254C738.378 110.199 707.328 98.1715 671 98.1715C616.508 98.1715 573.921 125.049 543.239 178.805C512.557 232.314 497.216 308.038 497.216 405.976C497.216 471.268 504.088 526.742 517.834 572.397C531.58 618.052 551.339 652.784 577.112 676.594C603.131 700.403 634.427 712.308 671 712.308ZM993.179 628.361V553.251L1324.55 28.9523H1379.04V145.3H1342.22L1091.85 541.469V547.36H1538.1V628.361H993.179ZM1348.11 783V605.534V570.556V28.9523H1435V783H1348.11Z" fill="#373737"/>
<path d="M-195.636 628.361H-203.092V635.817H-195.636V628.361ZM-195.636 553.251L-201.938 549.268L-203.092 551.092V553.251H-195.636ZM135.733 28.9523V21.4962H131.625L129.43 24.9688L135.733 28.9523ZM190.225 28.9523H197.681V21.4962H190.225V28.9523ZM190.225 145.3V152.756H197.681V145.3H190.225ZM153.406 145.3V137.843H149.298L147.103 141.316L153.406 145.3ZM-96.9614 541.469L-103.264 537.486L-104.418 539.311V541.469H-96.9614ZM-96.9614 547.36H-104.418V554.816H-96.9614V547.36ZM349.282 547.36H356.738V539.904H349.282V547.36ZM349.282 628.361V635.817H356.738V628.361H349.282ZM159.297 783H151.841V790.456H159.297V783ZM159.297 28.9523V21.4962H151.841V28.9523H159.297ZM246.189 28.9523H253.645V21.4962H246.189V28.9523ZM246.189 783V790.456H253.645V783H246.189ZM-195.636 628.361H-188.18V553.251H-195.636H-203.092V628.361H-195.636ZM-195.636 553.251L-189.333 557.235L142.036 32.9358L135.733 28.9523L129.43 24.9688L-201.938 549.268L-195.636 553.251ZM135.733 28.9523V36.4084H190.225V28.9523V21.4962H135.733V28.9523ZM190.225 28.9523H182.769V145.3H190.225H197.681V28.9523H190.225ZM190.225 145.3V137.843H153.406V145.3V152.756H190.225V145.3ZM153.406 145.3L147.103 141.316L-103.264 537.486L-96.9614 541.469L-90.6585 545.452L159.709 149.283L153.406 145.3ZM-96.9614 541.469H-104.418V547.36H-96.9614H-89.5053V541.469H-96.9614ZM-96.9614 547.36V554.816H349.282V547.36V539.904H-96.9614V547.36ZM349.282 547.36H341.826V628.361H349.282H356.738V547.36H349.282ZM349.282 628.361V620.905H-195.636V628.361V635.817H349.282V628.361ZM159.297 783H166.753V605.534H159.297H151.841V783H159.297ZM159.297 605.534H166.753V570.556H159.297H151.841V605.534H159.297ZM159.297 570.556H166.753V28.9523H159.297H151.841V570.556H159.297ZM159.297 28.9523V36.4084H246.189V28.9523V21.4962H159.297V28.9523ZM246.189 28.9523H238.733V783H246.189H253.645V28.9523H246.189ZM246.189 783V775.544H159.297V783V790.456H246.189V783ZM529.248 748.022L524.663 753.902L524.674 753.911L524.686 753.92L529.248 748.022ZM439.778 615.843L432.754 618.343L432.757 618.353L439.778 615.843ZM439.778 197.214L432.763 194.687L432.76 194.696L432.757 194.704L439.778 197.214ZM529.616 64.6664L534.201 70.546L534.206 70.5421L529.616 64.6664ZM812.016 64.6664L807.408 70.5281L807.428 70.544L807.448 70.5599L812.016 64.6664ZM901.854 197.214L894.829 199.714L894.835 199.732L894.842 199.75L901.854 197.214ZM902.222 615.843L909.243 618.353L909.246 618.343L902.222 615.843ZM812.752 748.022L817.314 753.92L817.326 753.911L817.337 753.902L812.752 748.022ZM799.129 632.78L792.663 629.067V629.067L799.129 632.78ZM823.798 239.187L816.655 241.326L816.66 241.344L816.666 241.361L823.798 239.187ZM764.151 134.254L759.064 139.705L759.077 139.717L759.09 139.729L764.151 134.254ZM543.239 178.805L549.707 182.513L549.711 182.507L549.715 182.501L543.239 178.805ZM517.834 572.397L510.695 574.546V574.546L517.834 572.397ZM577.112 676.594L572.053 682.071L572.066 682.083L572.079 682.094L577.112 676.594ZM671 793.309V785.853C616.962 785.853 571.371 771.181 533.81 742.125L529.248 748.022L524.686 753.92C565.181 785.246 614.091 800.765 671 800.765V793.309ZM529.248 748.022L533.833 742.143C496.159 712.761 467.055 670.001 446.799 613.333L439.778 615.843L432.757 618.353C453.739 677.05 484.281 722.409 524.663 753.902L529.248 748.022ZM439.778 615.843L446.803 613.343C426.547 556.435 416.307 487.374 416.307 405.976H408.851H401.395C401.395 488.545 411.772 559.395 432.754 618.343L439.778 615.843ZM408.851 405.976H416.307C416.307 325.074 426.546 256.384 446.799 199.724L439.778 197.214L432.757 194.704C411.773 253.409 401.395 323.894 401.395 405.976H408.851ZM439.778 197.214L446.793 199.74C467.296 142.815 496.526 99.9279 534.201 70.546L529.616 64.6664L525.031 58.7869C484.65 90.2787 453.988 135.757 432.763 194.687L439.778 197.214ZM529.616 64.6664L534.206 70.5421C572.032 40.9907 617.499 26.0992 671 26.0992V18.6431V11.187C614.536 11.187 565.747 26.9777 525.026 58.7908L529.616 64.6664ZM671 18.6431V26.0992C724.502 26.0992 769.836 40.9906 807.408 70.5281L812.016 64.6664L816.624 58.8049C776.14 26.9778 727.464 11.187 671 11.187V18.6431ZM812.016 64.6664L807.448 70.5599C845.354 99.9371 874.575 142.809 894.829 199.714L901.854 197.214L908.878 194.714C887.895 135.762 857.224 90.2695 816.583 58.773L812.016 64.6664ZM901.854 197.214L894.842 199.75C915.333 256.401 925.693 325.082 925.693 405.976H933.149H940.605C940.605 323.886 930.102 253.392 908.865 194.678L901.854 197.214ZM933.149 405.976H925.693C925.693 487.374 915.453 556.435 895.197 613.343L902.222 615.843L909.246 618.343C930.228 559.395 940.605 488.545 940.605 405.976H933.149ZM902.222 615.843L895.201 613.333C874.945 670.001 845.841 712.761 808.167 742.143L812.752 748.022L817.337 753.902C857.719 722.409 888.261 677.05 909.243 618.353L902.222 615.843ZM812.752 748.022L808.19 742.125C770.629 771.181 725.038 785.853 671 785.853V793.309V800.765C727.909 800.765 776.819 785.246 817.314 753.92L812.752 748.022ZM671 712.308V719.764C728.996 719.764 774.009 691.513 805.596 636.492L799.129 632.78L792.663 629.067C763.376 680.084 722.969 704.852 671 704.852V712.308ZM799.129 632.78L805.596 636.492C836.961 581.855 852.241 504.751 852.241 405.976H844.784H837.328C837.328 503.568 822.171 577.666 792.663 629.067L799.129 632.78ZM844.784 405.976H852.241C852.241 340.194 845.198 283.821 830.93 237.013L823.798 239.187L816.666 241.361C830.38 286.355 837.328 341.175 837.328 405.976H844.784ZM823.798 239.187L830.941 237.048C816.942 190.303 796.498 154.004 769.213 128.779L764.151 134.254L759.09 139.729C783.842 162.613 803.162 196.27 816.655 241.326L823.798 239.187ZM764.151 134.254L769.239 128.803C742.039 103.417 709.153 90.7155 671 90.7155V98.1715V105.628C705.503 105.628 734.717 116.981 759.064 139.705L764.151 134.254ZM671 98.1715V90.7155C613.421 90.7155 568.556 119.408 536.763 175.108L543.239 178.805L549.715 182.501C579.287 130.69 619.596 105.628 671 105.628V98.1715ZM543.239 178.805L536.771 175.096C505.167 230.212 489.76 307.429 489.76 405.976H497.216H504.672C504.672 308.648 519.946 234.417 549.707 182.513L543.239 178.805ZM497.216 405.976H489.76C489.76 471.748 496.678 527.99 510.695 574.546L517.834 572.397L524.974 570.247C511.499 525.493 504.672 470.789 504.672 405.976H497.216ZM517.834 572.397L510.695 574.546C524.692 621.036 545.012 657.09 572.053 682.071L577.112 676.594L582.172 671.117C557.667 648.479 538.468 615.068 524.974 570.247L517.834 572.397ZM577.112 676.594L572.079 682.094C599.527 707.212 632.639 719.764 671 719.764V712.308V704.852C636.214 704.852 606.735 693.594 582.146 671.093L577.112 676.594ZM993.179 628.361H985.723V635.817H993.179V628.361ZM993.179 553.251L986.876 549.268L985.723 551.092V553.251H993.179ZM1324.55 28.9523V21.4962H1320.44L1318.24 24.9688L1324.55 28.9523ZM1379.04 28.9523H1386.5V21.4962H1379.04V28.9523ZM1379.04 145.3V152.756H1386.5V145.3H1379.04ZM1342.22 145.3V137.843H1338.11L1335.92 141.316L1342.22 145.3ZM1091.85 541.469L1085.55 537.486L1084.4 539.311V541.469H1091.85ZM1091.85 547.36H1084.4V554.816H1091.85V547.36ZM1538.1 547.36H1545.55V539.904H1538.1V547.36ZM1538.1 628.361V635.817H1545.55V628.361H1538.1ZM1348.11 783H1340.66V790.456H1348.11V783ZM1348.11 28.9523V21.4962H1340.66V28.9523H1348.11ZM1435 28.9523H1442.46V21.4962H1435V28.9523ZM1435 783V790.456H1442.46V783H1435ZM993.179 628.361H1000.63V553.251H993.179H985.723V628.361H993.179ZM993.179 553.251L999.481 557.235L1330.85 32.9358L1324.55 28.9523L1318.24 24.9688L986.876 549.268L993.179 553.251ZM1324.55 28.9523V36.4084H1379.04V28.9523V21.4962H1324.55V28.9523ZM1379.04 28.9523H1371.58V145.3H1379.04H1386.5V28.9523H1379.04ZM1379.04 145.3V137.843H1342.22V145.3V152.756H1379.04V145.3ZM1342.22 145.3L1335.92 141.316L1085.55 537.486L1091.85 541.469L1098.16 545.452L1348.52 149.283L1342.22 145.3ZM1091.85 541.469H1084.4V547.36H1091.85H1099.31V541.469H1091.85ZM1091.85 547.36V554.816H1538.1V547.36V539.904H1091.85V547.36ZM1538.1 547.36H1530.64V628.361H1538.1H1545.55V547.36H1538.1ZM1538.1 628.361V620.905H993.179V628.361V635.817H1538.1V628.361ZM1348.11 783H1355.57V605.534H1348.11H1340.66V783H1348.11ZM1348.11 605.534H1355.57V570.556H1348.11H1340.66V605.534H1348.11ZM1348.11 570.556H1355.57V28.9523H1348.11H1340.66V570.556H1348.11ZM1348.11 28.9523V36.4084H1435V28.9523V21.4962H1348.11V28.9523ZM1435 28.9523H1427.55V783H1435H1442.46V28.9523H1435ZM1435 783V775.544H1348.11V783V790.456H1435V783Z" fill="#373737" mask="url(#path-1-outside-1_250_721)"/>
</g>
<g filter="url(#filter1_df_250_721)">
<mask id="path-3-outside-2_250_721" maskUnits="userSpaceOnUse" x="-204" y="779" width="1750" height="790" fill="black">
<rect fill="white" x="-204" y="779" width="1750" height="790"/>
<path d="M-195.636 951.639V1026.75L135.733 1551.05H190.225V1434.7H153.406L-96.9614 1038.53V1032.64H349.282V951.639H-195.636ZM159.297 797V974.466V1009.44V1551.05H246.189V797H159.297ZM671 786.691C615.526 786.691 568.276 801.786 529.248 831.978C490.22 862.415 460.397 906.474 439.778 964.157C419.16 1022.09 408.851 1092.04 408.851 1174.02C408.851 1255.52 419.16 1325.1 439.778 1382.79C460.642 1440.71 490.588 1484.9 529.616 1515.33C568.889 1546.02 616.017 1561.36 671 1561.36C725.983 1561.36 772.988 1546.02 812.016 1515.33C851.289 1484.9 881.235 1440.71 901.854 1382.79C922.717 1325.1 933.149 1255.52 933.149 1174.02C933.149 1092.04 922.84 1022.09 902.222 964.157C881.603 906.474 851.78 862.415 812.752 831.978C773.724 801.786 726.474 786.691 671 786.691ZM671 867.692C725.983 867.692 768.692 894.201 799.129 947.22C829.566 1000.24 844.784 1075.84 844.784 1174.02C844.784 1239.32 837.789 1294.91 823.798 1340.81C810.052 1386.71 790.17 1421.69 764.151 1445.75C738.378 1469.8 707.328 1481.83 671 1481.83C616.508 1481.83 573.921 1454.95 543.239 1401.2C512.557 1347.69 497.216 1271.96 497.216 1174.02C497.216 1108.73 504.088 1053.26 517.834 1007.6C531.58 961.948 551.339 927.216 577.112 903.406C603.131 879.597 634.427 867.692 671 867.692ZM993.179 951.639V1026.75L1324.55 1551.05H1379.04V1434.7H1342.22L1091.85 1038.53V1032.64H1538.1V951.639H993.179ZM1348.11 797V974.466V1009.44V1551.05H1435V797H1348.11Z"/>
</mask>
<path d="M-195.636 951.639V1026.75L135.733 1551.05H190.225V1434.7H153.406L-96.9614 1038.53V1032.64H349.282V951.639H-195.636ZM159.297 797V974.466V1009.44V1551.05H246.189V797H159.297ZM671 786.691C615.526 786.691 568.276 801.786 529.248 831.978C490.22 862.415 460.397 906.474 439.778 964.157C419.16 1022.09 408.851 1092.04 408.851 1174.02C408.851 1255.52 419.16 1325.1 439.778 1382.79C460.642 1440.71 490.588 1484.9 529.616 1515.33C568.889 1546.02 616.017 1561.36 671 1561.36C725.983 1561.36 772.988 1546.02 812.016 1515.33C851.289 1484.9 881.235 1440.71 901.854 1382.79C922.717 1325.1 933.149 1255.52 933.149 1174.02C933.149 1092.04 922.84 1022.09 902.222 964.157C881.603 906.474 851.78 862.415 812.752 831.978C773.724 801.786 726.474 786.691 671 786.691ZM671 867.692C725.983 867.692 768.692 894.201 799.129 947.22C829.566 1000.24 844.784 1075.84 844.784 1174.02C844.784 1239.32 837.789 1294.91 823.798 1340.81C810.052 1386.71 790.17 1421.69 764.151 1445.75C738.378 1469.8 707.328 1481.83 671 1481.83C616.508 1481.83 573.921 1454.95 543.239 1401.2C512.557 1347.69 497.216 1271.96 497.216 1174.02C497.216 1108.73 504.088 1053.26 517.834 1007.6C531.58 961.948 551.339 927.216 577.112 903.406C603.131 879.597 634.427 867.692 671 867.692ZM993.179 951.639V1026.75L1324.55 1551.05H1379.04V1434.7H1342.22L1091.85 1038.53V1032.64H1538.1V951.639H993.179ZM1348.11 797V974.466V1009.44V1551.05H1435V797H1348.11Z" fill="#373737" fill-opacity="0.2" shape-rendering="crispEdges"/>
<path d="M-195.636 951.639H-203.092V944.183H-195.636V951.639ZM-195.636 1026.75L-201.938 1030.73L-203.092 1028.91V1026.75H-195.636ZM135.733 1551.05V1558.5H131.625L129.43 1555.03L135.733 1551.05ZM190.225 1551.05H197.681V1558.5H190.225V1551.05ZM190.225 1434.7V1427.24H197.681V1434.7H190.225ZM153.406 1434.7V1442.16H149.298L147.103 1438.68L153.406 1434.7ZM-96.9614 1038.53L-103.264 1042.51L-104.418 1040.69V1038.53H-96.9614ZM-96.9614 1032.64H-104.418V1025.18H-96.9614V1032.64ZM349.282 1032.64H356.738V1040.1H349.282V1032.64ZM349.282 951.639V944.183H356.738V951.639H349.282ZM159.297 797H151.841V789.544H159.297V797ZM159.297 1551.05V1558.5H151.841V1551.05H159.297ZM246.189 1551.05H253.645V1558.5H246.189V1551.05ZM246.189 797V789.544H253.645V797H246.189ZM-195.636 951.639H-188.18V1026.75H-195.636H-203.092V951.639H-195.636ZM-195.636 1026.75L-189.333 1022.77L142.036 1547.06L135.733 1551.05L129.43 1555.03L-201.938 1030.73L-195.636 1026.75ZM135.733 1551.05V1543.59H190.225V1551.05V1558.5H135.733V1551.05ZM190.225 1551.05H182.769V1434.7H190.225H197.681V1551.05H190.225ZM190.225 1434.7V1442.16H153.406V1434.7V1427.24H190.225V1434.7ZM153.406 1434.7L147.103 1438.68L-103.264 1042.51L-96.9614 1038.53L-90.6585 1034.55L159.709 1430.72L153.406 1434.7ZM-96.9614 1038.53H-104.418V1032.64H-96.9614H-89.5053V1038.53H-96.9614ZM-96.9614 1032.64V1025.18H349.282V1032.64V1040.1H-96.9614V1032.64ZM349.282 1032.64H341.826V951.639H349.282H356.738V1032.64H349.282ZM349.282 951.639V959.095H-195.636V951.639V944.183H349.282V951.639ZM159.297 797H166.753V974.466H159.297H151.841V797H159.297ZM159.297 974.466H166.753V1009.44H159.297H151.841V974.466H159.297ZM159.297 1009.44H166.753V1551.05H159.297H151.841V1009.44H159.297ZM159.297 1551.05V1543.59H246.189V1551.05V1558.5H159.297V1551.05ZM246.189 1551.05H238.733V797H246.189H253.645V1551.05H246.189ZM246.189 797V804.456H159.297V797V789.544H246.189V797ZM529.248 831.978L524.663 826.098L524.674 826.089L524.686 826.08L529.248 831.978ZM439.778 964.157L432.754 961.657L432.757 961.647L439.778 964.157ZM439.778 1382.79L432.763 1385.31L432.76 1385.3L432.757 1385.3L439.778 1382.79ZM529.616 1515.33L534.201 1509.45L534.206 1509.46L529.616 1515.33ZM812.016 1515.33L807.408 1509.47L807.428 1509.46L807.448 1509.44L812.016 1515.33ZM901.854 1382.79L894.829 1380.29L894.835 1380.27L894.842 1380.25L901.854 1382.79ZM902.222 964.157L909.243 961.647L909.246 961.657L902.222 964.157ZM812.752 831.978L817.314 826.08L817.326 826.089L817.337 826.098L812.752 831.978ZM799.129 947.22L792.663 950.933V950.933L799.129 947.22ZM823.798 1340.81L816.655 1338.67L816.66 1338.66L816.666 1338.64L823.798 1340.81ZM764.151 1445.75L759.064 1440.3L759.077 1440.28L759.09 1440.27L764.151 1445.75ZM543.239 1401.2L549.707 1397.49L549.711 1397.49L549.715 1397.5L543.239 1401.2ZM517.834 1007.6L510.695 1005.45V1005.45L517.834 1007.6ZM577.112 903.406L572.053 897.929L572.066 897.917L572.079 897.906L577.112 903.406ZM671 786.691V794.147C616.962 794.147 571.371 808.819 533.81 837.875L529.248 831.978L524.686 826.08C565.181 794.754 614.091 779.235 671 779.235V786.691ZM529.248 831.978L533.833 837.857C496.159 867.239 467.055 909.999 446.799 966.667L439.778 964.157L432.757 961.647C453.739 902.95 484.281 857.591 524.663 826.098L529.248 831.978ZM439.778 964.157L446.803 966.657C426.547 1023.57 416.307 1092.63 416.307 1174.02H408.851H401.395C401.395 1091.46 411.772 1020.61 432.754 961.657L439.778 964.157ZM408.851 1174.02H416.307C416.307 1254.93 426.546 1323.62 446.799 1380.28L439.778 1382.79L432.757 1385.3C411.773 1326.59 401.395 1256.11 401.395 1174.02H408.851ZM439.778 1382.79L446.793 1380.26C467.296 1437.19 496.526 1480.07 534.201 1509.45L529.616 1515.33L525.031 1521.21C484.65 1489.72 453.988 1444.24 432.763 1385.31L439.778 1382.79ZM529.616 1515.33L534.206 1509.46C572.032 1539.01 617.499 1553.9 671 1553.9V1561.36V1568.81C614.536 1568.81 565.747 1553.02 525.026 1521.21L529.616 1515.33ZM671 1561.36V1553.9C724.502 1553.9 769.836 1539.01 807.408 1509.47L812.016 1515.33L816.624 1521.2C776.14 1553.02 727.464 1568.81 671 1568.81V1561.36ZM812.016 1515.33L807.448 1509.44C845.354 1480.06 874.575 1437.19 894.829 1380.29L901.854 1382.79L908.878 1385.29C887.895 1444.24 857.224 1489.73 816.583 1521.23L812.016 1515.33ZM901.854 1382.79L894.842 1380.25C915.333 1323.6 925.693 1254.92 925.693 1174.02H933.149H940.605C940.605 1256.11 930.102 1326.61 908.865 1385.32L901.854 1382.79ZM933.149 1174.02H925.693C925.693 1092.63 915.453 1023.57 895.197 966.657L902.222 964.157L909.246 961.657C930.228 1020.61 940.605 1091.46 940.605 1174.02H933.149ZM902.222 964.157L895.201 966.667C874.945 909.999 845.841 867.239 808.167 837.857L812.752 831.978L817.337 826.098C857.719 857.591 888.261 902.95 909.243 961.647L902.222 964.157ZM812.752 831.978L808.19 837.875C770.629 808.819 725.038 794.147 671 794.147V786.691V779.235C727.909 779.235 776.819 794.754 817.314 826.08L812.752 831.978ZM671 867.692V860.236C728.996 860.236 774.009 888.487 805.596 943.508L799.129 947.22L792.663 950.933C763.376 899.916 722.969 875.148 671 875.148V867.692ZM799.129 947.22L805.596 943.508C836.961 998.145 852.241 1075.25 852.241 1174.02H844.784H837.328C837.328 1076.43 822.171 1002.33 792.663 950.933L799.129 947.22ZM844.784 1174.02H852.241C852.241 1239.81 845.198 1296.18 830.93 1342.99L823.798 1340.81L816.666 1338.64C830.38 1293.64 837.328 1238.83 837.328 1174.02H844.784ZM823.798 1340.81L830.941 1342.95C816.942 1389.7 796.498 1426 769.213 1451.22L764.151 1445.75L759.09 1440.27C783.842 1417.39 803.162 1383.73 816.655 1338.67L823.798 1340.81ZM764.151 1445.75L769.239 1451.2C742.039 1476.58 709.153 1489.28 671 1489.28V1481.83V1474.37C705.503 1474.37 734.717 1463.02 759.064 1440.3L764.151 1445.75ZM671 1481.83V1489.28C613.421 1489.28 568.556 1460.59 536.763 1404.89L543.239 1401.2L549.715 1397.5C579.287 1449.31 619.596 1474.37 671 1474.37V1481.83ZM543.239 1401.2L536.771 1404.9C505.167 1349.79 489.76 1272.57 489.76 1174.02H497.216H504.672C504.672 1271.35 519.946 1345.58 549.707 1397.49L543.239 1401.2ZM497.216 1174.02H489.76C489.76 1108.25 496.678 1052.01 510.695 1005.45L517.834 1007.6L524.974 1009.75C511.499 1054.51 504.672 1109.21 504.672 1174.02H497.216ZM517.834 1007.6L510.695 1005.45C524.692 958.964 545.012 922.91 572.053 897.929L577.112 903.406L582.172 908.883C557.667 931.521 538.468 964.932 524.974 1009.75L517.834 1007.6ZM577.112 903.406L572.079 897.906C599.527 872.788 632.639 860.236 671 860.236V867.692V875.148C636.214 875.148 606.735 886.406 582.146 908.907L577.112 903.406ZM993.179 951.639H985.723V944.183H993.179V951.639ZM993.179 1026.75L986.876 1030.73L985.723 1028.91V1026.75H993.179ZM1324.55 1551.05V1558.5H1320.44L1318.24 1555.03L1324.55 1551.05ZM1379.04 1551.05H1386.5V1558.5H1379.04V1551.05ZM1379.04 1434.7V1427.24H1386.5V1434.7H1379.04ZM1342.22 1434.7V1442.16H1338.11L1335.92 1438.68L1342.22 1434.7ZM1091.85 1038.53L1085.55 1042.51L1084.4 1040.69V1038.53H1091.85ZM1091.85 1032.64H1084.4V1025.18H1091.85V1032.64ZM1538.1 1032.64H1545.55V1040.1H1538.1V1032.64ZM1538.1 951.639V944.183H1545.55V951.639H1538.1ZM1348.11 797H1340.66V789.544H1348.11V797ZM1348.11 1551.05V1558.5H1340.66V1551.05H1348.11ZM1435 1551.05H1442.46V1558.5H1435V1551.05ZM1435 797V789.544H1442.46V797H1435ZM993.179 951.639H1000.63V1026.75H993.179H985.723V951.639H993.179ZM993.179 1026.75L999.481 1022.77L1330.85 1547.06L1324.55 1551.05L1318.24 1555.03L986.876 1030.73L993.179 1026.75ZM1324.55 1551.05V1543.59H1379.04V1551.05V1558.5H1324.55V1551.05ZM1379.04 1551.05H1371.58V1434.7H1379.04H1386.5V1551.05H1379.04ZM1379.04 1434.7V1442.16H1342.22V1434.7V1427.24H1379.04V1434.7ZM1342.22 1434.7L1335.92 1438.68L1085.55 1042.51L1091.85 1038.53L1098.16 1034.55L1348.52 1430.72L1342.22 1434.7ZM1091.85 1038.53H1084.4V1032.64H1091.85H1099.31V1038.53H1091.85ZM1091.85 1032.64V1025.18H1538.1V1032.64V1040.1H1091.85V1032.64ZM1538.1 1032.64H1530.64V951.639H1538.1H1545.55V1032.64H1538.1ZM1538.1 951.639V959.095H993.179V951.639V944.183H1538.1V951.639ZM1348.11 797H1355.57V974.466H1348.11H1340.66V797H1348.11ZM1348.11 974.466H1355.57V1009.44H1348.11H1340.66V974.466H1348.11ZM1348.11 1009.44H1355.57V1551.05H1348.11H1340.66V1009.44H1348.11ZM1348.11 1551.05V1543.59H1435V1551.05V1558.5H1348.11V1551.05ZM1435 1551.05H1427.55V797H1435H1442.46V1551.05H1435ZM1435 797V804.456H1348.11V797V789.544H1435V797Z" fill="#373737" mask="url(#path-3-outside-2_250_721)"/>
</g>
<defs>
<filter id="filter0_df_250_721" x="-263.783" y="-49.5062" width="1870.03" height="910.964" filterUnits="userSpaceOnUse" color-interpolation-filters="sRGB">
<feFlood flood-opacity="0" result="BackgroundImageFix"/>
<feColorMatrix in="SourceAlpha" type="matrix" values="0 0 0 0 0 0 0 0 0 0 0 0 0 0 0 0 0 0 127 0" result="hardAlpha"/>
<feOffset dy="5.96488"/>
<feGaussianBlur stdDeviation="2.98244"/>
<feComposite in2="hardAlpha" operator="out"/>
<feColorMatrix type="matrix" values="0 0 0 0 0 0 0 0 0 0 0 0 0 0 0 0 0 0 0.25 0"/>
<feBlend mode="normal" in2="BackgroundImageFix" result="effect1_dropShadow_250_721"/>
<feBlend mode="normal" in="SourceGraphic" in2="effect1_dropShadow_250_721" result="shape"/>
<feGaussianBlur stdDeviation="30.3463" result="effect2_foregroundBlur_250_721"/>
</filter>
<filter id="filter1_df_250_721" x="-263.783" y="718.542" width="1870.03" height="910.964" filterUnits="userSpaceOnUse" color-interpolation-filters="sRGB">
<feFlood flood-opacity="0" result="BackgroundImageFix"/>
<feColorMatrix in="SourceAlpha" type="matrix" values="0 0 0 0 0 0 0 0 0 0 0 0 0 0 0 0 0 0 127 0" result="hardAlpha"/>
<feOffset dy="5.96488"/>
<feGaussianBlur stdDeviation="2.98244"/>
<feComposite in2="hardAlpha" operator="out"/>
<feColorMatrix type="matrix" values="0 0 0 0 0 0 0 0 0 0 0 0 0 0 0 0 0 0 0.25 0"/>
<feBlend mode="normal" in2="BackgroundImageFix" result="effect1_dropShadow_250_721"/>
<feBlend mode="normal" in="SourceGraphic" in2="effect1_dropShadow_250_721" result="shape"/>
<feGaussianBlur stdDeviation="30.3463" result="effect2_foregroundBlur_250_721"/>
</filter>
</defs>
</svg>
