<svg width="164" height="315" viewBox="0 0 164 315" fill="none" xmlns="http://www.w3.org/2000/svg">
<path fill-rule="evenodd" clip-rule="evenodd" d="M122.626 11.9061C119.355 23.063 117.593 34.0844 117.173 46.0131C117.078 48.6976 116.098 57.0027 114.994 64.469C113.132 77.047 112.252 84.688 107.626 128.431C106.697 137.217 105.619 153.739 105.229 165.147L104.522 185.888L93.5064 186.984C87.4471 187.587 80.8815 186.971 78.9181 185.613C76.955 184.256 71.3165 182.777 66.3903 182.329C61.4639 181.878 56.5296 180.353 55.4255 178.94C54.3216 177.53 50.6458 175.223 47.2564 173.819C43.8668 172.413 37.2118 168.326 32.4645 164.737L23.8379 158.212L24.3745 139.533C25.3417 105.87 29.8553 66.4332 33.9939 55.506C35.3087 52.0314 36.261 47.9605 36.1116 46.4603C35.9595 44.958 37.8758 42.9555 40.3679 42.0072C45.8419 39.928 45.3968 27.38 39.7091 23.4349C30.5004 17.0435 18.4709 30.1299 19.6701 45.2365C19.954 48.8074 19.2071 52.5028 18.011 53.4486C16.8149 54.3945 16.2403 58.9846 16.7342 63.6484C17.2284 68.3146 16.4734 80.6366 15.0593 91.0301C13.6432 101.426 12.3455 114.323 12.1762 119.689C11.0562 155.16 10.8399 156.366 4.93818 159.903C0.200245 162.746 -0.267121 165.098 0.281963 183.279C0.61809 194.398 0.854003 213.896 0.807227 226.607C0.708291 253.024 -0.722647 305.034 0.47632 310.593C1.43391 315.029 10.7996 315.444 14.2024 311.201C16.7652 308.007 18.272 297.122 19.8474 270.431C20.4057 260.961 21.6966 245.975 22.7171 237.128C23.7354 228.282 21.6211 215.416 21.6829 208.722C21.7447 202.029 22.4522 195.669 23.2573 194.592C24.9516 192.32 41.2366 198.452 49.0839 204.318C55.3543 209.003 87.1333 215.604 98.1124 214.5L105.692 213.738L107.482 240.393C107.786 258.483 103.03 270.199 103.059 289.706C98.4308 294.142 97.4448 297.009 98.1406 304.013C99.3696 316.395 107.009 316.853 121.482 305.412C121.469 297.269 125.786 280.092 121.443 279.546C117.099 279 119.881 260.021 119.352 246.273C118.609 226.961 119.45 208.965 125.219 207.355C139.142 203.469 146.792 199.194 148.814 194.165C150.842 189.124 150.763 169.838 148.511 118.283C148.103 108.96 147.868 96.9461 147.988 91.5841C148.49 69.2364 162.2 77.6606 163.023 55.8758C164.01 29.7698 142.34 0.21688 132.249 0.00506451C126.97 -0.106745 125.682 1.48538 122.626 11.9061ZM132.564 66.8232C131.942 74.6598 131.912 90.8735 132.5 102.853C133.233 117.784 132.557 126.071 130.351 129.209C128.01 132.538 127.947 133.704 130.123 133.488C132.341 133.267 133.048 136.18 132.861 144.766C132.107 179.35 131.348 182.003 121.954 182.938C116.364 183.494 116.195 183.124 116.36 170.727C116.751 141.107 117.091 137.216 119.318 136.995C120.606 136.866 120.814 134.472 119.782 131.671C117.795 126.281 119.951 105.045 122.75 102.456C123.66 101.614 123.976 98.2997 123.45 95.0909C122.927 91.8819 123.369 86.089 124.434 82.2184C125.5 78.3479 126.086 72.4896 125.738 69.1999C124.991 62.1488 130.66 45.7947 132.461 49.8104C133.141 51.3308 133.188 58.9865 132.564 66.8232Z" fill="white" fill-opacity="0.1"/>
</svg>
