<svg width="145" height="321" viewBox="0 0 145 321" fill="none" xmlns="http://www.w3.org/2000/svg">
<path fill-rule="evenodd" clip-rule="evenodd" d="M109.93 11.9922C106.898 23.4117 105.171 34.7458 104.585 47.067C104.453 49.8398 103.451 58.3932 102.358 66.0745C100.516 79.0148 99.6128 86.885 94.8016 131.955C93.8352 141.008 92.5951 158.056 92.0451 169.839L91.0467 191.264L71.8883 194.148C66.6659 194.746 57.673 183.107 55.8045 182.093C53.9364 181.081 59.5258 179.41 55.2593 179.623C50.9921 179.833 49.1319 178.915 48.1019 177.638C47.0723 176.363 43.7769 174.364 40.7785 173.2C37.7798 172.035 31.8184 168.499 27.5284 165.344L19.7326 159.607L19.1545 142.017C18.1129 110.316 19.8052 73.0222 22.7623 62.5551C23.7016 59.2268 24.2953 55.3547 24.083 53.9509C23.8683 52.5451 25.4078 50.5734 27.5021 49.5663C32.1025 47.3579 31.0201 35.5788 25.9 32.132C17.6101 26.5476 7.97482 39.4101 9.84935 53.5605C10.2928 56.9053 9.85518 60.4149 8.87734 61.3596C7.8995 62.3044 7.66013 66.6474 8.34542 71.0103C9.03107 75.3754 9.06688 86.9976 8.42744 96.8368C7.78635 106.678 7.38664 118.866 7.53967 123.921C8.55038 157.328 8.43116 158.472 3.54343 162.071C-0.3803 164.963 -0.651968 167.197 0.833781 184.269C1.74268 194.71 3.03187 213.033 3.69954 224.989C5.08567 249.835 6.74963 298.81 8.09227 303.983C9.16432 308.109 17.2566 308.067 19.9521 303.919C21.9821 300.797 22.6741 290.492 22.5448 265.319C22.4984 256.388 22.7759 242.236 23.1624 233.869C23.547 225.503 21.0088 213.503 20.6892 207.205C20.3696 200.908 20.625 194.895 21.2586 193.845C22.5919 191.63 36.964 196.643 44.0516 201.796C49.715 205.911 66.8069 223.384 76.2695 222.288L91.5357 220.108L92.5823 247.739C92.5069 266.458 91.3369 264.267 90.9975 284.442C86.9187 288.861 88.8502 298.396 90.2316 304.963C92.6728 316.572 90.7442 326.795 103.452 315.489C103.594 307.068 107.641 289.46 103.902 288.738C100.163 288.016 102.919 268.489 102.719 254.251C102.44 234.252 103.502 215.671 108.512 214.216C120.604 210.704 127.288 206.56 129.128 201.433C130.973 196.293 131.266 176.345 130.286 122.945C130.109 113.29 130.13 100.856 130.335 95.3154C131.186 72.222 142.864 81.4324 143.982 58.9328C145.322 31.9703 127.168 0.619802 118.461 0.03407C113.905 -0.2734 112.764 1.32637 109.93 11.9922ZM117.482 69.1477C116.799 77.2295 116.47 93.9964 116.753 106.406C117.106 121.875 116.368 130.421 114.405 133.586C112.321 136.943 112.245 138.147 114.128 138.002C116.047 137.854 116.603 140.893 116.281 149.766C114.983 185.504 114.278 188.22 106.151 188.846C101.314 189.218 101.175 188.829 101.55 176.014C102.442 145.396 102.808 141.385 104.735 141.236C105.849 141.151 106.073 138.682 105.235 135.748C103.62 130.101 105.878 108.218 108.343 105.642C109.145 104.804 109.48 101.388 109.086 98.0505C108.694 94.7127 109.184 88.7378 110.176 84.7737C111.168 80.8096 111.784 74.7723 111.545 71.3575C111.032 64.0383 116.232 47.3312 117.712 51.5496C118.27 53.1467 118.168 61.0657 117.482 69.1477Z" fill="white" fill-opacity="0.1"/>
</svg>
