<svg width="188" height="319" viewBox="0 0 188 319" fill="none" xmlns="http://www.w3.org/2000/svg">
<path fill-rule="evenodd" clip-rule="evenodd" d="M157.508 10.9643C152.364 21.9678 148.626 33.0887 145.943 45.3794C145.339 48.1452 142.841 56.5847 140.391 64.1337C136.263 76.8508 133.984 84.6191 121.319 129.161C118.775 138.108 114.603 155.047 112.047 166.803L107.402 188.177L86.4729 188.093C80.7994 187.88 73.1462 174.783 71.3214 173.473C69.4967 172.165 75.7413 171.357 71.1522 170.906C66.5629 170.453 64.7309 169.241 63.845 167.797C62.9592 166.355 59.7761 163.833 56.7704 162.197C53.7648 160.558 47.9932 156.077 43.9418 152.238L36.5801 145.259L38.902 127.492C43.0868 95.4733 51.1238 58.2593 56.0286 48.2012C57.5872 45.0028 58.8678 41.2041 58.8757 39.7603C58.8815 38.3142 60.854 36.5725 63.2574 35.8866C68.5362 34.3838 69.3491 22.3781 64.4605 18.1169C56.546 11.2141 44.1135 22.6394 43.7499 37.1513C43.6644 40.5817 42.6109 44.0404 41.4095 44.8375C40.208 45.6347 39.2269 49.9618 39.2294 54.4529C39.2318 58.9462 37.3282 70.6313 35.0019 80.4192C32.6733 90.2095 30.2105 102.395 29.5293 107.498C25.0264 141.228 24.708 142.358 18.8902 145.214C14.2193 147.51 13.5562 149.712 12.2895 167.099C11.5151 177.733 9.82959 196.347 8.5447 208.466C5.87273 233.651 -0.533971 283.126 0.0347642 288.533C0.48949 292.847 9.13328 294.064 12.7029 290.316C15.3912 287.494 17.8516 277.246 21.9193 251.929C23.3619 242.947 26.0226 228.769 27.8329 220.421C29.6412 212.074 28.9373 199.619 29.6484 193.24C30.3595 186.862 31.6366 180.86 32.4884 179.903C34.2814 177.885 48.7826 185.161 55.4861 191.443C60.8428 196.46 76.1652 216.681 86.4473 217.054L103.105 217.24L99.6051 245.17C96.3971 263.97 95.5144 261.586 91.7815 281.807C86.69 285.612 87.1583 295.495 87.5355 302.309C88.2012 314.356 84.4349 324.329 99.8863 314.947C101.445 306.505 108.706 289.442 104.836 288.134C100.966 286.825 107.171 267.632 109.336 253.293C112.379 233.152 116.617 214.645 122.208 213.963C135.7 212.316 143.526 209.193 146.346 204.328C149.174 199.45 152.819 179.449 160.695 125.634C162.119 115.903 164.22 103.412 165.363 97.8753C170.13 74.8008 181.055 85.8751 186.007 63.4389C191.943 36.5524 177.805 2.22039 168.61 0.275768C163.799 -0.742656 162.314 0.687215 157.508 10.9643ZM156.018 69.5772C153.939 77.5924 150.786 94.3906 149.015 106.906C146.808 122.506 144.592 130.978 141.968 133.853C139.183 136.903 138.901 138.101 140.935 138.248C143.007 138.399 143.093 141.539 141.267 150.405C133.91 186.117 132.705 188.737 123.926 188.1C118.702 187.72 118.619 187.308 121.159 174.489C127.227 143.859 128.288 139.884 130.369 140.036C131.572 140.123 132.225 137.677 131.82 134.598C131.04 128.672 137.107 107.032 140.168 104.828C141.163 104.111 142.091 100.73 142.228 97.3147C142.367 93.8995 143.889 87.9715 145.61 84.1424C147.331 80.3133 148.997 74.3422 149.313 70.8733C149.988 63.4383 158.329 47.4586 159.204 51.9283C159.533 53.6201 158.1 61.5622 156.018 69.5772Z" fill="white" fill-opacity="0.1"/>
</svg>
