<svg width="190" height="277" viewBox="0 0 190 277" fill="none" xmlns="http://www.w3.org/2000/svg">
<path fill-rule="evenodd" clip-rule="evenodd" d="M70.4976 2.76418C64.0107 4.46223 56.3721 7.29319 53.5229 9.05401C46.2351 13.558 36.5963 29.224 33.7001 41.2686C32.2694 47.2234 29.1414 52.6917 26.1802 54.4112C15.1093 60.8435 0.241696 89.2799 0.0704422 104.349C-0.337649 140.097 0.983143 157.311 6.22821 184.664C13.6417 223.322 18.07 234.031 34.9256 254.08C46.8315 268.24 62.0606 275.895 79.4792 276.473C95.7914 277.015 108.688 270.086 127.136 250.865C134.208 243.494 140.497 237.416 141.109 237.355C141.721 237.293 149.913 231.868 159.311 225.296C178.731 211.719 193.614 192.344 188.477 187.327C186.31 185.211 184.519 185.268 182 187.532C180.084 189.251 173.956 194.54 168.381 199.287C158.264 207.9 158.252 207.904 161.474 201.08C182.413 156.777 186.662 134.832 185.156 78.8285C184.686 61.3663 184.08 59.0855 176.001 44.2674C165.236 24.5259 165.372 24.6542 144.154 14.1923C116.149 0.38346 93.1943 -3.17822 70.4976 2.76418ZM118.648 21.9836C123.029 23.4276 133.845 28.2068 142.683 32.6064C164.987 43.703 170.697 53.3082 173.553 84.5207C177.458 127.234 167.665 165.316 142.491 205.301L132.524 221.134L109.962 223.402C87.8661 225.623 87.1524 225.508 75.4696 217.859C60.4509 208.028 47.4197 187.139 43.5699 166.726C42.112 158.988 39.896 152.049 38.6486 151.31C30.0284 146.191 35.4322 183.905 46.2311 204.24C60.103 230.36 73.9916 241.956 96.0265 245.807L107.228 247.767L97.9961 251.959C78.5122 260.809 50.2767 251.278 36.917 231.348C24.1651 212.319 19.2652 196.216 13.8465 155.508L8.83867 117.881L13.8866 101.625C16.6636 92.6861 21.3203 82.173 24.2377 78.2659L29.5388 71.1625L29.0422 81.0683C28.6754 88.3459 29.2919 90.8885 31.3633 90.6514C36.6024 90.0486 38.8411 86.0232 39.3873 76.2175C40.1082 63.2667 43.1637 57.4929 51.6458 53.0475C60.0259 48.6598 61.0202 38.5173 52.8552 40.7309C50.205 41.4494 47.9348 41.0442 47.8129 39.8316C47.5448 37.1646 58.0023 27.8477 65.6759 23.9199C73.2447 20.0447 108.823 18.7448 118.648 21.9836ZM28.7925 105.386C28.2748 107.811 29.0204 110.938 30.4505 112.334C34.1696 115.966 40.0935 111.709 38.686 106.421C37.1187 100.528 29.9923 99.783 28.7925 105.386ZM33.438 127.409C31.7703 131.619 34.8645 133.915 37.3263 130.293C38.703 128.268 38.5938 126.809 36.9953 125.861C35.6846 125.083 34.0842 125.78 33.438 127.409Z" fill="white" fill-opacity="0.19"/>
</svg>
