<svg width="199" height="271" viewBox="0 0 199 271" fill="none" xmlns="http://www.w3.org/2000/svg">
<path fill-rule="evenodd" clip-rule="evenodd" d="M42.8531 9.61397C37.1725 12.6749 30.6803 17.0733 28.4255 19.3872C22.6583 25.3058 17.3289 42.4072 17.4645 54.554C17.5327 60.5591 15.8941 66.476 13.5246 68.7752C4.66657 77.3749 -2.54256 107.834 0.864104 122.265C8.94396 156.5 14.2573 172.649 25.6506 197.611C41.753 232.89 48.4403 242.136 68.9913 257.547C83.5071 268.431 99.5989 272.364 116.068 269.052C131.492 265.951 141.944 256.473 154.692 234.021C159.578 225.412 164.036 218.212 164.596 218.017C165.155 217.823 171.552 210.823 178.808 202.462C193.804 185.186 203.172 163.378 197.168 159.726C194.635 158.186 192.97 158.637 191.144 161.358C189.754 163.425 185.26 169.837 181.156 175.608C173.709 186.078 173.698 186.085 175.105 178.852C184.25 131.891 183.04 109.988 168.369 56.8312C163.795 40.2566 162.687 38.2125 151.604 25.8512C136.837 9.38344 136.995 9.47574 114.623 4.19002C85.0945 -2.78686 62.7281 -1.09674 42.8531 9.61397ZM92.551 17.2899C97.0015 17.6972 108.274 19.8627 117.603 22.1043C141.143 27.7556 148.771 35.6631 158.837 64.842C172.611 104.773 172.443 143.319 158.304 187.095L152.706 204.429L132.087 211.6C111.895 218.622 111.199 218.671 98.4333 213.957C82.0236 207.898 64.86 190.838 56.4179 172.194C53.2191 165.127 49.4986 158.99 48.1539 158.561C38.8595 155.585 52.8542 190.408 67.7936 207.435C86.9841 229.307 102.752 237.301 124.325 236.091L135.292 235.478L127.628 241.53C111.454 254.305 82.7222 251.466 65.4774 235.393C49.0157 220.046 40.6095 205.753 25.8919 168.073L12.2891 133.245L13.1741 116.598C13.6619 107.444 15.5396 96.3698 17.3502 91.9908L20.6392 84.0301L22.5186 93.6017C23.8975 100.634 25.0774 102.926 26.9636 102.24C31.7333 100.502 32.8795 96.1606 31.0705 86.6736C28.6806 74.1438 30.1788 67.9512 37.0798 61.8237C43.8988 55.7737 42.4302 45.8657 35.2982 49.7913C32.9833 51.0654 30.7586 51.182 30.3573 50.0509C29.4746 47.563 37.0746 36.3442 43.34 30.8903C49.5196 25.5099 82.5723 16.3759 92.551 17.2899ZM28.0411 116.884C28.1298 119.315 29.569 122.136 31.2405 123.153C35.5874 125.796 40.1344 120.417 37.5627 115.678C34.6982 110.397 27.8397 111.266 28.0411 116.884ZM37.6104 136.888C37.0432 141.279 40.4881 142.786 41.939 138.781C42.7503 136.541 42.3028 135.172 40.5794 134.621C39.1664 134.169 37.8307 135.189 37.6104 136.888Z" fill="white" fill-opacity="0.19"/>
</svg>
