<svg width="199" height="246" viewBox="0 0 199 246" fill="none" xmlns="http://www.w3.org/2000/svg">
<path fill-rule="evenodd" clip-rule="evenodd" d="M76.3397 2.8264C69.4719 4.44163 61.3707 7.08027 58.3369 8.68896C50.577 12.8039 40.1478 26.8479 36.8887 37.5685C35.2787 42.8686 31.8876 47.7668 28.7364 49.3408C16.9552 55.2287 0.795469 80.6763 0.35746 94.0299C-0.683548 125.708 0.414767 140.936 5.47694 165.081C12.632 199.203 17.1174 208.615 34.5446 226.09C46.8543 238.432 62.7785 244.954 81.1318 245.168C98.3195 245.369 112.033 239.011 131.81 221.666C139.392 215.015 146.126 209.523 146.772 209.458C147.419 209.393 156.148 204.446 166.167 198.463C186.873 186.103 202.894 168.683 197.564 164.326C195.315 162.489 193.427 162.569 190.733 164.618C188.683 166.174 182.132 170.965 176.174 175.266C165.361 183.069 165.348 183.072 168.862 176.972C191.693 137.363 196.548 117.848 195.916 68.2573C195.719 52.7946 195.12 50.7842 186.856 37.794C175.844 20.4877 175.985 20.599 153.795 11.6928C124.507 -0.0628046 100.369 -2.82612 76.3397 2.8264ZM126.773 19.0313C131.367 20.2358 142.688 24.2852 151.93 28.0321C175.254 37.4822 181.11 45.8944 183.587 73.4986C186.974 111.274 175.999 145.18 148.777 181.036L137.999 195.234L114.174 197.628C90.8424 199.973 90.092 199.884 77.9062 193.307C62.241 184.853 48.86 166.57 45.1502 148.55C43.7455 141.719 41.5278 135.61 40.2254 134.976C31.2252 130.589 36.2777 163.909 47.3148 181.74C61.4927 204.645 75.9365 214.681 99.1005 217.717L110.876 219.262L101.072 223.133C80.38 231.307 50.7761 223.345 37.0325 205.916C23.9141 189.275 19.0236 175.093 14.0065 139.119L9.37 105.869L14.9694 91.3806C18.0497 83.4134 23.1387 74.0196 26.2811 70.5083L31.9909 64.1244L31.2982 72.909C30.7872 79.363 31.3937 81.605 33.5815 81.3596C39.115 80.736 41.5438 77.1315 42.2872 68.4347C43.2685 56.9485 46.5883 51.7809 55.6064 47.6976C64.5159 43.667 65.7375 34.6642 57.0918 36.7649C54.2856 37.4467 51.8992 37.1264 51.7914 36.0543C51.5544 33.696 62.7381 25.2629 70.895 21.6519C78.9405 18.0893 116.471 16.3298 126.773 19.0313ZM30.6195 94.4579C30.0323 96.6155 30.7649 99.3725 32.2486 100.585C36.1074 103.739 42.4253 99.8669 41.0318 95.2056C39.4802 90.0117 31.98 89.4733 30.6195 94.4579ZM35.1407 113.89C33.3106 117.648 36.5333 119.63 39.1905 116.379C40.6764 114.561 40.5863 113.271 38.9173 112.458C37.5488 111.791 35.8497 112.436 35.1407 113.89Z" fill="white" fill-opacity="0.19"/>
</svg>
