<svg width="880" height="648" viewBox="0 0 880 648" fill="none" xmlns="http://www.w3.org/2000/svg">
<g filter="url(#filter0_d_250_692)">
<rect x="101.846" y="96.7534" width="676" height="444.301" fill="white"/>
</g>
<rect x="148.312" y="136.855" width="583.066" height="362.825" stroke="black" stroke-width="1.27307"/>
<rect x="142.846" y="130.753" width="10" height="10" fill="black"/>
<rect x="726.846" y="130.753" width="10" height="10" fill="black"/>
<rect x="726.846" y="495.753" width="10" height="10" fill="black"/>
<rect x="142.846" y="495.753" width="10" height="10" fill="black"/>
<path d="M537.266 398.39C537.266 399.31 537.1 400.106 536.768 400.776C536.435 401.447 535.979 401.964 535.4 402.327C534.82 402.691 534.158 402.873 533.414 402.873C532.67 402.873 532.008 402.691 531.428 402.327C530.849 401.964 530.393 401.447 530.06 400.776C529.728 400.106 529.562 399.31 529.562 398.39C529.562 397.469 529.728 396.674 530.06 396.003C530.393 395.333 530.849 394.816 531.428 394.452C532.008 394.089 532.67 393.907 533.414 393.907C534.158 393.907 534.82 394.089 535.4 394.452C535.979 394.816 536.435 395.333 536.768 396.003C537.1 396.674 537.266 397.469 537.266 398.39ZM536.243 398.39C536.243 397.634 536.117 396.996 535.864 396.476C535.614 395.957 535.275 395.563 534.846 395.296C534.42 395.029 533.942 394.895 533.414 394.895C532.885 394.895 532.407 395.029 531.978 395.296C531.552 395.563 531.212 395.957 530.959 396.476C530.709 396.996 530.584 397.634 530.584 398.39C530.584 399.145 530.709 399.783 530.959 400.303C531.212 400.823 531.552 401.216 531.978 401.484C532.407 401.751 532.885 401.884 533.414 401.884C533.942 401.884 534.42 401.751 534.846 401.484C535.275 401.216 535.614 400.823 535.864 400.303C536.117 399.783 536.243 399.145 536.243 398.39ZM538.532 397.145V396.208H543.85V397.145H541.702V402.753H540.697V397.145H538.532ZM545.317 402.753V396.208H550.465V402.753H549.459V397.145H546.323V402.753H545.317ZM552.301 405.208V396.208H553.273V397.248H553.392C553.466 397.134 553.568 396.989 553.699 396.813C553.833 396.634 554.023 396.475 554.27 396.336C554.52 396.194 554.858 396.123 555.284 396.123C555.835 396.123 556.321 396.261 556.742 396.536C557.162 396.812 557.49 397.202 557.726 397.708C557.962 398.214 558.08 398.81 558.08 399.498C558.08 400.191 557.962 400.792 557.726 401.3C557.49 401.806 557.164 402.198 556.746 402.476C556.328 402.752 555.847 402.89 555.301 402.89C554.881 402.89 554.544 402.82 554.291 402.681C554.039 402.539 553.844 402.378 553.708 402.199C553.571 402.018 553.466 401.867 553.392 401.748H553.307V405.208H552.301ZM553.29 399.481C553.29 399.975 553.362 400.411 553.507 400.789C553.652 401.164 553.864 401.458 554.142 401.671C554.421 401.881 554.762 401.986 555.165 401.986C555.585 401.986 555.936 401.876 556.218 401.654C556.502 401.43 556.715 401.128 556.857 400.751C557.002 400.37 557.074 399.947 557.074 399.481C557.074 399.02 557.003 398.606 556.861 398.236C556.722 397.864 556.51 397.57 556.226 397.354C555.945 397.136 555.591 397.026 555.165 397.026C554.756 397.026 554.412 397.13 554.134 397.337C553.855 397.542 553.645 397.829 553.503 398.198C553.361 398.564 553.29 398.992 553.29 399.481ZM561.54 402.907C561.125 402.907 560.749 402.829 560.411 402.672C560.073 402.513 559.804 402.285 559.605 401.986C559.406 401.685 559.307 401.322 559.307 400.895C559.307 400.52 559.381 400.216 559.529 399.984C559.676 399.748 559.874 399.563 560.121 399.43C560.368 399.296 560.641 399.197 560.939 399.131C561.24 399.063 561.543 399.009 561.847 398.969C562.244 398.918 562.567 398.88 562.814 398.854C563.064 398.826 563.246 398.779 563.36 398.714C563.476 398.648 563.534 398.535 563.534 398.373V398.339C563.534 397.918 563.419 397.591 563.189 397.359C562.962 397.126 562.617 397.009 562.154 397.009C561.673 397.009 561.297 397.114 561.024 397.324C560.752 397.535 560.56 397.759 560.449 397.998L559.494 397.657C559.665 397.259 559.892 396.949 560.176 396.728C560.463 396.503 560.776 396.347 561.114 396.259C561.455 396.168 561.79 396.123 562.119 396.123C562.33 396.123 562.571 396.148 562.844 396.199C563.119 396.248 563.385 396.349 563.641 396.502C563.899 396.655 564.114 396.887 564.284 397.197C564.455 397.506 564.54 397.921 564.54 398.441V402.753H563.534V401.867H563.483C563.415 402.009 563.301 402.161 563.142 402.323C562.983 402.485 562.771 402.623 562.507 402.736C562.243 402.85 561.921 402.907 561.54 402.907ZM561.693 402.003C562.091 402.003 562.426 401.925 562.699 401.769C562.975 401.613 563.182 401.411 563.321 401.164C563.463 400.917 563.534 400.657 563.534 400.384V399.464C563.492 399.515 563.398 399.562 563.253 399.604C563.111 399.644 562.946 399.68 562.759 399.711C562.574 399.739 562.394 399.765 562.218 399.788C562.044 399.807 561.904 399.824 561.796 399.839C561.534 399.873 561.29 399.928 561.063 400.005C560.838 400.079 560.656 400.191 560.517 400.341C560.381 400.489 560.313 400.691 560.313 400.947C560.313 401.296 560.442 401.56 560.7 401.739C560.962 401.915 561.293 402.003 561.693 402.003ZM566.376 402.753V396.208H569.052C569.756 396.208 570.316 396.367 570.731 396.685C571.145 397.003 571.353 397.424 571.353 397.947C571.353 398.344 571.235 398.653 570.999 398.871C570.763 399.087 570.461 399.234 570.091 399.31C570.333 399.344 570.567 399.43 570.795 399.566C571.025 399.702 571.215 399.89 571.366 400.128C571.516 400.364 571.591 400.654 571.591 400.998C571.591 401.333 571.506 401.633 571.336 401.897C571.165 402.161 570.921 402.37 570.603 402.523C570.285 402.677 569.904 402.753 569.461 402.753H566.376ZM567.33 401.833H569.461C569.807 401.833 570.079 401.751 570.275 401.586C570.471 401.421 570.569 401.197 570.569 400.913C570.569 400.574 570.471 400.309 570.275 400.116C570.079 399.92 569.807 399.822 569.461 399.822H567.33V401.833ZM567.33 398.952H569.052C569.322 398.952 569.553 398.915 569.746 398.841C569.939 398.765 570.087 398.657 570.189 398.518C570.295 398.376 570.347 398.208 570.347 398.015C570.347 397.739 570.232 397.523 570.002 397.367C569.772 397.208 569.455 397.128 569.052 397.128H567.33V398.952ZM574.119 401.27L577.273 396.208H578.432V402.753H577.426V397.691L574.29 402.753H573.114V396.208H574.119V401.27ZM579.383 397.145V396.208H584.702V397.145H582.554V402.753H581.548V397.145H579.383ZM587.038 398.577H588.913C589.68 398.577 590.267 398.772 590.673 399.161C591.079 399.55 591.282 400.043 591.282 400.64C591.282 401.032 591.191 401.388 591.009 401.709C590.828 402.028 590.561 402.282 590.208 402.472C589.856 402.66 589.424 402.753 588.913 402.753H586.169V396.208H587.174V401.816H588.913C589.311 401.816 589.637 401.711 589.893 401.501C590.149 401.29 590.276 401.02 590.276 400.691C590.276 400.344 590.149 400.062 589.893 399.843C589.637 399.624 589.311 399.515 588.913 399.515H587.038V398.577Z" fill="white"/>
<defs>
<filter id="filter0_d_250_692" x="0.00012207" y="0.000115871" width="879.691" height="647.992" filterUnits="userSpaceOnUse" color-interpolation-filters="sRGB">
<feFlood flood-opacity="0" result="BackgroundImageFix"/>
<feColorMatrix in="SourceAlpha" type="matrix" values="0 0 0 0 0 0 0 0 0 0 0 0 0 0 0 0 0 0 127 0" result="hardAlpha"/>
<feMorphology radius="25.4614" operator="dilate" in="SourceAlpha" result="effect1_dropShadow_250_692"/>
<feOffset dy="5.09228"/>
<feGaussianBlur stdDeviation="38.1921"/>
<feComposite in2="hardAlpha" operator="out"/>
<feColorMatrix type="matrix" values="0 0 0 0 1 0 0 0 0 1 0 0 0 0 1 0 0 0 0.25 0"/>
<feBlend mode="normal" in2="BackgroundImageFix" result="effect1_dropShadow_250_692"/>
<feBlend mode="normal" in="SourceGraphic" in2="effect1_dropShadow_250_692" result="shape"/>
</filter>
</defs>
</svg>
