<svg width="213" height="258" viewBox="0 0 213 258" fill="none" xmlns="http://www.w3.org/2000/svg">
<path fill-rule="evenodd" clip-rule="evenodd" d="M63.3007 0.0333437C61.2514 0.215211 58.0474 1.71409 56.1798 3.36214C52.5535 6.56477 47.0527 17.6653 47.9962 19.8751C48.3075 20.607 47.3482 23.5054 45.8628 26.3171C43.3655 31.0458 43.2922 31.6409 44.8836 34.2445C47.5815 38.6593 46.204 43.4342 40.5609 49.2196C35.5046 54.4033 35.3221 54.9195 34.0539 67.6139C33.3371 74.7972 32.4163 82.6925 32.0105 85.1572C31.1606 90.3154 25.8383 98.978 24.8867 96.7519C24.537 95.9302 23.6246 100.341 22.8603 106.552C21.7691 115.421 20.8148 118.558 18.411 121.167C15.8408 123.957 14.9376 127.316 12.7533 142.207C11.3096 152.058 9.2974 161.261 8.22473 162.93C7.1006 164.678 5.38628 172.849 4.12307 182.477C2.92891 191.576 1.32303 200.244 0.553137 201.737C-0.343523 203.478 -0.14548 206.242 1.10458 209.438C2.17751 212.181 3.49704 218.651 4.03787 223.814C4.57746 228.978 5.51976 233.266 6.13212 233.341C6.74324 233.416 7.0794 234.81 6.87902 236.439C6.27498 241.348 9.52665 245.615 16.5751 249.162C20.2507 251.013 25.3422 253.785 27.8915 255.322C30.6082 256.961 34.8294 257.679 38.0916 257.055C41.1527 256.47 45.0985 256.67 46.8613 257.499C48.6226 258.331 51.9832 257.761 54.3288 256.231C60.7622 252.039 66.61 248.808 68.0455 248.656C71.3465 248.303 77.5148 245.71 80.0616 243.604C84.9426 239.568 96.7506 235.394 98.9062 236.942C100.162 237.842 102.653 236.498 105.247 233.519C107.597 230.822 110.17 228.694 110.963 228.792C111.756 228.889 114.966 227.321 118.097 225.307C124.916 220.919 125.756 220.924 127.253 225.344C127.89 227.221 129.78 228.926 131.456 229.132C133.133 229.338 135.414 230.581 136.527 231.891C137.639 233.201 141.616 235.298 145.365 236.551C152.17 238.821 152.183 238.816 152.901 232.977C153.527 227.894 152.732 226.263 146.823 220.495C141.739 215.534 140.335 213.071 141.253 210.726C141.929 208.999 143.214 202.771 144.111 196.884C145.006 190.996 147.165 181.938 148.909 176.755C150.652 171.571 152.307 165.546 152.585 163.366C152.863 161.187 154.207 156.936 155.57 153.919C156.934 150.903 160.048 142.793 162.489 135.896C164.931 128.999 167.885 121.537 169.055 119.315C170.225 117.094 171.345 113.946 171.545 112.319C171.745 110.693 173.06 106.41 174.467 102.803C175.873 99.1966 178.08 93.2566 179.372 89.6031C180.663 85.9517 182.996 81.4232 184.556 79.5431C186.116 77.6632 187.512 75.1588 187.658 73.975C188.168 69.8242 196.077 58.2412 198.22 58.5048C199.412 58.6515 202.365 60.993 204.784 63.7071C209.431 68.9245 212.328 68.9777 212.958 63.8536C213.362 60.5707 200.513 41.3388 197.683 40.9906C195.279 40.6948 189.941 47.7872 188.345 53.3989C183.984 68.7356 181.832 75.3411 180.419 77.7147C177.557 82.525 161.715 120.183 161.369 122.999C161.183 124.512 158.862 129.962 156.213 135.113C151.551 144.175 148.335 153.301 142.38 174.372C140.816 179.907 139.097 184.804 138.56 185.25C137.568 186.075 123.791 174.519 121.881 171.257C121.305 170.276 119.519 168.582 117.912 167.497C116.305 166.412 114.195 163.925 113.224 161.974C112.252 160.02 107.759 157.179 103.239 155.659C98.7193 154.137 90.839 151.001 85.7264 148.688C80.6137 146.376 76.3854 144.861 76.3288 145.321C76.2725 145.778 75.3372 145.107 74.2503 143.826C73.1633 142.545 67.6866 140.362 62.0791 138.974C56.4713 137.588 50.7097 135.765 49.275 134.923C45.9426 132.969 41.2429 139.453 40.9628 146.391C40.7256 152.26 50.8775 164.479 56.3255 164.879C58.1273 165.011 60.2074 165.948 60.9476 166.959C61.6876 167.973 70.9466 169.801 81.5217 171.028C99.2958 173.086 101.224 173.716 106.997 179.354C110.432 182.707 113.875 185.53 114.649 185.625C115.422 185.72 117.596 188.441 119.481 191.672C121.367 194.903 124.069 197.689 125.485 197.864C130.386 198.467 127.332 203.563 119.591 207.701C106.743 214.569 89.7409 221.818 87.2104 221.507C85.9034 221.346 83.2973 222.142 81.4195 223.277C78.6994 224.918 77.2195 224.516 74.1414 221.297C72.0169 219.075 68.6369 217.374 66.6303 217.518C63.0269 217.777 62.15 218.112 52.8691 222.8C45.3713 226.588 31.0764 225.527 27.2314 220.897C21.1027 213.517 20.1919 209.477 21.3644 194.865L22.4676 181.114L26.6444 180.939C29.8005 180.806 31.0545 179.638 31.7773 176.161C32.4064 173.138 31.9763 171.015 30.5258 169.973C26.9604 167.412 25.9133 158.367 28.4511 152.034C29.6208 149.113 30.7435 145.38 30.9452 143.741C31.1469 142.102 32.3019 138.117 33.5105 134.89C36.1516 127.841 36.467 126.789 37.1791 122.659C37.4832 120.897 38.854 119.593 40.2258 119.762C41.5977 119.931 42.8611 118.924 43.0337 117.521C43.2061 116.12 44.8959 112.81 46.7873 110.166L50.2279 105.355L47.9651 101.201C45.8256 97.2693 45.8473 96.7835 48.3702 92.167C49.8375 89.4817 51.6262 86.7465 52.3445 86.0846C53.0628 85.4227 53.5339 82.9203 53.3896 80.523C53.235 77.9413 53.9771 75.2235 55.2089 73.8549C56.353 72.5824 58.0854 68.1544 59.0582 64.0146C60.0324 59.8728 62.4383 52.8426 64.4065 48.3913C68.5957 38.9156 71.0624 38.5103 77.3298 46.2759C82.3403 52.4845 85.7738 51.0857 87.5164 42.1291C88.3789 37.6922 87.6248 35.1983 83.4711 28.7658C80.6627 24.4159 77.3049 20.1881 76.0081 19.3677C74.3412 18.3142 73.8684 16.0248 74.3916 11.5353C74.9844 6.45016 74.5387 4.96896 72.145 4.0703C70.5016 3.4537 68.6783 2.21957 68.0921 1.3252C67.5055 0.432973 65.3488 -0.148677 63.3007 0.0333437Z" fill="white" fill-opacity="0.1"/>
</svg>
