<svg width="145" height="318" viewBox="0 0 145 318" fill="none" xmlns="http://www.w3.org/2000/svg">
<path fill-rule="evenodd" clip-rule="evenodd" d="M58.6674 7.20769C53.4725 18.2277 47.6737 39.6788 44.2195 60.6696C42.6808 70.0182 40.8661 73.9124 35.391 79.625C26.2445 89.1692 21.3898 95.8664 18.3774 103.09C10.7189 121.454 5.81195 135.15 5.99243 137.647C6.10535 139.206 5.01023 145.733 3.55764 152.151C-2.03684 176.865 -1.0032 209.686 6.45131 244.157C9.43856 257.97 12.6626 270.066 13.6188 271.038C14.5732 272.012 16.3307 276.564 17.5232 281.155C24.6509 308.588 48.3287 324.514 67.0427 314.463C76.4828 309.393 76.8119 304.525 70.4669 263.915C63.2594 217.793 61.6903 202.918 63.5562 198.396C64.5602 195.962 64.3613 194.419 62.9601 193.736C60.5422 192.557 59.1509 174.32 61.21 170.812C62.0032 169.461 61.6975 168.03 60.4905 167.441C59.3357 166.88 58.1899 164.417 57.944 161.971C57.5235 157.788 57.9056 157.593 64.3414 158.692C74.6547 160.454 79.1246 157.846 77.1003 151.246C75.5828 146.299 75.8841 145.85 81.0646 145.329C84.1476 145.019 86.5835 143.897 86.4767 142.834C86.3701 141.773 88.5254 139.79 91.2686 138.429C101.498 133.352 120.363 120.149 120.168 118.203C120.083 117.36 120.824 116.587 121.815 116.488C123.483 116.32 131.481 110.327 140.923 102.17C146.24 97.575 145.21 90.3613 138.034 81.9495C132.231 75.1452 112.751 63.0687 102.33 59.8124C93.4348 57.0326 77.3624 57.5325 66.8578 60.9125C61.472 62.6473 56.5925 63.6803 56.0157 63.2072C53.8527 61.4392 59.2335 37.3082 64.0851 27.0194C68.8771 16.8584 69.5181 16.2856 77.1873 15.3187C84.5033 14.3988 88.3812 11.4488 88.0307 7.07166C87.7899 4.08831 74.6619 -0.582536 68.3192 0.0587868C62.8942 0.607867 61.181 1.87648 58.6674 7.20769ZM87.557 75.1014C98.9705 76.8818 108.622 80.9426 120.436 88.9378L127.67 93.8317L121.869 99.8228C107.113 115.057 98.7313 121.319 80.2813 130.89C57.1943 142.867 56.7045 142.823 53.9464 128.544C52.7056 122.126 51.6182 113.883 51.5287 110.228C51.4392 106.572 51.079 99.1429 50.7299 93.7188C49.9382 81.4674 53.3383 78.6701 74.8611 73.8572C75.9259 73.6188 81.6395 74.179 87.557 75.1014ZM42.5009 116.37C43.2488 129.644 48.3109 174.534 53.7457 216.126C59.1826 257.719 63.2624 293.499 62.8131 295.638C61.0037 304.245 43.0476 299.204 35.6978 288.027C24.1753 270.504 18.2354 252.806 10.9173 214.2C7.947 198.53 10.0295 151.961 13.9718 145.921C14.8989 144.501 15.9874 140.369 16.3917 136.74C17.536 126.442 35.2655 92.8271 39.792 92.3721C40.5326 92.2977 41.753 103.096 42.5009 116.37Z" fill="white" fill-opacity="0.19"/>
</svg>
