<svg width="167" height="272" viewBox="0 0 167 272" fill="none" xmlns="http://www.w3.org/2000/svg">
<path fill-rule="evenodd" clip-rule="evenodd" d="M138.088 2.73926C130.47 -0.0550473 119.432 -0.61596 102.57 0.931233C94.2127 1.69676 83.0436 -0.947493 76.4994 0.380411C27.5557 10.3129 4.13281 72.7026 1.48807 143.231C-1.15666 213.759 0.203329 180.375 1.8765 214.254C-1.03807 266.792 2.90554 254.048 15.9242 266.553C20.7064 271.149 33.1092 272.746 45.5897 270.378C58.0525 268.012 84.4326 256.818 108.459 243.701C123.357 235.569 138.202 227.579 141.45 225.948C148.647 222.334 151.172 212.997 146.292 208.049C141.999 203.693 133.168 204.368 119.885 210.06C108.204 215.067 83.815 215.4 60.983 210.865C50.9847 208.88 44.9824 206.086 36.6628 199.55C26.3178 191.418 25.7691 190.495 27.989 184.911C31.9949 174.842 20.4841 150.924 20.4841 150.924C20.4841 150.924 19.1843 150.712 22.1198 133.862C20.5754 131.283 29.5506 91.2101 41.7052 69.3669C53.8597 47.5237 54.3203 20.945 68.8975 18.3167C81.6067 16.026 111.919 23.4594 119.531 37.8245C127.845 53.5142 135.169 60.7515 138.236 56.3098C141.355 51.7942 140.586 43.4002 136.396 36.189C124.336 15.4417 107.052 21.7784 102.819 17.1803C98.0801 12.0294 98.2912 11.9795 113.049 14.8217C127.874 17.6754 144.44 27.7357 143.56 33.3496C143.353 34.6845 145.149 38.8587 147.559 42.6231C149.966 46.3893 153.138 53.0671 154.608 57.4629C157.098 64.9109 157.561 65.3568 161.424 64.0023C167.619 61.8309 168.086 57.3307 163.954 39.6267C160.889 26.4979 158.714 21.8404 152.09 14.2269C147.63 9.09676 141.327 3.92812 138.088 2.73926ZM23.141 210.428C23.8899 211.763 28.7113 215.832 33.8528 219.474C41.321 224.763 47.3237 226.784 63.6919 229.528C88.5287 233.688 92.1256 236.302 79.5851 241.072C58.6132 249.048 50.4886 251.014 38.5296 251.006C18.5571 250.993 12.953 242.896 15.7838 218.151C17.043 207.145 19.7201 204.336 23.141 210.428Z" fill="white" fill-opacity="0.1"/>
</svg>
