<svg width="208" height="269" viewBox="0 0 208 269" fill="none" xmlns="http://www.w3.org/2000/svg">
<path fill-rule="evenodd" clip-rule="evenodd" d="M161.468 1.40874C160.543 2.25616 159.467 6.11803 159.076 9.99161C158.443 16.2936 158.89 17.5181 163.322 21.6211C166.702 24.7513 169.956 30.9411 173.565 41.1069C180.301 60.0826 183.276 83.6211 182.864 114.686C182.697 127.28 182.781 138.239 183.05 139.038C183.319 139.836 183.204 154.127 182.795 170.797L182.052 201.106L175.686 202.44C172.185 203.173 168.258 203.497 166.956 203.161C165.656 202.825 163.828 203.46 162.891 204.574C161.956 205.689 154.575 208.33 146.49 210.444C138.406 212.556 131.161 214.992 130.393 215.853C128.543 217.931 108.054 221.744 99.7029 221.564C93.6201 221.434 93.081 221.009 92.9032 216.183C92.797 213.301 92.2792 210.146 91.7516 209.173C91.2239 208.2 92.1996 203.538 93.9188 198.813C96.7773 190.964 98.328 182.332 101.627 155.914C102.27 150.765 103.909 141.718 105.27 135.808C107.527 126.003 108.114 125.027 111.992 124.619C115.49 124.254 116.359 123.186 116.917 118.571C117.456 114.123 116.809 112.261 113.777 109.529C105.986 102.512 102.675 106.73 99.6178 127.569C92.9382 173.086 91.2602 182.421 88.2899 190.564C86.4905 195.498 83.6452 200.429 81.968 201.519C78.5 203.777 74.9288 213.679 75.8527 218.473C76.2385 220.481 78.3309 221.868 81.4476 222.184C84.8131 222.524 83.405 223.156 77.0975 224.136C71.9679 224.932 60.2542 227.212 51.0669 229.207C33.6172 232.99 20.3878 234.69 20.4617 233.137C20.4855 232.636 21.8929 227.044 23.5896 220.709C27.1309 207.487 28.2034 199.762 33.7632 147.453C34.9812 136.002 36.7813 121.963 37.7644 116.255C38.7475 110.548 40.5989 99.5723 41.8795 91.8635C43.1589 84.1547 44.6244 77.8693 45.1364 77.8937C45.6484 77.918 46.642 74.4351 47.3444 70.1516C49.6856 55.8871 61.0626 33.2198 64.7173 35.5428C67.0742 37.0423 70.936 33.2878 70.3208 30.0967C70.0111 28.4895 70.4205 26.5838 71.2325 25.8629C72.0431 25.1418 72.9038 20.4222 73.144 15.3738C73.5644 6.5381 73.4116 6.13742 69.0275 4.60632C63.1995 2.56918 55.1449 4.52123 54.9789 8.01C54.8339 11.0582 47.1298 21.4893 45.0964 21.3926C44.3641 21.3577 43.6559 23.6217 43.5225 26.4256C43.3891 29.2296 42.7456 31.9967 42.0923 32.5788C41.4379 33.1586 40.3162 37.9998 39.5969 43.333C38.8775 48.6683 36.0434 62.7021 33.2988 74.5222C30.5542 86.3422 28.1469 99.4129 27.9491 103.57C27.7319 108.136 26.6944 112.067 25.3246 113.506C23.551 115.37 23.325 116.811 24.2786 120.146C25.1245 123.103 24.8905 128.799 23.5124 138.777C22.4209 146.681 20.9273 160.116 20.193 168.629C18.1541 192.272 13.6361 216.377 10.2694 221.563C9.58156 222.623 8.93895 225.149 8.84239 227.179C8.74593 229.206 6.67601 233.768 4.24291 237.318C0.303504 243.063 -0.156929 244.79 0.0378707 253.065C0.158354 258.177 0.820595 263.354 1.50879 264.567C3.44525 267.98 14.5298 269.805 18.2531 267.324C27.5229 261.149 36.9499 257.536 45.3244 256.949C48.3325 256.738 51.3824 256.042 52.1018 255.402C52.82 254.763 59.9616 253.039 67.9707 251.571C75.9797 250.102 84.7158 248.251 87.3841 247.457C90.1542 246.635 93.1526 246.91 94.3698 248.093C96.4768 250.146 110.466 246.664 131.28 238.905C136.093 237.113 143.663 234.368 148.101 232.809C152.54 231.247 158.899 228.934 162.233 227.666C170.947 224.347 180.27 222.395 191.306 221.579C199.559 220.967 201.36 220.121 203.818 215.716C207.161 209.725 208.115 198.163 205.572 194.472C204.491 192.904 202.019 192.355 199.178 193.053C196.413 193.733 194.241 193.282 193.786 191.934C192.612 188.449 192.179 157.864 192.882 128.106C193.231 113.317 193.214 100.682 192.843 100.028C192.472 99.3741 192.284 96.4062 192.425 93.4311C192.872 84.0358 188.094 50.7041 184.262 36.4891C182.234 28.9703 177.811 17.6964 174.43 11.4336C168.577 0.594002 165.21 -2.01035 161.468 1.40874Z" fill="white" fill-opacity="0.1"/>
</svg>
