<svg width="1120" height="389" viewBox="0 0 1120 389" fill="none" xmlns="http://www.w3.org/2000/svg">
<path fill-rule="evenodd" clip-rule="evenodd" d="M1086.47 80.1191C1081.33 91.1226 1077.59 102.243 1074.91 114.534C1074.3 117.3 1071.81 125.739 1069.36 133.288C1065.23 146.006 1062.95 153.774 1050.28 198.316C1047.74 207.263 1043.57 224.202 1041.01 235.958L1036.37 257.332L1015.44 257.248C1009.76 257.035 1002.11 243.938 1000.29 242.628C998.462 241.32 1004.71 240.512 1000.12 240.061C995.528 239.607 993.696 238.395 992.81 236.952C991.924 235.51 988.741 232.988 985.735 231.352C982.73 229.713 976.958 225.232 972.907 221.393L965.545 214.414L967.867 196.647C972.052 164.628 980.089 127.414 984.993 117.356C986.552 114.158 987.833 110.359 987.841 108.915C987.846 107.469 989.819 105.727 992.222 105.041C997.501 103.539 998.314 91.5329 993.425 87.2717C985.511 80.3689 973.078 91.7942 972.715 106.306C972.629 109.736 971.576 113.195 970.374 113.992C969.173 114.789 968.192 119.117 968.194 123.608C968.197 128.101 966.293 139.786 963.967 149.574C961.638 159.364 959.175 171.549 958.494 176.653C953.991 210.382 953.673 211.513 947.855 214.369C943.184 216.664 942.521 218.866 941.254 236.254C940.48 246.888 938.794 265.502 937.51 277.62C934.838 302.805 928.431 352.281 929 357.688C929.454 362.001 938.098 363.219 941.668 359.471C944.356 356.649 946.816 346.401 950.884 321.084C952.327 312.102 954.987 297.923 956.798 289.576C958.606 281.228 957.902 268.773 958.613 262.395C959.324 256.017 960.601 250.014 961.453 249.058C963.246 247.039 977.747 254.316 984.451 260.598C989.808 265.615 1005.13 285.835 1015.41 286.209L1032.07 286.395L1028.57 314.325C1025.36 333.124 1024.48 330.74 1020.75 350.962C1015.65 354.767 1016.12 364.65 1016.5 371.464C1017.17 383.511 1013.4 393.484 1028.85 384.101C1030.41 375.66 1037.67 358.597 1033.8 357.288C1029.93 355.98 1036.14 336.787 1038.3 322.447C1041.34 302.307 1045.58 283.8 1051.17 283.117C1064.66 281.471 1072.49 278.348 1075.31 273.482C1078.14 268.605 1081.78 248.603 1089.66 194.789C1091.08 185.058 1093.18 172.567 1094.33 167.03C1099.09 143.956 1110.02 155.03 1114.97 132.594C1120.91 105.707 1106.77 71.3752 1097.57 69.4306C1092.76 68.4121 1091.28 69.842 1086.47 80.1191ZM1084.98 138.732C1082.9 146.747 1079.75 163.545 1077.98 176.061C1075.77 191.66 1073.56 200.133 1070.93 203.008C1068.15 206.057 1067.87 207.255 1069.9 207.403C1071.97 207.553 1072.06 210.694 1070.23 219.56C1062.88 255.272 1061.67 257.892 1052.89 257.254C1047.67 256.875 1047.58 256.463 1050.12 243.644C1056.19 213.013 1057.25 209.039 1059.33 209.19C1060.54 209.278 1061.19 206.832 1060.78 203.753C1060 197.826 1066.07 176.187 1069.13 173.983C1070.13 173.266 1071.06 169.885 1071.19 166.469C1071.33 163.054 1072.85 157.126 1074.58 153.297C1076.3 149.468 1077.96 143.497 1078.28 140.028C1078.95 132.593 1087.29 116.613 1088.17 121.083C1088.5 122.775 1087.07 130.717 1084.98 138.732Z" fill="white" fill-opacity="0.7"/>
<path fill-rule="evenodd" clip-rule="evenodd" d="M541.987 6.29981C539.106 9.33149 537.661 28.0028 539.863 33.7109C542.872 41.5088 544.932 55.9005 543.4 58.4335C541.781 61.1122 528.861 109.799 526.444 122.333C525.698 126.201 524.309 129.861 523.356 130.468C522.401 131.078 521.464 134.506 521.272 138.089C520.572 151.136 509.995 185.935 507.37 183.835C506.46 183.106 505.863 179.755 506.044 176.385C506.416 169.444 502.44 163.963 498.673 166.224C491.941 170.26 483.251 180.978 482.987 185.571C482.826 188.374 484.25 193.533 486.155 197.037C489.164 202.579 490.496 203.291 496.369 202.51L503.12 201.613L501.244 212.18C500.211 217.991 496.605 228.62 493.233 235.804C489.859 242.987 487.049 249.803 486.987 250.955C486.709 256.133 472.112 272.277 461.716 278.907C440.822 292.226 438.188 297.769 446.327 311.253C450.445 318.075 453.091 318.535 462.615 314.073C471.425 309.947 478.226 302.815 487.201 288.29C497.46 271.687 516.608 225.036 517.126 215.379C517.233 213.369 517.971 211.757 518.765 211.799C522.595 212.005 555.672 246.794 567.585 263.146C593.724 299.03 615.687 325.94 618.987 326.13C625.076 326.48 624.873 320.228 618.199 301.635C614.569 291.522 610.546 276.818 609.261 268.958C607.973 261.098 601.899 240.668 595.761 223.558C589.624 206.447 583.116 185.994 581.295 178.105C579.477 170.216 577.38 161.768 576.636 159.331C571.22 141.605 559.855 83.9145 560.972 79.8293C561.71 77.1316 561.607 74.3583 560.74 73.6646C557.945 71.429 557.666 55.616 560.231 44.8439C566.321 19.2822 566.333 17.0948 560.419 11.6626C553.471 5.27488 545.234 2.88029 541.987 6.29981ZM556.013 117.907C558.575 129.431 561.757 143.822 563.084 149.886C564.413 155.951 567.174 166.396 569.222 173.099C571.269 179.801 574.928 192.256 577.35 200.776C579.773 209.297 585.324 225.754 589.69 237.35C594.053 248.947 597.528 260.23 597.41 262.425C597.292 264.622 597.989 268.408 598.959 270.84C599.928 273.274 600.343 277.398 599.879 280.01C599.13 284.217 598.042 283.372 590.279 272.56C585.464 265.853 578.76 256.626 575.382 252.057C572.004 247.487 565.16 238.176 560.171 231.366C555.184 224.554 546.941 215.327 541.853 210.858C536.767 206.39 530.186 200.131 527.233 196.948L521.859 191.163L525.843 173.99C530.112 155.595 535.561 135.135 539.033 124.469C540.211 120.851 541.273 116.074 541.392 113.853C541.511 111.632 542.761 106.375 544.166 102.17C545.574 97.9657 547.195 93.0794 547.771 91.3123C549.058 87.3627 549.639 89.2375 556.013 117.907Z" fill="white" fill-opacity="0.7"/>
<path fill-rule="evenodd" clip-rule="evenodd" d="M835.116 37.5038C833.493 39.7729 830.241 46.6563 827.892 52.7982C820.004 73.4219 814.549 88.9447 814.456 91.0303C814.405 92.1695 812.572 96.5948 810.381 100.864C808.19 105.133 805.682 112.003 804.808 116.128C803.935 120.254 801.145 131.203 798.608 140.46C792.594 162.41 790.113 173.144 787.347 189.173C786.098 196.405 783.222 212.456 780.953 224.842C777.634 242.961 771.618 294.775 769.396 324.391C769.008 329.545 771.75 333.196 776.206 333.457C780.262 333.693 786.158 327.206 788.584 319.841C789.934 315.736 792.956 307.353 795.299 301.211C797.642 295.069 801.648 284.174 804.203 277C815.14 246.273 828.645 218.762 844.258 195.401C849.773 187.15 854.323 179.531 854.37 178.469C854.417 177.408 855.743 175.572 857.314 174.389C858.887 173.206 862.91 167.885 866.256 162.561C869.6 157.24 876.72 147.487 882.08 140.887C887.439 134.287 896.819 122.598 902.924 114.913C909.029 107.227 916.619 97.9024 919.793 94.19L925.559 87.4415L924.31 94.011C923.621 97.6242 921.535 105.197 919.671 110.84C917.81 116.484 914.619 127.415 912.582 135.132C910.544 142.85 898.47 254.334 893.072 268.057C884.394 290.126 883.277 294.5 883.416 305.897C883.597 320.75 888.039 329.517 895.551 329.852C899.153 330.013 900.041 329.156 899.827 325.724C899.678 323.339 897.838 318.853 895.738 315.751C890.776 308.424 892.344 294.499 900.005 277.827C906.144 264.47 916.755 156.837 920.725 140.228C925.905 118.548 935.255 87.7945 939.083 79.8426C943.769 70.1006 944.122 65.8194 940.501 62.5535C936.621 59.0508 934.533 60.9717 914.147 86.7999C904.566 98.9397 896.139 109.27 895.418 109.759C894.697 110.247 891.017 114.861 887.24 120.009C883.463 125.16 875.244 136.293 868.977 144.749C833.432 192.715 814.793 226.25 795.653 276.672C783.23 309.397 779.652 316.103 780.112 305.796C780.771 291.024 787.478 239.953 791.786 216.908C801.336 165.823 803.602 156.204 815.198 117.538C817.818 108.805 820.937 97.8709 822.13 93.2391C825.326 80.8334 828.3 73.2221 835.398 59.2831L841.76 46.7859L849.537 47.6098C856.274 48.3211 857.418 47.8817 858.091 44.3171C858.657 41.325 857.34 39.328 853.274 37.0038C845.284 32.4375 838.611 32.6207 835.116 37.5038Z" fill="white" fill-opacity="0.7"/>
<path fill-rule="evenodd" clip-rule="evenodd" d="M40.1535 93.8455C36.807 94.7353 33.3532 96.8127 32.4773 98.462C31.4373 100.42 30.3756 100.879 29.4141 99.7836C27.192 97.2514 13.5095 100.15 9.62194 103.979C5.46773 108.068 3.8665 120.62 6.97632 124.727C11.5524 130.77 15.8937 141.702 17.7031 151.737C21.2078 171.182 26.7553 218.206 25.8156 220.513C25.3013 221.774 25.1398 225.673 25.455 229.178C25.7703 232.683 26.2719 239.597 26.5713 244.541C26.8689 249.485 28.9046 266.568 31.0902 282.501C35.0507 311.351 35.0877 311.485 40.083 315.042C42.8416 317.006 46.8615 318.317 49.0146 317.955C51.1676 317.593 54.5384 318.326 56.506 319.583C62.4771 323.402 66.849 319.581 66.691 310.683C66.6158 306.435 66.2001 301.846 65.7682 300.488C64.4249 296.27 64.4123 290.709 65.7511 292.892C67.0598 295.025 72.5174 294.863 74.098 292.641C75.5837 290.557 68.2965 283.837 65.1296 284.369C61.8267 284.925 61.6491 283.879 59.1638 249.049C57.4578 225.115 57.397 223.835 57.1496 205.798C57.0476 198.324 56.8226 190.517 56.6514 188.452C56.482 186.387 57.2325 183.16 58.3245 181.284C59.8259 178.699 59.726 177.457 57.9185 176.17C54.7081 173.884 53.5976 166.439 56.3971 165.969C57.6247 165.762 62.1444 170.52 66.4386 176.539C78.9771 194.116 86.6852 203.35 92.0714 207.244C94.8398 209.245 99.0227 212.616 101.367 214.731C112.579 224.853 140.164 235.426 150.726 233.649C155.267 232.886 158.519 241.452 159.381 256.453C161.546 294.153 166.678 319.22 176.266 338.933C178.557 343.642 179.107 346.839 178.319 350.847C177.015 357.467 181.542 366.558 185.708 365.69C187.186 365.384 191.677 362.781 195.689 359.909C200.821 356.234 202.951 353.41 202.873 350.379C202.766 346.196 202.511 346.15 193.977 348.777C186.724 351.008 185.111 351.007 184.735 348.769C184.484 347.278 184.048 345.486 183.767 344.784C175.132 323.268 168.532 294.522 167.806 275.274C167.696 272.296 167.371 264.995 167.086 259.049C166.802 253.103 166.624 247.004 166.69 245.494C166.756 243.985 166.875 239.878 166.953 236.369C167.039 232.571 169.295 226.892 172.524 222.341L177.95 214.694L174.47 203.851C168.421 185.009 168.194 170.444 173.628 149.489C174.634 145.605 175.202 140.902 174.888 139.037C174.127 134.51 180.919 109.995 183.568 107.712C184.72 106.719 185.428 104.516 185.142 102.815C184.856 101.116 185.416 98.6104 186.385 97.2486C187.355 95.8868 187.546 94.8739 186.811 94.9975C186.077 95.1211 186.415 93.2479 187.564 90.8335C188.713 88.4209 189.366 84.7331 189.014 82.6401C188.34 78.6343 183.501 74.7951 180.997 76.2786C179.22 77.333 164.972 101.674 165.231 103.215C165.332 103.812 163.704 108.003 161.618 112.529C159.53 117.056 157.688 122.825 157.525 125.35C157.361 127.875 156.947 133.257 156.605 137.31C156.262 141.363 156.329 151.977 156.752 160.896C157.175 169.815 157.482 185.292 157.435 195.289L157.349 213.465L150.677 215.163C147.007 216.096 142.604 216.524 140.893 216.113C139.181 215.704 135.857 215.436 133.509 215.521C128.733 215.69 117.832 211.087 109.313 205.302C102.065 200.38 83.3682 180.539 78.9452 173.074C77.061 169.894 74.2469 166.217 72.6905 164.901C71.1363 163.586 69.6543 161.383 69.3973 160.006C69.1423 158.631 66.6079 153.14 63.7677 147.807C57.7248 136.466 55.5282 120.285 58.4568 108.681C60.0896 102.213 59.9211 100.908 56.9881 97.3129C53.1049 92.55 48.552 91.6121 40.1535 93.8455Z" fill="white" fill-opacity="0.7"/>
<path fill-rule="evenodd" clip-rule="evenodd" d="M261.726 55.5428C259.376 58.5728 260.582 74.8913 263.496 79.5C267.476 85.7959 271.461 97.9178 270.339 100.324C269.153 102.868 263.495 146.735 262.913 157.898C262.733 161.342 261.905 164.701 261.073 165.361C260.239 166.024 259.814 169.117 260.128 172.236C261.269 183.595 255.933 215.142 253.114 213.707C252.137 213.209 251.096 210.404 250.801 207.469C250.194 201.427 245.605 197.269 242.295 199.761C236.378 204.212 229.507 214.71 229.893 218.711C230.127 221.153 232.216 225.399 234.536 228.149C238.203 232.498 239.584 232.921 245.126 231.403L251.498 229.658L251.163 239.046C250.977 244.209 248.986 253.899 246.741 260.581C244.493 267.264 242.737 273.55 242.838 274.553C243.291 279.061 231.49 295.089 222.409 302.304C204.156 316.801 202.392 321.962 212.1 332.427C217.013 337.721 219.623 337.738 228.166 332.519C236.071 327.692 241.622 320.56 248.238 306.737C255.801 290.936 267.736 247.93 266.891 239.523C266.715 237.773 267.2 236.276 267.97 236.198C271.684 235.825 308.354 261.088 322.093 273.485C352.239 300.69 377.117 320.752 380.32 320.442C386.227 319.869 385.162 314.503 376.153 299.42C371.253 291.215 365.336 279.106 363.006 272.509C360.673 265.912 351.986 249.157 343.699 235.275C335.412 221.394 326.304 204.681 323.455 198.136C320.608 191.59 317.415 184.602 316.359 182.606C308.681 168.09 289.719 119.945 290.225 116.259C290.56 113.825 290.075 111.447 289.145 110.973C286.144 109.446 283.675 95.8417 284.645 86.178C286.949 63.2464 286.656 61.3573 280.21 57.5202C272.635 53.0074 264.375 52.1254 261.726 55.5428ZM290.75 149.827C294.819 159.403 299.884 171.363 302.004 176.405C304.127 181.447 308.237 190.063 311.14 195.552C314.043 201.04 319.296 211.261 322.813 218.265C326.329 225.269 333.961 238.671 339.775 248.049C345.587 257.428 350.501 266.665 350.693 268.575C350.885 270.488 352.082 273.655 353.354 275.614C354.625 277.574 355.598 281.073 355.515 283.394C355.38 287.132 354.215 286.559 345.241 278.346C339.674 273.251 331.939 266.253 328.053 262.796C324.167 259.338 316.286 252.288 310.537 247.129C304.791 241.968 295.575 235.191 290.057 232.068C284.541 228.943 277.337 224.489 274.052 222.167L268.077 217.948L269.521 202.557C271.07 186.071 273.466 167.634 275.324 157.931C275.954 154.64 276.312 150.365 276.117 148.432C275.923 146.498 276.394 141.783 277.161 137.952C277.931 134.122 278.811 129.673 279.12 128.065C279.808 124.472 280.628 126.006 290.75 149.827Z" fill="white" fill-opacity="0.7"/>
<path fill-rule="evenodd" clip-rule="evenodd" d="M359.668 45.5678C359.766 52.9092 358.867 57.4218 356.061 63.6849C349.199 78.9989 348.814 82.7067 351.901 103.784C353.427 114.2 356.131 127.449 357.911 133.223C359.691 138.998 361.93 147.233 362.886 151.524C365.1 161.464 366.225 162.47 366.705 154.942C366.985 150.557 366.078 145.359 363.3 135.415C361.216 127.96 358.773 115.654 357.869 108.068C356.451 96.1677 356.592 92.9861 358.899 84.8749C361.165 76.9109 361.587 76.2541 361.66 80.5732C361.707 83.3768 365.538 108.38 370.172 136.136C378.314 184.895 379.71 198.743 374.746 181.489C373.44 176.951 371.794 172.912 371.088 172.514C370.383 172.116 369.468 169.914 369.056 167.623C368.065 162.112 365.339 163.914 365.86 169.736C366.074 172.14 367.52 176.194 369.069 178.743C370.619 181.291 372.228 185.271 372.644 187.586C373.061 189.902 374.023 191.684 374.784 191.547C375.738 191.376 375.894 192.01 375.287 193.587C374.188 196.441 376.824 207.609 379.228 210.281C380.537 211.736 381.482 216.846 382.752 229.336C384.613 247.623 394.663 305.608 396.999 311.538C398.628 315.673 401.427 315.828 401.835 311.808C401.989 310.297 401.543 305.883 400.844 301.997C399.65 295.351 399.765 294.946 402.798 295.166C406.553 295.441 406.599 293.875 402.946 290.122C400.554 287.665 399.979 284.723 396.008 254.593C393.546 235.907 391.817 217.676 392 212.312C392.177 207.125 392.029 200.391 391.671 197.347C391.314 194.304 391.416 184.316 391.9 175.15C392.441 164.882 391.937 148.177 390.586 131.614C387.137 89.3619 387.12 88.7446 388.608 59.4196C388.775 56.1225 384.724 52.6975 382.588 54.3306C381.735 54.9834 381.095 57.6752 381.169 60.3155C381.242 62.9541 381.453 73.9051 381.638 84.6513C381.823 95.3973 382.56 110.987 383.276 119.294C384.484 133.319 385.248 151.573 385.224 165.811C385.219 169.093 385.264 177.093 385.326 183.587C385.388 190.082 385.191 195.87 384.89 196.447C384.59 197.026 383.285 189.635 381.992 180.026C380.698 170.416 377.102 146.905 373.999 127.779C367.3 86.482 365.667 69.7739 367.851 64.8379C370.812 58.143 381.144 50.0363 389.594 47.7795C401.461 44.6085 435.814 46.7607 451.139 51.6342C454.987 52.8582 459.088 53.6872 460.253 53.4779C461.416 53.2687 468.034 54.3798 474.959 55.9473C481.883 57.5147 488.681 58.5934 490.066 58.3444C491.452 58.0954 494.988 58.968 497.925 60.2857C504.32 63.1498 505.364 62.2821 504.086 55.1684C502.713 47.5296 498.037 44.1486 487.998 43.5365C483.398 43.2555 478.136 42.6506 476.304 42.1942C474.472 41.7361 470.611 40.9628 467.724 40.4746C464.836 39.9863 455.35 38.179 446.642 36.4584C437.934 34.7377 423.212 32.2612 413.925 30.9549C398.581 28.7961 395.943 28.8784 385.033 31.8431C374.558 34.6906 372.576 35.7695 369.499 40.2986C367.177 43.7137 365.912 44.6639 365.797 43.0757C365.387 37.3651 364.176 34.9582 361.917 35.3643C360.027 35.704 359.566 37.7978 359.668 45.5678Z" fill="white" fill-opacity="0.7"/>
<path fill-rule="evenodd" clip-rule="evenodd" d="M695.893 45.7163C708.001 56.8028 710.221 79.2556 701.54 102.812L696.398 116.773L705.422 117.887C718.478 119.497 732.663 125.953 738.919 133.131C751.073 147.078 756.909 182.419 751.843 211.389C750.237 220.575 720.975 279.864 708.847 287.53C688.76 300.23 680.64 304.229 677.969 305.856C676.891 306.514 669.359 309.048 667.577 309.958C658.93 312.5 654.071 314.66 640.047 315.744C627.585 316.707 633.511 305.351 633.042 298.015C632.574 290.679 664.197 302.012 681.557 285C689.062 277.641 698.539 268.574 702.617 264.847C706.695 261.114 712.462 254.168 713.086 253.168C713.71 252.167 730.013 237.301 734.153 228.714C738.294 220.128 740.713 208.709 741.271 205.282C744.467 185.658 742.275 159.188 733.483 147.131C725.353 135.981 699.563 133.303 686.921 142.293C683.381 144.811 676.03 147.325 670.586 147.881C660.891 148.872 660.671 148.763 659.864 142.64C659.389 139.032 659.903 134.1 661.081 130.977C662.766 126.501 664.18 125.687 669.241 126.288C676.624 127.164 682.17 122.297 688.962 108.987C701.275 84.8576 698.995 65.0699 683.388 60.5873C677.72 58.9589 668.432 63.4565 669.378 67.3707C669.71 68.7444 672.808 72.4408 676.262 75.5891C683.048 81.7715 683.692 83.4388 681.196 88.398C679.871 91.0327 678.155 90.4705 671.961 85.3743C661.762 76.9818 656.831 70.6585 656.453 65.488C656.056 60.0678 661.618 52.2335 666.232 51.71C668.167 51.4906 671.595 49.6785 673.848 47.6862C679.448 42.7332 691.462 41.6606 695.893 45.7163Z" fill="white" fill-opacity="0.7"/>
</svg>
