<svg width="216" height="286" viewBox="0 0 216 286" fill="none" xmlns="http://www.w3.org/2000/svg">
<path fill-rule="evenodd" clip-rule="evenodd" d="M156.958 2.25523C136.232 -0.336761 122.904 -0.645695 105.883 1.07748C99.6509 1.70708 92.0489 2.225 88.99 2.22609C76.1185 2.23205 43.5672 6.78599 28.5473 10.683C22.2456 12.3172 14.5961 13.7986 11.55 13.9741C3.73171 14.4244 -2.30562 21.7187 0.857027 26.8943C2.77066 30.0243 41.1615 35.8152 42.3539 33.1537C43.7602 30.0148 41.7955 28.6845 32.4463 26.4501C16.9082 22.7351 19.7046 21.2866 48.4001 18.1826C53.9469 17.5824 61.511 16.6534 65.2097 16.1169C69.3323 15.5188 74.7894 16.0398 79.3102 17.4631L86.6847 19.7852L81.8207 30.5362C79.1459 36.4497 76.6484 42.9933 76.2698 45.0793C75.8913 47.1653 75.014 49.1942 74.3209 49.5879C73.6266 49.9814 71.681 55.8735 69.9969 62.6817C68.3128 69.4899 65.0914 80.7378 62.8383 87.6782C60.5851 94.6187 56.9545 107.113 54.7703 115.444C52.585 123.775 50.1901 132.736 49.4463 135.357C48.7025 137.978 46.8611 145.912 45.3533 152.988C43.095 163.587 42.928 165.91 44.4068 166.178C45.7935 166.43 46.5848 164.392 47.8889 157.206C48.8171 152.091 49.91 147.968 50.3191 148.043C50.7272 148.117 52.5775 142.252 54.4296 135.009C56.2829 127.765 57.786 123.201 57.7725 124.862C57.7575 126.524 55.8443 135.038 53.5195 143.783C51.1951 152.526 48.2144 165.655 46.8964 172.959C44.4651 186.424 34.0878 231.33 31.9064 237.821C31.2511 239.769 29.918 241.218 28.944 241.041C27.9689 240.864 26.974 241.811 26.7319 243.145C26.4898 244.479 26.9378 245.688 27.7275 245.831C28.8438 246.034 28.7655 246.466 27.3754 247.772C26.392 248.696 25.0363 252.488 24.3626 256.201C23.6888 259.914 21.8643 265.691 20.3099 269.04C17.1769 275.783 16.3694 283.174 18.5783 284.881C21.7572 287.339 24.6775 280.917 31.6839 256.058C34.3494 246.6 37.2052 239.915 36.1898 245.51C35.3793 249.976 38.3527 263.611 41.5867 270.259C45.3499 277.996 47.0463 279.184 48.9095 275.386C49.7117 273.751 48.9627 270.802 46.6841 266.632C44.7957 263.173 42.5606 255.896 41.7192 250.46C40.2727 241.126 40.4278 239.27 44.4924 217.138C51.726 177.747 63.5903 124.573 74.222 83.898C78.9667 65.7477 87.1891 40.6236 87.7292 42.6257C88.2417 44.521 103.289 51.7262 113.737 55.0771C117.773 56.3724 123.695 58.6347 126.896 60.1042C134.629 63.6557 137.403 64.0504 137.249 61.5821C137.059 58.5396 126.25 51.1044 118.367 48.5948C108.359 45.4073 109.46 42.7459 120.88 42.5167C126.188 42.4109 136.731 41.8655 144.31 41.3033C153.845 40.5966 163.369 41.1674 175.224 43.1601C189.019 45.4798 192.664 45.6084 193.932 43.8209C196.065 40.8154 196.16 39.8556 194.633 36.7524C192.373 32.1649 183.411 29.5764 145.84 22.6597C122.238 18.3165 108.715 15.1993 107.524 13.829C106.01 12.0895 107.164 11.6157 113.994 11.1749C120.327 10.7641 122.625 11.1577 123.643 12.8258C124.668 14.5016 125.504 14.6065 127.211 13.2727C128.437 12.3144 130.929 11.6057 132.749 11.6971C134.569 11.7869 139.176 11.5356 142.988 11.1349C151.822 10.2075 193.874 17.8322 204.504 22.2883C210.858 24.9531 212.715 25.2349 213.807 23.7009C216.38 20.0824 216.253 16.0556 213.498 13.9437C209.98 11.2459 181.099 5.27486 156.958 2.25523ZM148.385 32.6273C147.371 33.1398 143.044 33.5706 138.768 33.5846C132.138 33.6059 130.537 33.068 127.895 29.9328L124.795 26.2568L137.512 28.9771C144.505 30.4717 149.399 32.1147 148.385 32.6273ZM112.202 29.2497C116.797 31.0824 120.442 33.2204 120.3 34.003C120.158 34.784 119.093 35.2857 117.934 35.1204C116.775 34.9536 110.139 34.7465 103.187 34.6607C96.2347 34.575 90.5951 34.2431 90.6532 33.9229C90.7113 33.6027 92.0406 30.8741 93.6088 27.8582C96.2559 22.7648 96.7228 22.5004 100.153 24.1451C102.185 25.1201 107.607 27.4171 112.202 29.2497ZM40.3829 172.184C38.8394 175.33 37.21 185.277 37.3392 190.769C37.4191 194.155 37.7309 194.528 38.9864 192.738C39.8372 191.523 41.159 187.637 41.9219 184.101C42.6859 180.565 43.758 176.278 44.3044 174.575C45.5427 170.72 42.1229 168.637 40.3829 172.184ZM32.1775 214.486C31.1254 221.413 30.7576 227.173 31.3606 227.282C31.9624 227.391 33.6177 221.866 35.0382 215.005C37.1315 204.893 37.2862 202.468 35.8552 202.208C34.4206 201.948 33.7322 204.243 32.1775 214.486Z" fill="white" fill-opacity="0.1"/>
</svg>
