<svg width="203" height="308" viewBox="0 0 203 308" fill="none" xmlns="http://www.w3.org/2000/svg">
<path fill-rule="evenodd" clip-rule="evenodd" d="M84.264 2.25255C66.2633 6.86223 49.491 19.1094 36.4996 37.1318C19.9375 60.1103 3.81152 101.77 0.827105 129.295C-0.791008 144.207 0.0924581 177.138 2.38461 187.389C7.72023 211.249 10.2063 228.248 9.42636 235.549C8.46463 244.543 9.389 248.944 12.2377 248.934C14.8969 248.924 15.8127 256.52 16.4471 283.867C16.9559 305.779 17.165 307.196 19.9607 307.704C25.2393 308.661 27.526 301.735 27.4642 284.965C27.4278 275.084 28.3911 265.718 30.2549 257.834L33.1011 245.792L53.7038 244.473C86.4909 242.371 133.213 236.982 135.774 235.006C136.196 234.68 141.076 234.195 146.618 233.925C156.851 233.43 163.073 231.628 174.742 225.772C182.984 221.638 194.933 211.037 194.921 207.869C194.916 206.539 196.185 204.337 197.741 202.976C201.782 199.442 204.404 177.369 201.894 168.03C197.758 152.646 191.994 144.983 176.053 133.677C159.502 121.939 142.863 117.387 107.092 114.815C99.9327 114.3 93.864 113.627 93.6069 113.321C93.3499 113.014 94.691 109.657 96.5872 105.86C98.4834 102.064 104.064 88.4583 108.99 75.6256C113.915 62.7928 118.538 50.8914 119.26 49.1772C119.984 47.4629 120.574 45.3136 120.57 44.4032C120.567 43.4927 123.146 37.0455 126.302 30.0746C129.457 23.1054 132.035 16.1689 132.029 14.6599C131.985 2.68785 107.453 -3.68459 84.264 2.25255ZM113.603 17.6007C117.543 18.8121 119.035 20.2242 119.045 22.7495C119.066 28.5868 103.027 77.257 100.418 79.2704C99.6495 79.8628 97.4819 84.5665 95.6008 89.7225C91.737 100.311 82.3976 111.85 76.3952 113.449C74.1907 114.038 70.9013 114.9 69.0853 115.365C65.5906 116.26 63.0161 122.375 63.0431 129.713C63.0565 133.342 63.627 133.953 66.3096 133.21C83.0015 128.58 108.74 127.093 121.372 130.027C125.482 130.981 134.043 132.688 140.397 133.822C152.641 136.005 160.098 139.34 173.661 148.701C187.006 157.91 195.104 175.16 192.671 189.191C191.421 196.402 183.03 206.337 173.669 211.689C161.831 218.459 159.924 218.647 152.114 213.821C136.31 204.056 137.075 204.279 134.43 208.642C132.123 212.445 121.935 217.224 113.575 218.426C111.364 218.744 109.592 219.81 109.636 220.795C109.748 223.297 120.418 223.055 129.895 220.337C139.459 217.594 147.236 217.321 147.245 219.726C147.254 221.995 144.35 222.782 123.545 226.142C108.181 228.624 106.079 228.631 103.91 226.218C100.773 222.724 97.5312 222.722 98.6272 226.213C99.571 229.222 95.9487 230.02 94.492 227.124C93.2086 224.573 89.3621 224.944 84.5395 228.087C81.738 229.913 79.8145 230.223 78.6519 229.035C77.7026 228.066 75.6734 227.573 74.1434 227.939C72.6134 228.305 62.9963 229.231 52.7728 229.995C35.0232 231.322 34.2188 231.231 34.9256 228.017C35.3323 226.166 36.3269 219.408 37.1333 212.997C37.9411 206.587 39.5638 194.08 40.7385 185.204C41.9133 176.328 42.8176 159.994 42.7478 148.907C42.678 137.819 42.9286 128.124 43.3061 127.362C43.6821 126.601 44.3674 117.525 44.8282 107.192C45.289 96.8583 45.9343 86.7638 46.2609 84.7588C46.5876 82.7539 47.467 74.1622 48.2137 65.6678C50.0804 44.4425 56.104 30.1988 65.4821 24.8323C80.9857 15.9609 99.3215 13.2068 113.603 17.6007ZM44.2015 49.3713C39.5908 64.0865 32.7681 130.717 32.8215 160.502C32.8376 169.571 32.2647 180.864 31.5476 185.598C30.8304 190.331 29.4697 201.736 28.5217 210.943C26.9064 226.622 24.0254 235.087 21.5092 231.54C20.2969 229.831 15.125 206.078 12.6129 190.685C11.6483 184.774 10.2699 177.601 9.5494 174.747C7.40833 166.254 7.87581 130.28 10.3035 116.874C14.0406 96.2296 26.6639 66.6271 38.6912 50.3092C44.8653 41.9292 46.6269 41.6306 44.2015 49.3713Z" fill="white" fill-opacity="0.1"/>
</svg>
