<svg width="122" height="273" viewBox="0 0 122 273" fill="none" xmlns="http://www.w3.org/2000/svg">
<path fill-rule="evenodd" clip-rule="evenodd" d="M63.8557 2.48873C75.9634 13.5753 78.1841 36.0281 69.5033 59.5849L64.361 73.5455L73.3852 74.6595C86.441 76.2692 100.626 82.7258 106.882 89.9034C119.036 103.851 124.872 139.191 119.806 168.161C118.2 177.347 88.9378 236.637 76.8102 244.303C56.7229 257.002 48.6025 261.001 45.9323 262.629C44.8536 263.286 37.3224 265.82 35.5401 266.731C26.8933 269.273 22.034 271.432 8.01006 272.517C-4.45216 273.479 1.4739 262.124 1.00537 254.788C0.536836 247.451 32.1595 258.784 49.5195 241.773C57.025 234.414 66.5022 225.346 70.5798 221.619C74.6576 217.887 80.4249 210.94 81.0491 209.94C81.6733 208.94 97.9754 194.073 102.116 185.487C106.257 176.901 108.676 165.481 109.234 162.055C112.43 142.431 110.237 115.96 101.446 103.903C93.316 92.7537 67.5255 90.0757 54.884 99.0657C51.3436 101.584 43.9934 104.097 38.5493 104.654C28.8538 105.645 28.6338 105.535 27.8267 99.4121C27.352 95.8048 27.8661 90.8727 29.0436 87.7493C30.7292 83.2736 32.143 82.4598 37.2044 83.0607C44.5869 83.936 50.1332 79.0697 56.925 65.759C69.2375 41.6301 66.9576 21.8423 51.3505 17.3597C45.6829 15.7314 36.3949 20.229 37.3408 24.1431C37.6732 25.5169 40.7711 29.2133 44.2251 32.3616C51.0113 38.544 51.6545 40.2113 49.1592 45.1705C47.8337 47.8051 46.1183 47.243 39.9239 42.1467C29.7249 33.7543 24.7944 27.431 24.4159 22.2604C24.0192 16.8402 29.5813 9.00593 34.1951 8.48248C36.1299 8.26305 39.5575 6.45092 41.8113 4.45867C47.411 -0.49433 59.4253 -1.56697 63.8557 2.48873Z" fill="white" fill-opacity="0.1"/>
</svg>
